<mxfile host="65bd71144e">
    <diagram id="8O3T0lqOAlrm4Kr-taGj" name="Page-1">
        <mxGraphModel dx="748" dy="460" grid="0" gridSize="10" guides="1" tooltips="1" connect="1" arrows="1" fold="1" page="1" pageScale="1" pageWidth="850" pageHeight="1100" math="0" shadow="0">
            <root>
                <mxCell id="0"/>
                <mxCell id="1" parent="0"/>
                <mxCell id="2" value="" style="whiteSpace=wrap;html=1;aspect=fixed;" vertex="1" parent="1">
                    <mxGeometry x="144.25" y="49.75" width="220.5" height="220.5" as="geometry"/>
                </mxCell>
                <mxCell id="3" value="" style="rounded=0;whiteSpace=wrap;html=1;" vertex="1" parent="1">
                    <mxGeometry x="190" y="110" width="90" height="100" as="geometry"/>
                </mxCell>
                <mxCell id="4" value="" style="rounded=0;whiteSpace=wrap;html=1;" vertex="1" parent="1">
                    <mxGeometry x="240" y="120" width="32" height="20" as="geometry"/>
                </mxCell>
                <mxCell id="5" value="" style="rounded=0;whiteSpace=wrap;html=1;" vertex="1" parent="1">
                    <mxGeometry x="200" y="120" width="30" height="20" as="geometry"/>
                </mxCell>
                <mxCell id="6" value="" style="rounded=0;whiteSpace=wrap;html=1;" vertex="1" parent="1">
                    <mxGeometry x="200" y="150" width="30" height="20" as="geometry"/>
                </mxCell>
                <mxCell id="7" value="" style="rounded=0;whiteSpace=wrap;html=1;" vertex="1" parent="1">
                    <mxGeometry x="200" y="180" width="30" height="20" as="geometry"/>
                </mxCell>
                <mxCell id="8" value="" style="rounded=0;whiteSpace=wrap;html=1;" vertex="1" parent="1">
                    <mxGeometry x="239.5" y="180" width="30" height="20" as="geometry"/>
                </mxCell>
                <mxCell id="9" style="edgeStyle=none;html=1;exitX=1;exitY=0.5;exitDx=0;exitDy=0;entryX=0;entryY=0.75;entryDx=0;entryDy=0;" edge="1" parent="1" source="10" target="3">
                    <mxGeometry relative="1" as="geometry"/>
                </mxCell>
                <mxCell id="10" value="Robot's Deck" style="text;html=1;strokeColor=none;fillColor=none;align=center;verticalAlign=middle;whiteSpace=wrap;rounded=0;" vertex="1" parent="1">
                    <mxGeometry x="57.5" y="170" width="60" height="30" as="geometry"/>
                </mxCell>
                <mxCell id="11" style="edgeStyle=none;html=1;entryX=0;entryY=0.5;entryDx=0;entryDy=0;exitX=1;exitY=0.5;exitDx=0;exitDy=0;" edge="1" parent="1" source="12" target="5">
                    <mxGeometry relative="1" as="geometry">
                        <mxPoint x="17.5" y="115" as="sourcePoint"/>
                        <mxPoint x="168.5" y="125" as="targetPoint"/>
                    </mxGeometry>
                </mxCell>
                <mxCell id="12" value="Card Compartment" style="text;html=1;strokeColor=none;fillColor=none;align=center;verticalAlign=middle;whiteSpace=wrap;rounded=0;" vertex="1" parent="1">
                    <mxGeometry x="57.5" y="115" width="65" height="30" as="geometry"/>
                </mxCell>
                <mxCell id="13" value="" style="rounded=0;whiteSpace=wrap;html=1;" vertex="1" parent="1">
                    <mxGeometry x="287" y="130" width="30" height="20" as="geometry"/>
                </mxCell>
                <mxCell id="14" value="" style="rounded=0;whiteSpace=wrap;html=1;" vertex="1" parent="1">
                    <mxGeometry x="287" y="165" width="30" height="20" as="geometry"/>
                </mxCell>
                <mxCell id="15" style="edgeStyle=none;html=1;exitX=0;exitY=0.5;exitDx=0;exitDy=0;" edge="1" parent="1" source="16" target="13">
                    <mxGeometry relative="1" as="geometry"/>
                </mxCell>
                <mxCell id="16" value="Draw Pile" style="text;html=1;strokeColor=none;fillColor=none;align=center;verticalAlign=middle;whiteSpace=wrap;rounded=0;" vertex="1" parent="1">
                    <mxGeometry x="377.25" y="125" width="60" height="30" as="geometry"/>
                </mxCell>
                <mxCell id="17" style="edgeStyle=none;html=1;exitX=0;exitY=0.5;exitDx=0;exitDy=0;" edge="1" parent="1" source="18" target="14">
                    <mxGeometry relative="1" as="geometry"/>
                </mxCell>
                <mxCell id="18" value="Playing Pile w/&amp;nbsp;optical beam break sensor" style="text;html=1;strokeColor=none;fillColor=none;align=center;verticalAlign=middle;whiteSpace=wrap;rounded=0;" vertex="1" parent="1">
                    <mxGeometry x="380" y="160" width="144" height="30" as="geometry"/>
                </mxCell>
                <mxCell id="19" style="edgeStyle=none;html=1;exitX=0.5;exitY=1;exitDx=0;exitDy=0;" edge="1" parent="1" source="20">
                    <mxGeometry relative="1" as="geometry">
                        <mxPoint x="257.5" y="85" as="sourcePoint"/>
                        <mxPoint x="257.5" y="143.9999999999999" as="targetPoint"/>
                    </mxGeometry>
                </mxCell>
                <mxCell id="20" value="Robotic Arm w/ Suction cup" style="text;html=1;strokeColor=none;fillColor=none;align=center;verticalAlign=middle;whiteSpace=wrap;rounded=0;" vertex="1" parent="1">
                    <mxGeometry x="215.68" width="83.64" height="30" as="geometry"/>
                </mxCell>
                <mxCell id="21" value="" style="shape=image;verticalLabelPosition=bottom;labelBackgroundColor=default;verticalAlign=top;aspect=fixed;imageAspect=0;image=data:image/png,iVBORw0KGgoAAAANSUhEUgAAAmQAAAJkCAMAAACIz82OAAAAAXNSR0IB2cksfwAAAAlwSFlzAAALEwAACxMBAJqcGAAAAu5QTFRFAAAA////HR0bHh4cHx8dHBwa/v7+ICAeGxsZ/f39GhoYGRkXISEf///9IiIgGBgW/Pz8JCQi+/v7IyMhFxcVFhYU+vr6JSUjFRUTHh4eHx8fHR0dHBwcJiYk+Pj4+fn5FBQSJyclGxsbpKSig4ODICAgGhoaR0dFISEh9vb09/f3ExMRGRkZEhIQGBgY9vb2KCgmIiIiIyMjFxcXJCQkKSkn5OTk9fX1JSUlFhYWEREPFRUV8/PzKioo9PT0KyspJiYm8vLyEBAOMjIxJycnDw8NDQ0MFBQULS0rKCgoLCwqNzc2MTEv8PDv8fHxNTU0/v78ERERExMTLCwsQ0NCMzMy9/f1CgoJVFRTOTk4SEhH/f370dHQDg4M6+vrEhISLi4s3Nzb+/v56enoDw8PKSkpLi4u1dXUPT08mZmYyMjH4eHgz8/OysrJ/Pz65OTkPDw7+vr4vLy7RUVEKysrKioq7e3sbm5tc3Ny5+fmLy8t6urq7+/v2NjXOzs5DAwK7u7uw8PC09PSVlZVQUFAS0tK39/eQEA/tra1MDAuUVFQ3d3cdXV0TExLXV1c+fn3oqKin5+ea2tqZWVkm5uawMC/ioqJX19eXFxb1tbW4+PicHBvYGBfWlpZv7++UFBP7+/u2dnYra2s5ubmqqqp9fXzTk5MZmZlCAgHqamoSUlJ7e3ty8vL4eHgYWFhsLCvY2Nih4eGPj4+zc3MeHh3l5eWxMTDkpKRWVlYaGhnxcXEgIB/V1dWjY2Ms7OyoKCfhoaFenp5aWlohISDpqalUlJSeXl4t7e2xsbG6+vrjo6Nk5OSurq5i4uKubm4NjY2paWktLSz5eXkcXFw3t7ef39+bGxrsbGw6urpnJybfHx70tLSdnZ1rq6tlZWTODg4lZWV7OzsRkZE2tragYGBvr686+vq6OjonZ2dj4+P5ubliIiIq6uqTk5OkJCQp6en4uLhfX18BwcGwcHBoqKgBQUD5OTj4+Pi6OjnAQEAQy2zKQAAAPp0Uk5TAP//////////////////////////////////////////////////////////////////////////////////////////////////////////////////////////////////////////////////sP///////////////////////////////////////////////////////////////xD//5D/////////IP/w////////////////////////////////////QP//////////////////YP//////////MP////9QcP//oP//////4P//////wNCA/yriv88AAI8FSURBVHic7H13YBvl3T93z/PoHt3U6e60ZUsqEsIalhdecezYieM4e++EkD3f7JAAIYQQZiDsPRvKKGXvUfYos9AyC4W2lELpLrTv77/f80j2SYkSEvMmyEnu0zq20fDz3H30Xc93HHOMBQsWLFiwYMGCBQsWLFiwYMGCBQsWLFiwYMGCBQsWLFiwYMGCBQsWLFiwYMGCBQsWLFiwYMGCBQsWLFiwYMGCBQsWLFiwYMGCBQsWLFiwYMHCkYY55/zyk8tvKvUqLBzBmPFxR3Ozt3ra178p9UosHJm46ZgZv28P8nwmJAvB697/XanXY+FIxK+vYkPuRCgMlGA3h7Y9dddNpV6RhSMMNx3zWSqhuT0Gx2LBSIRQ+Nx7v/mg1KuycGThd2cpssxCDgkQciKHjFRV7f0vPVzqZVk4kvBJFQAhjybymgBkyCtAnR2JBmqn/PJ/Sr0yC0cMNkR4TOilGBmoh1BdC+pcVx2IxbyDOz4+p9Rrs3BkYOtUPws1FSg8J6sin/DAunnN0TZfc6Ovbe2Ov51f6vVZOAKwMx0DPOIVza0YOuY0mVWG+dPeuNcbT0b80eHXri71Ci0c7vjPX70+tgea4MEcYLne3wUgkq+uzR8uK/UqLRzWOGOYN9ZLqhTSoKDwuPd3HnCsosCwMPW9XT8r9UItHL54d3Y60EsqUQMGzmSASTIEAVYUJYw96o6ntpZ6qRYOU/zPaN/YWlNdQkFnZWCYJMMIcpDlm/hwHUDDr3rzD6VeroXDEb8cum5cVS+pIFQzmqCwJhBhmchBN+8RjPYEW73jK+sE3UKfMSUSjyRNdam0txtAVnt/5wDmeYQQFPjgpm5RaBt7e8Old/y31Gu2cHjh4QZvzJ82vcnN087FAITykg0gXqBKExgJg+fHxhcMq/Hf+eAcK1PDwoHjI99sX03UlFxfbll9VZcs9P6OAcexCAGB43isyUo8OTSdrIlUx6+65celXrmFwwW/m8hxXJMoe4LtQVYQR8xl7MzVn5093pf0etNpnyzzTYam8gqNl/Es7CVfWDFWPvFKqRdv4fDALlYj3EFQhyxAbuPZQY4yhmHm3vPx6Fh0fnVM4FRNloEARFkkmtOUcJNhK5ipXfnZnFKv38JhgOuHhHW+1SCGV9hgg3AGU+6wDSI0Y+Y8siYWG4xp5EwRIDXMWDN6xrItGjYMAYGVD1plARb2g63dhoqVOgNjrOliYsqpdjvDDGBcLhvDlC3/eLzI86IoCDKHdV1RkGjaagLm3BqfSqaHnbl4Yal3YaFf4xmg6iKVUVg2oPtf3zicdobwiyHCzFZRVr/+m+u4ITCjYQ5AGeiKaZPpmFVSCTacrh6cHtvxzxtKvQ8L/Re/W4nDnTLyqCyrzlSD4WsIvxwDXMxAJof6LRuXfL1o5pBgoknX3Cw2D87rRB6LKscP89f4GxqigbMWW/mNFvaOW1gkpohdL/MclxDla6c7e9jF2OrLqESTJOn4pbdchTehBJZhPjtjJs6EUchAgXSkujZQk46Ma7j0zVLvxkK/xCUQIlbkAFI0jFnwicTYbOUMU8HYKdvKXcyA6YRm0qjzrz1OFhCv8L0ko0naCuK06kDM54v4a6v9vrh3+BW/LvWGLPQ7/GxBL2lqmxvGVk87gSmAvZzQrYySjYg0xzV/uXf+0FhDdbrR521MthnEjqMn5+YRJ0IsABBe+olV5WRhNyyO9JIkUhOoit3nLKBY9h8azLCVl7kc5PuAZZ/9Ndnpb4tG/MmxnDsIFT3vbfaSjNU2v3taqbdloT9hTXMvSWoCNePbfpOjVhbOgZXUJquvdGV/La8oI//tD6s3TJznX1AbiyoeA6lBjs+TjPwDAOARG5564dul3piFfoNX0maKTyAai1/pYlyF+tJRP2hQz08VVKJlQxu/Xrz59ObaaLfGK4JgJtD2AAAuGIRNxqPvl3prFvoLrp09rJcevoAvdo89ry6dvTLN5iqjzKunVHM5HIzD7njlkvmxmbq7WxWwO0+vnh+EJqUu495kqUwLWfxpQdrbSxJ/Y9XKLa6BJslcZeU05j+S/puz0Fz15bkfR9qZ0x7aMULQiRUm5kkGskoTtsihREgXny/15iz0DyxO+xpNdVnT8AwNXZiqkvzywGUbnrztnxffcPXcsp7/WjHL7so9eOvbz01184J5mgkpy4j1nyLWf11G1D7dXurdWegXuNHfYCYrer2DlziJLsxbZEsXr5k9tjbtra4d9umLt73x9+W/nlWWpWEZ+VYmSdLSxTu0PMlgjmSyKAicEOKGWukZFggeb8WcyGOUJUnSd2/lQBoQs7uyRJMmnez2yImMadNDrevsq5796o8z5k66aNJJ0nRJWiHduvqj4W4BQcHgc++DMFQUjlCP8/6x1Nuz0B9wLGIRxNnYA0L+2JdUDzoYmoVBHMnpizfjUDCfhg0gRDwP5HZ07u/vfn7XGQvnTppEiDZpzpfnaQpwZ3qDZRxRlyxGXPSBUm/PQj/A9qm6yvO95Ih3LKW2Vrkj61E6HOunGqLibk31kswjAJFjMR9WoeDx8NC9ecpj7z79+PmDJGnrsxM9KZkD2Xgs5mRWwAAu+HOp92ehH2CnwoWRAEEukOq9gHFRg8uRO0ViHk+xrVgIwgJJBqgPGdJZLahySEREQSIxvPm4K+97e/UjF7pliIjGhB4WYh6K7Jml3p6F/oDrBRWKCFJznVAouoQZwDizsQo7JdobKbfIegyzNA6yvCAQFqkcFniUs71UomyhW2XFTaNH9JJMxwizHBCeKvX2LPQDzAhDkNA4SLUc4MQ1ZdngBA2LOcmX60IO6KoaMuNgtNuPOxxURYB5+nweQSgkPCilC4bBI9yrLiF5N5ZHslVjYuGYY54QIA5pRFFiIo5kdXEu6EpPwun/Z23OGCwXxmaIQiSKEwmJmTnbTNB5SCw0oAUhp4U11HOESUMYmJVxQltU6u1Z6Af46SJIVKAWYhEm6k0NXjOIMIzoSmfWJKs/X1UTmXalJ77B0h4Z1LfUNMjlZJkIdA8bFhOcrgOgC3I+hIE0of3E60u9Pwv9ALe0KMEUsdA9LMuhId3P5VN8Kpl6G7Ozl1xY5okN5s6FWlniOtJ0nlznglxqzx6AUNGDralflnp/FvoBbiPMUWQosLLOY33TLSbJbC6qMz83bbEwzeyXU0R4EVtLMQitiHmvufdFMhZpbLsqWvVLFo45PxwSIR+EOqsaPATHDTI5lk0eY17Mn0myPA+1oAp5XYDBVmLgY0E3PL35Y3tyDBiaOlmeUOr9WegH+K0ORQGLCOgcAip8XtotIdY10kzLDjcleBw6HRi8GAyLejux+NVwWOuRYMUkExO6xoGXSr0/C6XHTdNgEPOiossKK/OwZYZUIMkcjGOZmQIEPSLOTNUw5EMpAwOOSDbAAd4oplcPyXCC7Q69XOoNWig9bvACOSRmPDrLsVoKXy9NKkiIJQ7mxZFe0uhcd9Pvd+169bkn72/lEOZbNaI2szkXufyxInWpIV4WrTMlC8dsSPOyoWoemZeRHMr8RZpemHZtZ54ze8iyghrakH3NTf9Y/sITlw7fFBRlGaLe/LEikrEiJ1xX4u1Z6Af48zo/qkOy4OnCSNHAyi2TTHWZ05fH+XtJo/4Ld+9+RHTzHy/+5/VrevPH9iSZ3A7C6IUS7ctCP8LFp5u5/f7ouLZjGaaSplY76aFSeb3Ndcp80ybzphsie8va+fNvznnowUdXrltblW6MeaPeWMAbjXojyVhtLH7Bn37wHVnodzgzYqrDQNK39hUbY7O5soVK9dkk6z/mh0f4k9GJ35Hk+rs3//7Ur568v61mcFWgpjHpj/s6k/cu/+F2YqG/4pV0Pu3aH/E+mkvwYewDKcUqyT+/rB6bfzy93yOin/5j6/Kn3n3uxqnrqrzzp/z9h9iChf6OC2b7TEkVjadvYZhRNO2aBshOpWz79aOB+aa69A899gDf9ndzHvj36jOs3H4LBH8eXZ02GxHHYx1zK2i+orMn2u8cuHHJGr+pTn3e5B2lXrCFww+XeauT5iwlf/JBp8PZ257A4Vz2xFvpBfOSpqTzetfeVeoFWzj8cGZNJGAOh0i/9W8bU0mEWNlIF3P+QxeOjzf4a9PJ6t7HI94Jlq9ooa944K15ybz32HzhLGKP2ZhyZtDqa0f7ov50bTpdHTNDGGmvla1voc94EHEw348/9PNTxkirpPVLnpqmsoAtCq5G0n8r9YItHHbYfqesQ1HvJdH9W6XpF52269FufmaIU8Wi/LCI95ZSr9jCYYc7cF2TGEz0kujkUdLrt7WEBV7AHIf4Ykm2zso/tNBXXNoUTGiqOVnk1ScWqUHMz9Q0mdUNpO1JssDZpV6whcMOW+tEQRDzrdKh7BFwSDs3oaO9Zrp67y71ii0cdvhbZ2s74A2znjKkZSDS4BDVLQPAsfqeJIs/UuoVWzjc8ONpHtGjGSjffkB0G+1aGGHsaQ9BjduTZLUPl3rJFg43LBEyKS6sh00Sie3ADVgB86Imym7O2JNkg60kVwt9xL17kqgXHIsxzwON7+wSUyrPclgARNzBaaVesYXDDTMm7ItkAhTpiK6QJif4MK/LtMcYxDw4udRLtnCYYc7zM/dFsq6wMNOjqkKoY7J+YoL4n5hQTuA5KwXDQh/wp3NOnhqs2xfJvjXqTlR1D9+ZIfTSIY9YTkQCrPtNqZdtof/jFz3ft762hthd7fy+SLYJJxAb4run6ED1ACDQaiSMgxNLungLhxE+eOG6FpblOZBo2RfJEA8gGv3EA8tbmoK8yAORReR/4YlflHrtFg4LLP94RHOjGoJYbvEUBVt7AfGJ791wkTRJuoQIMQRZDmEWADljza+xsF/8+orh/rjPW8snutkmURD3RbIdX86dTttZS7tGGIJeZ+Q6vyLW8i4t7Au/y/570x1XFbGJV1hNQyG/1x+I1saTvobaZGTNU0vMSSSDtvnGDh5mFvdOvbnEO7HQT5Gj2PKPR+M9x7ixwbCKUwnYGov5qpLzhlY114zY8PpIW3m+R8G7NdUBb6T3+VUflngvFvotbvrZq8MNhQfBPUmGdQOpGj9kcM04Xzzt67j+smuYslNtBZ0wHqheW9NoSrJGK/vawt6x626VB12tvCHvSTIDaFA32GBzzOeLn33fkooKWthbforZCsNuPzMSrTELSfzjrWIlC3uCqMp7Hu1oDuOULmo4tSfJNFHU3DIf8lV13H3L+uwQ1fL68gJBVsHs7FwbM4etVlVZQwUtFOPy+/+VjAzhMlDnYXGrOiXVpMNgy18/+3XPlF670+lw5KepljNLx6+LmcW9Ed9xv9j/n7RwlOHqM+f5OqJIhLoHF/cN9mh1gF9038NbqCfpcpZnJ1k6HHmjzMa4/un1R/IkG2xVkljYEzurGoelZ9Nm+7Q9dZG6BJtu+/ks6STGVunIscqVl2K5NouuM8bFzTYGtVW+X5V6Rxb6HaZgMTXCjOwDHbgBhsAbi8T9Nd7xj752moP5LjgYx9zj2syuP7yKNllDeC3sjp9uY4EimqVtYnbwFtSaIz5/fMLzq0dSHpU57fvkGHECXM+MyzcmRor76VLvyUI/wxcrCbPyg7dmspwYlnUjHlh33T0js41VnM59MSxLMvLojLQZwhB1gXuy1Huy0N/wpAcG8/ExrZVt1zFoPW/xUkdFBZFSORPMtU+W0T5ljhvNYCzAQO6yQmUWdserCchB8zipidMUYdEzy0/NWmKuWd9pj+VgczE7G02bTEMAfl3qPVnoZ3illVXyvS66h2jvvTyL9ul3VlIZVllZbrc7bftkGH2O3XaNOZGEdxsGf9aPS70pC/0MF0Il39LC0/GNJA2SpFybO3vOs7SX79PDzAX/nRf0vh6LAs8H/1LqPVnoZ7hCQ/nCSh5fcdKYSdJJ2d7DtGcn+cH2HZa/jSl3Ohj7y/nXy0HEW1llFnbHf+uCCbMSPBqf8I6NKfvu2FghyXowIZwCGUS0LsikkGBllVnYA/fq+TYE/vS6c5iKA6VYnmT3cazAE5sfCkEdoBYrVGZhd+wyNNMoi45rPpkZ2XeSbW3R2BQnYjGhshDyVlaZhd1x/tlus6dFQ3Pz5jk2ps/q8qQnebfgxoqW0jgMDffeRt9YOFrxu/cffDF0u2n4V6erIl8yZfuOWeyDZNJOjwo0D5ANmTMAK3xU6n1Z6C/YvuzCbZugGFa68jbZsHFX2g5YkOVJdsJEnkVKGGIOGEgDK0u9NQv9Av97w7ETki2a4cEeZPaE9cfiNR3/ZvosycaMeVYBCiSqEgEWc5zPKsC08I+3T54aafQNQ5ohtt4+oqmXZFX+ZCByX276W19INn3Mm1AVtCZFFIDGY+D/vqGyhY+cN+LsDb89qJu1UAL84+nrgirtMFbUvJqgDsNFx49xuLJD7A+YbPZK18q1NbFa00td8I++remD3LevjxNgWPEEf2KNJT+cMWPx9eeqLaoMESFZUU6/iEWAg6uzk3nLHQeuNhnGcWyjz2celEfi32vE4DPDuXZFhCzHn/iM1bPxMMV/PrxthKwCT0rkAEKoON1aFgQNp05eQY+9Hd9xMF6kNhn7aTXVDebcy2Tsqu+xvG/WzhQAj2ROl1njSWvY6mGIGQ+duU5MzBRUVRQhnQjOFpOMRYYbelYutdtdhGGuA2aZi9DsLH+1OegrVtuwrM8LvGFEjM+0QgVAgfWIbPC+mw7+RbBwCHHXFeeN9zeOS6jdXCKlYJZybC8kU2Re5Dj8gp2hVln5dyXF7q4sCR2fjqVNmyy5YOxXfV3ikrMDAQ4CRPwGeUirmOLF6y8/FJfCwqHAF+dcsXJEVcBXO7hNFY2ZfHc4hNDejH5CsiBRo+rMqwYxzMBcttgBo3Ljp2Mbet+ncd3YG3/Xt1Vuf3RelZfTDShjHnZM5ifClKxdcfWhuSQWDi6WfP3Xtd6oNxDweiNJBWoctcWyFEOoqMEKJg6BIHpaH+8zySpczINpc2RhJBnrWwHmL/5xbbqquVpjkaixgvCtrCKVU9TYJWccquti4WDhhivWRBr93mQg4Pd6vf4AJ2CN83hyahLh4nadhIBEW/GPnMKUEXW5zyqlPVHGrGeYT9rMCb+1k+M1F/RppccOrfY2V7EACTzk2C6RF7AqhxrGfrrzEF0aCwcDf3r/2m17cognt1BVgU7DZLSaN+mtqvJGIoHOiSCEjYxpo20bWGE78CgZQ1NkT2Vco6sVTYMCl0l4WF7efH4fFvtEq6boWnGbBEFpeeqQXSEL/zds//K6qUFQJKkyGjJCHoVvVzgZIKhVRSPNzb6Os7/65FKZFXUzeXHdy1SS9UFfljN2xva5j2cFjJDIsiISMn3oVXbxNp3jFU4pshEzPHuWNUqnP2Lhmy9ua0U8kItGBdLEQgBFTdNkIOgKrqlJNkw79pWBo6Sfi24uXxpXcwkziulN4T8A0LZ4Dttp8wktBI7X3UDkdHTjAS/4hkWelBsCtcgbUTYJIeXzQ3ipLHwv/PiFS4c3aJAFooiLZh/RkyTE6x4hlFLksIzazrxsYb3N5pCkuR11Cdm8yTWfXlPZB2WZrcwsd9jOxJyGOZDSdCACqB1oqGz5eaIB3AgEiwaCQbfgEaYc0utloa/479M31lYNjv0LCqmUIGaKWqTLrKKwststBFtBInzVFQtPqCAiyGmfvkr6CLZrnt7nRRq+ZLIK80DhpM+278S4BWM1wSrEhZXxPw9s0QsfG8txGjAwFPZcr2bIivvcQ3vNLPQFVz81pbatOtDcGJ0vi7Is4tTkInVJRRlWDFHQpnw4Z0X2jNLpsjGrpOkzYIEJF/Fd5WIcrgP2LgmI5CubOzyk8p6wwnOIkBksOqBl/+klXyOWZYRg8fxMLtGii/JPD/GFs3CAWPbalPn+aCzgq6qOBtJYUIhJ5i7uAQtFZCjaidd9uFSSBk2SbHaHgzLpIunWVS+6DbX3ef5kx13ZUNkBwp4Vew7mI/JnPUEBazwSeOT+5AAW/p8rFoyrFjSRLbYgaShPU7gdh/ziWdg/vphz7KPzxyWro42+QDLm9wZiIg1G7CUOxhOrf+Klu85fsWKFRDCGsdnp+aSN/vwQMMwQRvXQ6OJBfSCZk1nPOG2M43XVcAuazgKPyiFd23AAi981fl5bDKtQAKxQZJMh1UCt9x3yC2hhP/jpkqfOKjqDzObxQMByAACOA2w0ko55fbGhjZ/+6p6lewtMEGX3m44284Db04KnSgMICfuIuTu0hChzBvEueAxE9ab9Lv8vXXyYx4LKKSyHeYzdsGs4a4YykuPn1Xx62qG/iBa+C48/MQF6+KLJIaIochAJugdpGuARN9k7vmqcd9q1y2+m9W62oi49TqLtTrlgrNkxkeeUrtXSKqmvJJO+RhgZMgtYQhjAybmjpe9IYHx5iswT7QoVD6uqECH529Eb+HNNCRwf2zHu1R/oUlrYG3788zfCGgBEchRFymnWKxTVIISsoAtQ7fDVvPXg6o1lWXbtxZynFpXtlXlt5hsovHo3EWV9JtmysMY2uWkyBcYsgNsWfvcWtp/XyQkpEbpDuogN8oou/Y3bWM08U60+ffzwX/8wV9NCMT54/5LR/mRGxrqylzRqDmI9FNJ5OrbZHYT66JcecND4PeGXq76+uBrJzjjKmIFnm33G6JDxlvUXreozyY5/UhMFFVGW0USPjpVvfucmnmM73URFejhe1praoZrY9Pxf6oKJfLGxb+wjP9QVtbA7/vTCtSPStQuq5qV04K4LckXZFAhqmgghR6dSKhMeWVZWWU+LKfdZ62Zn7JV2+9/mmSSTRWB8Il3UZ5JJT4tIhAqXzYpEaNz4hof2vY0/38ezHCdq0FCAymEoI3zv9kcFnTNtTJ//LasPVSlw885LVwbi1b50c9Lb4gZEYhlFZ34hAXKsoAjhTTc+NWPV9GzjARfRlWVle892zcZdnVtNmwy5scdz6UV9V5fS9pUhjhcgBFmWDY2ubXzsP/vayeI4n0EhN+eRWVnQ3VxT+71/WC1AxJnHW5HZl/2Ql9bCMXR+yMLFV06tTs/2+gMBr8/nSxlI1GRxL2nUvC4Epx736uWTJOlWSRqQlWH2nDXmcBYZ/g4b4Z5t4JV5Scgr/KYl34Nk0j8xEABLvFpiKKJhybHR5HH7SHDduW2ypgrETdBlEA6F3CnPjUsuehKzbt7cT+S4P/2wV9jCshfOmlqbTPp9Xn8kFvD5AmnKL4xgkXeJMRzx5GtbpRymn0RkVXYqEv1yle0tkF9GHnNe3Pt6QYca5/lsUl9JdtIY6fVWwHOoh2U1Pn/EN3v0XlXmkjXfDgsJmkaWrySCCh88ffMfpZ0iVlN15vFStTV17gfF1a+dpRaXsMkQGwYPEWGaJgO+2hdJJiORyIIrd57vZPpS0kYZWFbZqs0MIjYRJOLEoylTR5H3mEUchv2/j6PC5SyjAbhB5dMmx5N7rvPSrUX7WbZNOXFI7+PJqskdtdFbbHN/r3GJMMJEuMkeLihM62MOt4Xvj19c/szvwxCBooMXQjAxHAQG0UwsEDV1cmSwLzn65DtOONWZq+44QGSf6SivuMQAbh7wAAqyoQndbzKVB5ZT5uhJoh1UzjC/9Q2u3nOdLffvqTKXXekm4rL38WHptTWNX9mYp1sRa7gVSGw0xT0zjC2L7IfCXV+fOVzVsQiEoiwFUVVFxLMyFEWgGApqqH3rkntOqMjmtDr6cLydO1xyuFbjsIgB1DWDE0SE3mO22IgiPYB0DJvTbnNVVBC2Ou9aO3Tenuv8fyMmXrH7pl5qN2TDPFsNxKOxkyuYd/4awizSEiJUDUUzhB3WNLAfBA//c7PhkW/3hLvIRXcXkYwVDEOgk+Y5JMCuqSe/cE02t8uZGyJywDTLEdJmHzkNk/cEgubhiFVljF7KlDNltoH7bfNjs9uo68AMIHKv7Prahj3XuelbJD/3PwXbeqJF4dWwmXURj3T+ai4z6jVCblbU2iHESAuFlV0lu+xHD/7n6muPY5WuqeEhQah4Eh6k7nnziPgSN43QEgb54G976fWNOcXnGtkrnA4Udlvu2dNfaxfCSOCgIhPtLMAPKWMPQO1mZZ2rvNxJ3Af7G2vTRevU2jNw+B/NnV2mTj6RFTJmo5fxp085n2GWTuOhKMhyAmDAqjhhZSseavznnAc/7SSWPU41CRoxueSgWpxvxapBGGpXRHDnG6+cskKS6IgQan+T+92nZLBerNraooeRofFApBEI9rxTiLG173kkhXA4smS75p5Lh/1r7Z7L9KBuAwnBD3uE2eUTicmFPKwZDxs7YQZ5+SNtWMQG4HhWD/P8uZPPKe0dONKx8I7nRsfS0cHEcaRRChQSEK8rbFGowgM1Vug686WrTxggSWPGSAMps+zOHtlT3pd6oyzGDLpNEVkeKirLc5hn2xbbibW1f+/S4cp2zD71gWMXJAMjkmP3XGcmlGj16KNvvyQbv5+xMuVWBR4j0yYb8TIzkpnT4QVA4TEmyhJyeubCUt+FIxlXX7Zh4nx/MuCNNWePZzDGIocwkIs4xqqsuuPVuwZJY2hC2IrpEr3d2XgY7Zdy4A0Ts6AaU5r0IU99Sz2j6CrvwfEriZ31XbOVCl5dtvWrKfPHRgc3Dg0M23OdGGCPCBPBwFs3HHPMr6fVuHmeN6BsNt97miYb/dbvkwEvI0UU3JNb2MlW49lDhTk/urK7uKWThxUh55b5qD8WC/gjSZqc6G1YN/6qp+6q6Gs4bO8ccTpclU5GGnBKS0gbYv795IQBLhtTPGIp54zmfnYOJK+TTrnn3i4Y3nPdLTP1bpGXzVAF5Df97YHHJrf2/h6rqp3cFos+smKSJG0/MV8SVx0LNF9a6ltxZOKL7Q+9N1wPsUUJomyL5pk8hEdGY9Jb1VBbFR1Xu2DYsB2vLcvqw7IDr/TeFxw9smrV8dJHggpMNRapPWPvVUvZMeR2Ii2z8nLW5c/cz4otYmrPdQ8ZLX7Lau1m1ZQCUu47u243syzSI+aN8Psv2Hi8NFL6nONMm9Pvj0x8vdS340jEsofObJWFlK6FoWfPm6WLGZXFmPd7/cnmRn917fgbH7k5J1McfdSK+4Dd7iwrc0rTx1yOBaG99+96x51c7nTtJXuDnrb3cLt8ziNnBd0i70kYReneMsvJiBXzkrkLTg7B/KeobWxb3HvnIGaSNGZrV0FeXNI3+9pS348jDw9/Pq0OYNyEgm6kY3mPe8UqGPEKDzVCskhg7YQpuxaSuzuyninPdXfqU/udvcKWi3MRw+6E+1HYlGRR37BZruxQy+JXkK8yF7P+L3d3VPl0xIkQasXq8na9xfDkw3sK0mSM86k8gWp/5K2lDDN9kvSRkcGm0emPVt9Q6ltyhOHyRyaMdrOAAzyNh+kYFNlkKhJgUBVmNvvXnn3v4oXkBlf0huHtjj5FxPaO8tw7OUZK0qiXWI+p3rzrOt9nHMVzcIgOrdxCqP3w82dHo3F/sgWGQkiERZLM6ADfsm7FlFwwwYu6Lpq/z64d7/8NU8GMWTGjA/H5ust44EBqUCwcKJa8e7YvzQqGwpIPOAegWhcGRepSYWVoJOC5mx/bdQ29yVn95SirqChzOfc9IbxPoHlATmnOaz9p/X9shylpamuuYwYVP9lJiT3qoUULAo3ReGNk/OmKO8zpRlEcr10QW1qRxySVJmusomZMA78xWXs5baMhSbcBeXK3+frI+MdLfV/6M2764H+/uOlAn/yL1U9MrQkMq82m7NB0ZaJ0lKYULors0zCGtu2jW2h6q6uyopxKnvxMB0dfar33DgedaTnqtJcm1OlBtxwySRbwj1iy14FeG/9+fVugrWrovFh1NBAgnwsDuINFB/hd4O6nN2R0M1RhQMgjEZ/e+/uw6GsMs50ZJC2rg2pT2JTgPmua4d7w47t2XbHhyjvXrHxr9PCVZ++Ycum7F5+x/Ttf8cWbJ5/ti/r8sVjEzwM514+ahTQ0VgRRXPnsv7dIEg155k6AaMGkjWZNDyw/CBEMioGvXDBCOz2szmRlM53b62tedyxTPKLkrmMXDW4IpKOB2sFxv98fUFgRCjouCuTdu2uUtP6JVpN8MhCAGyn5IuIn6omyLGOO/1g1ZNhuvr6DCDKrbnw3bL34uRvPBVAusEkQzwO1ddNzX+1D7P/s7+8tUot7akJRE1mMQCRr4ccbGgOEhVULpr52Bm2yc+BddvYHVw9tiJCivC0jptjb17mNInoDDNCEUbdK2WlLdqfjJElaseqaD88r+hBAnlDMrWqs4REABMMCsfjgNb89wcU4BzHM23eOSzcMjqT9AU4WEY9ZFJ6JWzEbDN1Nm+fVM/bH60Ky4tYxywlhT2jEzGN/2BvY77H8iTXddXUiL4CCNGiRzmIAomYI8vB7f/lFwdNvIl9bX/jrti6cMGBRG4GQQVxIjUPeeDXRQsl0rTcZX/PMMmaWk3EN/L/7kHugbFD2W2UZc/5D20J6uKU4w5Y12Mzbq8jzKrJKU5JmfXLviVyROscshJBVEjyWW1o1rNcEVr67vJyhObgVNmbAbx5bdHrn2trmWjoUk+OQzm8SU7yunjeXhkccjPNjHclKUFeQqHCITQy3WpIV4Gf3nWtwMu8ZEqIuYb6bNLHhMU+gapDng1Pv/Hm+6+DNv50yIoh4RdeF4lK2FtFoSggYNc+enaxqiMYazrx4jo2x05hrth31QaMXzeivpLEP55YK5wNPDT+R00N6UdETGwIhN/uSJGVP2+31I//98blyV53eWSTxsjXrkH7K+FSTNvXuTwYyA8iqs6MAyFfZx+vmext9EZbnid3JCgDoAAz56xLm1Oz06Ru6hwSBQSQZ5jCvwiFWR7I8zrkUCrDbnUponJxNHjS9KJ5ccgKcEkSN/EfOf9UL2T7Ocy7bwYEgbMI03VAurv8I6awWDoogsrbD2xm/8rM5G3Nn3BU59XbgzSkOCI5T7UQ+3fVcw9CUIgbDGihmmRuCVMdCiaG1J6e9+mILEoAyE0wtkmSYdntlNVpxEPzJb7c6c7G7jdk0ofJKYj+esy0ebYwERdoOGcjhybjFWPS+NJJmObpsdyt8RjdEw40FDocTE2aU+s72G9zzYjTuJjaITsgFcwM+TJIpPDHhIQBhNyeEiN8Vn9d5/yM3PDRFZ90ZtyyKtKUm3kufc9WtoVBC4Bpr1l73y6W9xUXZb86DrC3Lsvrv1FvOGtdY5e+SjZQOxGJ1CTKKrH0oMczcW+5e4GsAiFXDot6+5/M8ghgWjYSiw7OfeHyUtIKOZsrlGpVTm4/+tPWqtmE1IgAcUpAburXO7juki0YSk9BuWz1eFKEOoSfIetyI6/ys1Le2v+Dhs/41riEZEomvxELEC9Q/ZAvqH7PVOkjHRIUQTZJsmO9vTvqirSpWBF7xBFWOaEylqF6yXRBFhNwnXvvlaU7Krgqib3ryCfuWhbgf5OTjoGueOS4ZHR+N1c5EmaBAxNme61FCdZ4Tg/cuXf7qhPS4SKBZEWVegWKRxIPEWeGFukVX/mi9NP3WFRJxEmjjMxrPy7mmtjJm4BXDfIKOVJkXOL2lnX/1JIl4M8RsK3s0zrEKCnM6y+kqj0ZbHVYoPnjgwrHe0b6hbTLt4CCzKQCgSJxLM1IOs1WHCBFfgPiZCDak542rmh8dJ+jECdMgFgSBOFlc0U1tEXV++K/eXpo9FuxJ0rcTdlVk4xS2gyfMbC5H2bIL2ob6qpLNgUCziHVedBedZrFhXk4Zpwt/rUoOJZ+TeI0q8gmdEG3P55GPmmLg0S/OPUm6lXigt+Z4ZaNWP7Umaby4zMW8fnYXVIjXwLMopH4+Upok2evJlt72ewUiMzlAJ94AI/xaqW9vv8BpX82v9gZolAGy2Q5NWc1CWdN70WnwlDZvIs4UdQiAl7iLgeYaH5RVjic+FJ1rRI3lPW9W0/CP3z7hJJrh6tgjkE+DDvaDcxbOZJvW3XPh2kCktqY5Wku+EZ8PsnvpqSHTj5AcNhq9tdGacbEqHQQzMsJFxqShiHVciO9e9PQqadIqaYwt16WR+MT1NpozW55de/2Wn2zSFdrRiks8t1FaNV2iG9ryaNqnqxpK8RmFD+qh0f9b6vvbH/DzHabEMjhiYWkiTwkmiwBnrSwiwegUNow4mePoODa2KP6EQmyQfHKFgJcGY73xod7qyNDqac8tp1n6B+eYaA9WlWetpFslafoYSTpp+0PTyKKR+aHgsIBkDeiBmkBDvDGyFneeKDe5heKzSCADYhcgBXMcVtgg+axku2mbpEyt/NGtElGX1OC3Z3u8EJWfX0b9ZZtnJ6vj/ponNmblsrRekr4BdeYxWnUg2WBNVP3gmGPeaM3XP3IaDLV7MHaLSNEVASMsEEtLEXRMCIb0BPEKqNAq+uRniIDz6FpdNOqlteDVbbHY/U+csYUZZOtDiVEfkD01Ymica9WWk6YvOXYq1y64VdYUXTL5JZHiNV+1f2ijNzbv3BGTRVzweC8gMQ1mhniUYT0K2btgCIhGY0zbMtHVxZ21axRtb1BfSUsNcvI4f+w1YOHOx6Zd/8+bK7LhDZc0QNo4hVPMg3FfJDblD6W+x6XH9nt1hTM/eTrtZSi73bqQDUfSXjpEeHHUPiNXXg66VZoktZcZRgox14TUEG8kEm1riMy+8/PlFT3+o9NxaHjGlBG77iKiipc81go4HrmDKN+oRffoMOxWTq8e1zh/WPT+DavPEcNycZkna9D9ippm9Mb4IJHfLDBtyxMTnSwS7z7HWU/DsDTfcc+hmT117bZKWj1nl8ZILxBr35T0sUDAquc95vEdk5EqmHlTubYiSiITJNqDhyoRZtnAJAKiqnJCiMZceVBs4EPiygUz4e55gXhj84TFS2dV5qqwbdTKZ+x7PZL+v4FmGTIDpFO+mUY+JLhOg8hI8OaJQwhzrKGL3ZPbxnuHP0PDVBOGsAouqvMkZiYkrxwiiyxxZ5BBZDRWaLym93ogrUVuCql335CtDaDFvoyjouAzQ1Soo35AZUVlthLBuUJ6ZwqLNZPNAd+an5X6Fpccnwy/vS6s5w18DRk6K2va6QkMaR6F6O4eMXFEV0tYJJIM00g4/ayzRSKBVzmM2k8HtR2PPnSawzaA8IreibLvVcd2ACAWWfnAygGnvLFGCHbpoVbDIB4eny9JI/KJ6HchsTk+9bVcQ7D7Ot1ycQWeTLxQqMliSoDurnPdHiqkITE7ex/X3dwQoyszM77gttVURw7Mupf5TWVlda/7QvzN46UPeZnnzCwNb9vFJb7DpcdDajgoGKq73fxkE+OZGM28LAdH3Hnt4nOunnPN3FPmvrN0xuoPn71+UVjgFQUDIIT2uFfsELeGZW7Tk5ddviUbqqC3YeSWnptx0HzIPfCbkxvaRc2TEjMiJ6tutTDkwtODbVGeck/vVhe2kKcWd88WkCizPO7iWt+7fOFXK0UhpItht/mhawkN4VQFnTg7GRnx8Yxs5QDlVUFmLe0o6jrV0ZM8MmbWWe2KypvmRGBaKW9vv8Di2qZu1B6G7XXmzRFVLjST757y0ifnX0S8NuKVZ3ERceFWbH/z4h2LwooHc0V5VkBsl5+7eHm2/xctYnPlTBdHdvZ32UE/CSc45Y4pgeSCVsHjzuhDDEFQdKEgTse7g0pi+PMFwyU/uFFniw/wibyDniYw4qrLslrtg1+d15JIKYJJVsI4FRDzwedvaKtp++j8kYRRheVUA3bfWsX0h4gucCNzHeuOekH2VW00nMJh4kua6oH+oE57Y8mtlFxjsgwbM336GEKxiyjPJGnhV+e1IFwUwlAQe91p5GHGlo245jLEsoFLx0GNufZi45c7GqLRWKPOaYiXgzKnqiKAnCmB5JD++9du3m23r7UQm6tIkmGM1bNeyw9NuuvBqRzI5+wTJawQiShWp5v9vph3/lczsp5MgWx20jizs4KeaDoY2/qVhLhGvh3pmuybHsWZZIvdp5uzijQMgxyP+ah/8Jl3jNp3IQex5wfe8NLmxuZIPNDoiw9VELGbeQT0Oj50yVzpFPIMR/YI5uDBkU3V6Am2Ec4Tf/KV+7ozMj15MMkuQ2IryqzS7B082FeT9vquv2PPppsfRPzxRp7TRAAgmB8bGmio9kZikdEn/3v35814fnhzc20NjX5FagRWpDPMTXI2bf76aknKjdexUwntzCWS2LIjTOYyV3TNDAKPKGs4DBQRiUt+sLvZP/H+VCEfNEzJQhMEQnj2hS+fynzXqCvnKBez/uX7xg+u8Y+PzRtGrWRM/DKNdrl4d4tkq8ieIx5Yt4kDQI5azpzBY6sYSe7v8atv6wZujfbJy6ciCYRvGENtfM28mlhg5W3L9tL+94K14wIsn0tC9Pqqoo2zox3P7fxz8RNfeXCqv7qxcXA8uRbwifYEn1fDoz0z1yyeM11yERuMyeZIMrlD2FxjvTl/RUYGINUgDIOYS113lHchfnNqO85nTQxvEupSTZumvr2UXLPK7+CIM1sbO+uBJ/3zvbP9VRzRLPQskyVU87jvk2jyzqCswDtIsPU2HnaOpHlBk97Z9WidDNppl2C2IEskzCk6WQU/tG2wd/Mze8+suaHj9sEg3FXHGrw8ryYQqD7rkX00Dvjfy6/qaIt3Ng9urHOL2ahG79/pxEGobH7tBHqF6st7m+3Zc9YnwzyFQmJQ4cJNSGdFwKsvH8IbeBhgxpOTsZgwDeFvT2wxuIkX/IGhKTPfkR1BP77lNDrhWNxR1ZDO9smnGT5KWEfdQ0bsyqrLg9JnoAeOsqyrmhOtg7a/cR5q8iT4On6Pc8lsnhtCoCF59sX7bP27oaFRDnUaahh4aqunXvCdhZBnvNg4fnyzN+QhYiwf0WDrAI1Jd02952a6HntldlxYj49Txvzmfp13cwk2LECBfPw8jx38+3ZY4Um+WxdONANHsgG1be9L0qj9KjpaaZY1kP5wd1VVmgZrIUA8HCJkWEM99wym3nkwUxGzTQMcZTTxlbHPeHAd6mwPtgqJ3Nl3wUCvjMgLrKxqj97zHXu++YlhKUHNcB5FvvfD/cZIz7gxUhvQIBTp8N7ev6OzbhUnPCB55c/fyRE/e6xBFCbxqJl3a0TAAZ0XOVGXBaAe5fW8b2hDNiGPapIswwlXzpFW0WZzDpfrOxpn5gxwZzl5SsUzDXGaqkFNf16EuiDD0PW0l8mAgyjJeqJs5cyAt6+sTVcrra1KKNgCsmFhzJtB4SHuc+GQrmf/+N27/tPObR3sEM+Exd8xHKkAb06plnlBdrP5s0iABZ5Yn1p8bM2Ue3JGAd2r00XErWvOokbA85DD5Msjh8LXHYQbdRjjze4WRQ/jIaZB+6/wq6OkSZLElOfGLOzrjlN16cgOaHCe6mJeHx2UaS0SYPURXKeoCqrvmVkMefQgkizbe3PWNV/+tTqdDsTd7Z1QTqTEnvQ2U49lPJ4Jn52//40fs+zth/9n/8/qwZ/eXxMcEiKKOJ8QIKuEQwgkfQ3VDTfe4dqSu1LZjmfr3/V6FYCwCAUEDVlftB/KH+G4+kYBcRCJsvkJ7b6MJrRIWdfc9p1NdXJ5rWVZD3LWjBF1kHy0IVQng7qZQnfCW/tv8tjBs/uz7pv9gc+mRpvjg/1JXyLTqiTkIJ8dD1JQ6KJd/8KBSac+4qff7BAF6tj0gPgWGMrAqK4ZGknGRj+5cH1PS0ay5e0LGn1CnUasOJYVsQqO8uadz8Z7LxriFKTd3uI+54TcbPf87XU4bDTT2GYryJIublRy9VnxxmpfMtD7fv6Gt075PzmXNqfLaXfQSYK0dYBrgCSdtPq5EeZNlkUaHOUAsckQy7FKVSxQ6/O/df3WQ9Yf/6Yv16RrquhfI3/a42aRO8MpZtwMvLdkEm3XRz6fJ20wBDNuF2moGX/G/t/8yMUHd232miTTYXByV+Yb8oGkJDNJZLPZdrvxDrvNvjdLreKas6vnEdXR+3418er7suMYvifoArJmn33AqGxXnvNfffFEQTCPsRCnyTQFNyjSuy7KyXSg+q1LXjmk1+v8nTu+9bAcxnJQM3RBCXnELlOCghG/Wk5YdtFcaflmPmMejEe96WeP6nbqv7u0poBk3QlZ+2YAk8uFNmnUmyvtdDrsFNncg712jf7Np8NqoubEjljEN35Z5ffPH3OWVfR4axQjlx47JWhgkE82NIhNTQNzGhYgVAy+dti0rw6JntwNW+84V1QQKyismGnRBJps1wNe9wgjNjxOBNmqk5uEfDuE6nELju7mnW/Gm/PT08KJMP5IkmzZlid2kxy5bGNizzqcuZ6t2btenJM/oIJ5ffiwebHe9/PW1M6+YG9tc/rMNhdT8coFo4GuQ7WgUSMSaKNfIPMhQXUjNnPhzh/mmv33+U1IZtkWehLPatDMQtFhRk7pEy5YNubfboCGmIkG8eQFP8zC+il+elak0dd7MYIpHlw3SJqe9Qd7c5qzKFSPtBFK+V5n/hEqMI/UVps2XsybjK17pc9Nqk1QW6xyEBVmI9+/srqmmoUi0FO6STM3y0MNsoAlTkuq490fsB/TjAtGt8hDZA7rWM6XQWlGQmyR9cTKKy6cOZHNrzM29eiu570jkB5sSh7Ao+EbpVUraLjHsVuGYU6q1Wc7jWdPvB171ZaVThvzWLVp+CfHd1bHLvzeHKNNfei3kefvfHRYzF/VkDCQqMr5SnCRx6obe4yWUPuir67+Aa8acSyWXc9186zm5oT8jHQRIiWR4DZ9m4GAC51oDouIHOWtonYMbp5vkmLIcO1lSTpecjrLK3Z3HbNKciA9rKynwYp6296HG1E/cMsaU/36B48b7K266/uzjP7dgWcs7og2x6rjyXEtGlYwB8zIPi2nBDroGnLVOT90odmfjznmgdu69E4FKPlOiwJUNVFEhibg4OlC2PQ6JxzdHVZWV3kHTza9Qe3bK9Zng7A5o3/gbjfbvn77ZfddMuWsF+/ecPENG+0FJpuJ+mzq+/Jak2Sd0bZG38nfOwtjJMMMevna0Y3RSCTqiwVqhWzCd/7wUGQBFPDoJx8vUS3j6mszCuG8GaqAMhsyRA2ziPgh555u1hC8VJrl9RfsCCoq4tQUK3N8KhyZtpEQxbXbXSaeZf2KVdMHXf6r4XlbKMRduGv7KqnCke1kkQ9RVBBBxgz62hPGbsNNUwDDCYBHb82R9kCmseWUMM02JZrZJm3cdZ17Jt9tSi6EMGZFN1AMjBQB+uJe38p3S+m4Lb8yWVPtTUE3oRqHEE94b+RDLLwM+U1DMh03lXCFpccDw1lFRgJUOB66DVz1dFYUmSLKnu3xVcFII3dNUSEw+9hjLcMpw78+LaszbQXFRwOzodeF0zpVOSFyiBPcBrF/H6EF4gdSH55zWst63rDinQfPcyeQyprDSSEkYkzQDY4FsohYLVm15oqb97/LQ4o/PuoL1KUmIzfWOY52+UP5nP5Myo08rYm/lXiJJcbzIjGloYGhlgDdivFoJRFjA/PpxHRyNyHd+pcvbJqMcL5hCdA95H/hzRcvZQoaVROUORnqL1w2s47zIBVpIQ2xfNO0Uc4Kxj5w/0FZm82eTbSgSaaVj3/8aYYfQty1fDo47Y0gapoGFJ2VoWDcfUepLyDFJzfyqpjwqKpBq58xhHmSzQzCppbRR/eg8S+OE3iNUzHPaR6o6q3nMMSiH1TQpbWeyrG5z8tuFQAt3+0Gspxb43Xed8HjhD0DCllC2FHJvDONA8QKZsV2kWNlXfsj5dcBkKznTYgwHHDObeNjXhhuVZUEr+b/LuazRSJqWEhN/Ge/OXL+0Ys8l/GkMgjiUCjfHYElXgoUlcWlXl5pcYaGoBvT8KbIiiH+ugoHLb4vPGsc5WJu3jA/pLVwHk/+6imINowAmXRy2vuFNTo5meZgpIsJeQWBg00QCoScF9AE2QOZ9Z1TlWWzfvlXf7KhLUoEAy0nNg1rHXOaLBKtlPJse2phqa9eD24iX/95epog0M7XGuBxvqI+oSIgnH1UHygRbamwUNQhx2Ega52b/k5tqgGFxTeENXdd6asZMfn/sV1QMb0lqIfYujrUOWzouDW/dOQtelvPead0zXBFJuoVKAh7kIgXnUpdiP1368waY7Mefnr04FhNMhbwIp6YimHNJFkIiyISWFm+/kf9qaXEf8nX9sUTBLaJpuRCNt/2FHCs5+lSL6+0+MU04q1B2jWRDp/Vz9too1X2hUeNA5mlZ87zxjvrJso6yBvgwbAsNIVgJlbdMLvjL7vLIqfL6ZwkPcHRplOAIx6mwKKG1ylz92/5E45v+ffzi25vnjeuesE6b6MAVRl7PGYypSiziSHs1PP20939B8dN9J8f/23iubiJ+Cn5sT5hj8ru+GI/Lz7Ccb6qEnFDlSCHFFl7TyJGmKswNcfBLLw3Gon66/QUKwqCaRshWr8rs0bV2La2zp88nGdJfa6IYpL0eLfOuRVWpX3tEVv7qv1AAhgMM/eFM+M1vuqqeFU8OTbdRpv/076hpprmeXHRS4c2y+L/gD+fPAGwnBEy1ysS7/LDUq+qxLis92IIHCaW+juTCkUKIYVDOunzblHhQELVMGB1QREQEU9iGCusWzY8ALQouMUz5RSmzEaVYQGP7FO8ybbG3veP78i21DdtsqwRR/NpadpshYs5SZo+aJW0aukzP4EK0nHG9CY5mXbShNWxSFtbLB1vjk57qj/pySJsffet5sb4YK83VhOorQ6kk9VXHsWlvFk8mJdMxHhYM2iFyZEy2hTJ5pR2LcK6IBth2ROCELmDwaAK9VRTSgwiA6iaRyXiLdX1eRk96ywYs0xs/Cti0ah5XOVdOctV2GYpmyKWP5ay0yy/ScufHT0CJcQ6TjENZ44PGZD8yaQ3NruxYV3tlRf3b93zp2OOmfHRW82dzYHqtqpI87iJY6t+Weo1lRp35m+mDNjPc+nWWdBMQbvNNum8mYAILSwDnQ3iBFB0gzp49FCa50TI6jJkNSTUPUxoZS+oFCeMmuFriJjZGIHa5XuaZDaH026rp5WUdptrlTRp9W0ZnWga2lKooN0Z+Vsi70nF/Q1rI75LD485pAtfmj/eP3toOlY1fmjNUX4yfswx/5jfey81XRa01/Mkc9CMMcKzH4mhVgSAO4Ugp/EekbaYYAH20Mg7beRFvCeOU2Xl2koX7ZuaZxCh6Mp4wDwo9w3dSZlXGMLoyePOFRCsf3oay0PAU4eCsNgMlQBeV3hWbY37Gxccu5fi7v6JP895sqMmVuWvSa699MdHdesLguVmRqyscJ7RS6WT8trSTtNR10/jNY7nQrIiCk2Yg7LBC4YAOfytuolvgkEEDfJSrHKDl9up0ZWXVUQzXpKOR3rfv3beu5RkBW5rjm9zs8/c+vnUII95A2UEKAKoQTN7gdM9QBUFI3DcYdYOZ/VzE5ON44/7ZE6pF1Jy3GGSDCDWc+Yk6aJeClCpRFTem1xQbsdhgeU4T0iEqSHwyQ8fuPnxxSf/Htyuq0gRWUUMCgkMO98op8Z83i11Ou07m2vNNOyG2Vc6GXuhqMs1+mFGrXfcdemw8ad3CnXdnK7TI3VCMjNkwRHpllKmXkj9yf5tjRXhf2/e+t9Sr6E/4BlT0ggyEj6S8urSRihWxpRdC8I8sb2CCGBedRvuGy//w6BVK6QVg/59G4StuAkhWRXpgeLQNddQOVaef3152bJA3DT8q9JrTmUKDt5zhSmu+rJRLz8ajdY2bspwmI63yohYoOWyva8TMVanvtdvTo8s9B0banpvphHG7G+l6XnDnyi/CuaUT1necyI3pI4HOg4KqbuvPp56gbRN2ca/tX4L6zy6G6RwUMRV4+5yFla+VTBlro21ftPw90dGb9ytHzElmXPA+sU/qYm0xRprdTpbgg6eEJAmCvk2AAhMeK2fxV0t9A0T8iSoisVmFJxz54yrGxp6H58dqPI1Tzshb7hvZL4eO3Z82jTsay9gCkFVZ/nwiKmOh9b6TqMsdNL0CpedkU46fsxFy58tHpQliwKvhkVfY7M3Ggu0nfnLo9tqPgJwtllAQjSb7+rda3DtjONpv6nukpHm0X8vSJStZJZtq0qaJAoE7nU4C+x+OsjUsc1vPt5c5T+t56H6MoYZsF6avuTkc4tnFYrIMIAmTB5PdGhk8IajvEPJEYGVJokiUd/gXxcmSduISeb8yLSp2hq9866y5Z9Af3p12FgzzTpQ85NZ5QVJ/9nDpRt95vtXNzSfMchR6XTQWUPlTmbQHXemJiugqDFwgq3rciOuZWzE1/Hx0V3gc6TgLbNKKeaLL9hoKzCaaG0bc52Z+59Mzx/6TIHRRZ/4m8ER8/FozeZfFx1/352P+Cf9jZfTUG09w4ysZ7Y+1dWaUSE9ZdgDLbjJo4d49/xprx3l+TFHCn460SRZxBvvmMXsRrIyxvZX02YbFxjmfdnhKOBRuf3UlfnSt3hs/Gm7EYxabxt85uPNAf/lNprgQd5h60sjZqt6ZxMIFk9jU3g5LHMTd/ycLM9i2ZGAX3Tkzxa9vo4thR0RbYzTVjbNNOwDvkjtaWX5ChMns4WZdWbAfNzvb1u428BK+uMFEfP9a301n9Dj8bL195zXPLR2sA7cMvboRTZZHfQoE391VLcmOcLwRYdpmFd5/R3rdxNENqa84kwzxBGPNlY/4MiT0Ea06Qk/aTZtrlhV22lMYX9+IhNdD9aYJIumh95DXnXNZzcGfOOr0zFBUQTEaUUD5Q112n29ppglyY4EfNFhni3WeiMLZhUIIuopljtvM0kUiEaqbinsWjCIGXTC+OY2k2TD1s1hKncjma3+paH5FlKx+JvOV459qzZW4/U311TJACPIFY/LOe/DD0p9VSwcXHSYIYyoPz3+mt1Kwml22LsBty5wvABAKIhvf3a6NL081+OtXDpekhZ3h8x07PSw0bOYWQWewUAiye7Od/dxz+y69tqumebzE4qYERUc5kQg6DzmY9EG/+x1vzqn1FfEwkHH/SbJvP7Yuq275eLQFnifpdkQLwMADYyDaMTL0iDaXYdC2i7duoHnzFbjgchxAwkvXQUctZW/mD8gFxHMZGB+/Eu3rHgMXRcUnZczYQ0OGzp70X1Hd3OlIxXnmTaZPxAY/Ka90O53ENP/9QgrAA5zsofX5ZbTb6Nnm+V0lCidBPKNu6nbzJaoHXsyDU8Unhs5K1dWme+viOyQIaxokhJjHmktdVpQk0Fqcsg97ydPWyP6jkw8ZoYwfBF/28UFcsxO673t2ztkTmMTyI0E6JFh66vr63va8kvSm8NTLDAN98Gzf84UDrGk+Wiz1lWZkpIVkKahvAkWgm4gCLzBGorsDo6+84xD37nOQmnwuRmCiMb8tccWSCIH7Q/LVNyNsMimFI2DMu/JJPAVdITNgHJH5Ql/X9l+onum2eTNP3jjbhVvNHVsWTxuOg5hxSOKHsUc1sppMqZzmES9Sem4xDo9OoLxZT7EkPRFr3Q5nHlJllWdO4lNJvI8pBO5dCze3nXWq1uJcX/CHy/pTnEcsbRMw/8qWyVT0OuO1vHu9HnN90cswIVtOKGic2EVG0ieUPJeFhYOKd4cbEqiWFVy86y8wsvGyRjbNdsgrR+hbcBkjMOiUTOsY0HH1I6q9pnuYKfQaiYXzr+Fqd/NbyD23bW+fDA2BFWOU/NtL6GhQ9yuZ1788oOeokULRyjuGtF702OxhqFV5w8oZAkzkCi9DRNTAkAAGF2dnmACA28s7W9o8zZyboFv4VJmpfSELZRihQNs7cxPoklTXRLlyPNKvugV8EADXde+2bOQm0p5FSwcUvx0AqujsCCEDVngEu7PsnMbd+tXsXR48/hIzVDzDLMIKT4MQzh8w6xsDplZd3mRJM3pQprpTaocygZfY5F4QzQdq/XHAptL2lbMwg+G64gqFDHSPFBQFe656StyzdMLiPZIY011erxvXxzjh4PT3Zz2JO27WFhIIo2RvnEL+TRqntOAbsBMPN0c86ebGwNnXtxf2qVYOMT4mwgBETFIQYKb5Se+c5HLsQfJnBdOXlA7O7YvkqEgseCbpv2byTZBz3un0ooxF2q8YI42VDyEYUHhdF80GkhXnX39OVYVz1GDM1SWw4AjRjjmOAX/SLLvTjFi/M+YEGubXLUvknEzte7JwaelXEPsfBPZi6SrhwcBMm0wUYR6ytA2RbzR6k/fs06Pjib8aarAQVY03CwgRIMvZgtJCrPGmC3MywuSbW37IhngMgb31PGSo8xlzgWnOEn6bZ3IywUNhDEraxDHfcM/shJejzK8h1gNybobiB6AMnBGlmS79UN0MfeMTg/dF8kwnMzdt57Wa9JGnPlXSetfFHWPaiYlKrQaiUXorM+sLIujDu8HdVVQeQBEHvKqcsFAl9mAOosBtE3xzgnefZGMNSa+sVHKeqWuwhEl0l/CPC/k23/qmS58esvJlp48GvHfcxOaHsQ6yxGbTHC3zB1g230y1yw6IeKMHftUl5uellZMklY5GDvlmFnONGmDRw9q+X77IOFZ+cTRPTDhKMa9sgcZreZ4lpfo2dCe7YNtrrKTt6WbvYFIPB71ef1+rzcai1TVeiPeDQ9ng2N5Y2xUNnXR9vbwmXVYyeipjIL0UEto3rTL+nVbMQuHEu9DTZGxGc/qeIA5hSkrL0izZrLzLZnVdy/wRiL+iN8Xr4r7vOl4bfO3keu+mVueHXRjPt9BWOZkBlQ8anRqPGjFelBHUFAuPMMKWRzNWAQgaDdTdjofrCzvTUyksPeMHKxgmOXXrk3HvYFkTWM6FmlI14x+75Z3mFz3xLw/aqetoOzlf2ENqAmsihGn4KCAVpd6lxZKir8ZXan8gHjf2ot361FtjoKzV5bZT/n5R2dtmzisYd3EzTee/Jel5NF6O+EkU+hWDiQvqd9+thCuIwKMOBQ8KwRT55V6kxZKi/+MDhotJskahk64mimwyhw9af/lPXaXc9AJNy/8wwmzTiGyq35Q9om2ssKOw0TTDqx4djbP8QrkdTfwaDqHXyj1Ji2UGP/UIWd2ax7XVn1peUH6Yc8kaApXub2ctn/qCbk6cnKLdiJjCpNiyfPfro4C3gPqOEVmPW4d33mYdRazcNDxwGatyWwXMK52sO+yLQWOZRbZn7IyLXe2aaPnRxX1TsZWnpN0g/KSjHnngbNqqjUINZp5gTAxzT4r9RYtlBzPqilzdF7Dv9rS1csLrTJbtrdrlmeuMtMjcOT+kzPbvbhwiLSDKT9z9rCxGIkohFSAOIhE6xzJws9WNoxldeINChDpYpBPTPi5NIBqwcIRg/tDjxKdJC29F2JT+7J8xnAb15d6hxZKj12BKBQAp2ARB3VBE8C9q6momussUIP7AU3vd9hsLunmJzoEDMy4G2RFzdj0UKl3aKH0uNHHIY4TWFnIGHqQ7VRvPH8klU59mOrszJ0ovfOsFsJ8PsUH6K0KL3Q8XuodWig5bpjICpyGWVHggUhcTYRvXEJDFk7bfqhlgrYvcDH2yme7T+dknjX1JS+0tHPumRdaTTktXOE2FA5hyCpQhnQwW+Ss1Yxr1IELsgEMM8rG3PUrNcG2EMfSrGIi9hkP3Vh4tdQ7tFBSUCHz0+vrUphVWFHlBZkzlOCwzk//3gezP6dal1zXmQBuVlczJsnCvKeFH1KnD1tS6m1aKDluuBBjTuBFDWGO9eji2Inp9BWDmAOWZTYHM+ji4bPbsBt6sAjNUjmZVTL8zKDY+djVpd6ihVIiay/9rRW6eYP1uIOK7lYNX03cN/TGG/ogyha+tKAm4FM4ns3wKXOUoCGLAlABru78utTbtFB6PDS+Me73sghAbPCaphC6CIvee2eFJE2XJDoHM+sEOOy7+wLksTEnSZJ0685prIIARyegipqIWJCQFX1Eopdsmux5udQ7tFBy/O6jobGOeRAQlhCfkBOQhlKoY83iLdLx61dIZS4abLWZYyqd5RWVFQ6GOemiSaukFUvP+P/tnXdgW9XZ/7ln6B6duyTde7VljSIhLHnbjVdixyOOs/cie5MEXsggQAJh771nWaWM9mWVvSmzFMosHVBoS/cu7a99+9/vXtm6CrGc2BT5uvb5EGfYkuxz9OV5nnPOc55nyfkVFQAqfsDzZhccrFas5rW4ZhW9E2Odm0+xe4gM2/nXjelUCGAqQBkJZvsZFWia4vvT0ScZhioX2ptXxPvyM/KZsB7DiEmTv3ZFBGQqYETlZcTzUFAwv2L2FMp3nG9ZMoLjd+8e5z35GAa/uWtKEIoixkhEGGCCfG7oBjh+1kdPSlWOnK/kPP0H5IbcJpmlymbeufWlp1U/jotm90sF8RDyCCIZosyCmxuUQo8ktcLnHvc9bBmHHfbhfSGK3G4oEMSr0B/DiGC/pjY0LFxw/2tfzd1jMhTmLc83enbs/eofP5oeiyERmv18eUyASgReNZ4mtE3/1pqHUOFyr4IjkRmsSBTjsE93o0wzEM27bIjHgmHOfCIiHXc3y/N23fLCZa/d0NqauybiKfNOWHfG/U/dMoNQDI0HytBYMfCy6nYTBfKCRoSFmyTpV8TaL8PAeFDFE3YPkDEKOOfEpd26GwiiIBBeFXneiK/cDQ0+OR2u66ms2fjJy5fs/skvX7jxiSUL5gdToWQS6X4UEYWYW6SZ5phCRUIQ8cPVS141lp0zv2fdghJ8zbwmU3ZSzjjssF+/2EDiyE/dVDecpSZgXsSCgHEyGAgmk4GwQcIklMqGampDdYZn5IFG1QoqyiKCBBAkU23asjVS6/GSdJp1X1MUZNIQkyPv2z1Axmjg7c3rgxuyhBfNmq5gqPDE7FSp4fq6unQq/cJe06dy3KxN4skrpkIqWxWJ77V7eIxRwfbHV03p0ikfqfYhcjBh7U93xLdin7uNBAM1gU9+dkI+c/a0jwVfDOo+qxhe+y/tHh5jVHDb32asX42bY5QWmjscioaYf9pU/wrQFAyduY3jXNH+nduZN2OixzVrlblq/ht2D49hP7caH5fdq2nyNLmjkPt/KCDQMjQS5wMbvzeJc3JesyCeWRxjzvLZiHfr1s5/IMSuLjH6eP+FHZo/0iDDgwlrf/yisVzQUeSJLYa8XLPMIwGn04jLLpUul9V9EwvuMpu6yO7BMUYL2x+YpmeofDBh7Y/Pr/mwcMFvq8o47gTjl8OZu8LklI6984O7BV9F/nHGsrSX1Y9i5Ln6Ow0kcjBh7Y8gArzg6BNylRq51llWZU/peGn59Kkx64Z6KpmoXcaKrzAsrv7OgB7hg3P2X2ZKi2ZxVbl8WnNx6XB5XWYq0PF/JIpV0KV3bjDUwjb+GfvxPw//KT031Jucm0yng+FwKAgqNB5TbHUWCdakwu2JlhmvfM3JFbt14uGi3KQf1IX8KI41XySG3QCpEbaPwdifn3//oumV2caepmw4lKhsaaCrNZ2KViOucH1LzcZL7ll3kpfzlg0sn9fnNrfctB5VNwsRAiE0q0kJS/5+2G/sHhhjdLHl+ZeXbkzW1YWTNR2L2zSEqOVGw09/8P2tfdVXzCCsaoDIctcxz9ugT6sQGvyCCFVK+EzkJruHxBiFvH/6VRedee7G+oVtMd7Na1Yz1V+WRbmoK+qqMmvh7d9TNW/IvOZ1uT0PasQHBUgx5TGWFX3i9+weEGO08q9Tzvs4pmqUt04C3rohH+c7OW/VQJHl0rW5sj1P3y2j5okCURACCAh49rfsHgtj9HLOZrVD4C132fnOpHUct7fcLCq1f0eSAhO8nGsyd3VbhtI2TSSQB5QAHDrb7oEwRi+3/k7VZcFKRvzsTG8uEov2pcpOGGDGnFUu89PH/q5B80EiQoKQQhFpX/8zu0fCGL2cI9I2wdpc3bn+mGi0Nbey5MpcA+2Yo8+ZOqVZS7RIs0p5BchmY7qa9E52Us4YlI/SPTXJvMg29DxRxTmGUJjF+2nn3PYWq1Owf1rsG/+0eySMUcvpO4PZRF4s2eRxW3LlVg6Fa9I92VB7U/55kKfVL9g9Esbo5eZg2Gr7PK8xfNGQRGYsDe7rSVbmnycKqNnNqvszBuP2QLvV/zKQSve+W2yn/8DYzBDZplPnbrCOOjGi+Cx2p5wxGAvqLUvWPrd37sefK7E+KFXcczutNtMCD33uz15kV8oZg/BYu9X/MtkUCG4+rchW/wGYD/C4XlmVfx6FEPrV6qPtHgpjtLLmXqsneV26qT719qFryzoNjzqTO+NPBW9JNP/UFWcdY/dYGKOVh3vzYunpTdTVnFk1hArGrabDvN2yZKoiTF0xUb/y/+weC2OUsmkGD0Q+MyPDizpUYccWyWx6GR1CGeOnuqt14lasq3a9h9s9FsZo5eEKkQhUVkRIgCzgv83Mlb/miuYtfo41Lyvnd4vQOvtMnnq63WNhjFKOUUWiiDGAKI9RrLphS3/j8kOKTHrnfNmPgXU1vS59sd1jYYxW7hIQEit4QRExjsXv/qXLLF52yDWmITLpmuaJRLBEFqib8Te7x8IYpbwh8KpARF1AmCoAn7rGtGLRQ2qMmyydtGQaVayrdunKZO/Vdg+GMTr55g6e15FsRPCYIn9n7Cozyaf80LZMOlbaMp1mLEtWE17c+RC7U84oyj/iGFKZYkiIT6uO3bvJYW5RHPJ4SVp7qfS7GdZlJ1C7Kh3q/cjuwTBGKZ10YrNICU9xNW5W12+PmpbskA5zpjRLkpYgq8bGqp1zk4lGdqecUZTHanqSWesMM72DMzdkh7L1P5m78NQUEIhZJlsgcQ23ZS6+0HzF79o9JMZoY/nSUCBoiaxy1/e5WYf2llwuWdtx1QaEeUjViEDjhKj7+PfsHg1jdHJiNlCwZInsfdwkrkj+9QG4TI1xnhuRIvIVIK4rIsAq1t1ft3s0jFHJozU186y8sprErm1D2IvlzDNM7yRu0y+wEFfMssWEALE6Ts5d3lcZjcH4HJcEE+m8yILplhu5siHslDk8nGMSx33l3H1iXBPiEQHzClHBKlaEhVGM++vrW/IiC9enerce2luaKpxsrDG5438pdFfLgooU5Bb8GAXrL7d7OIzRyK/PbLeSEAPB9LzXh+AsPbmcn/Iq6Yz7/NStUI0ghHgeNYZP/RpzmIyB/KzLuhoXmhdoWeDZOwSZ5Vo0cZdKr87IiIQKPtBMfDBWGUzdZfdwGKOSHQk/AbxAfVREMbfwiLSWm+QtVndlIA7u9UQ2FOAxQETH1fo02vxnu4fDGI1ckyAqwhTIhLgVQK5blyvn6RrKItNRfuFdPRt6CEayjMxmrCI87qd2j4cxClnzFo6IGhAx8PughuDtpsgcQ0leNFM2nnwom6UYGLYM65DC+Ge3/MjuATFGIS8okNd41c8LmKfyiruOdeV8peuQDtNh1mK5qiUNZaTpGChQ1mWKH7R7PIxRyLcjhg3i5WZVrUAQwOpjOK7MWazgYhEmcevuChFRhdjs5AoInqbM+KHdA2KMQq7FGGK5Qq3ugEivXvyCYcXKOecQROZ1cmXc+2/pOpFNmYEV1UAR6QLWRY4xgHcWYqipmiwqCCqILtzGcRO4oaTIer3mo66agTNQJTqBMZXvAHLzL//X7hExRh/LAMj4iBGYiQA1T+/+3kyzZIHn0OkYTm4Wx53EXdLpx25MVRhvFtVYBATZSTljAPdDgjRA85uyS6vM5MWhbJT1cc5mw5S51Uz++S1nf2r3iBijjnN+IVBRt9rjhL7uNBaYZUMWmfR1ta0bWg1LQN2Ga+0eEWP08WYMEr/VanDemZMNMzaEyot5kbW+IPu7G6wb5TXrw8/ZPSLGqGPT+Q1T3Ja7TKZ/5RhaXlkfc6R3fwEIsGrQpgM1vWfYPSTGqOMnvu6TrR7j9VOumOXsa9o7JCZL0qsLqxdb7rZldmrK43aPiDHq+Ha14rbcXXDuxi1DNmOmu5SOP+pNQbeaT4TSlenQH+weEmPU8QAmtCCS1E9mDSkNo19kx6+ds+6WaVZfgPYptfXpXaxqGeMAzoOiFVOFNrTMvt5Mfh0ix0tzJGnLyZYlDFcmanoCrF0J40CuW5+WAVRFSmQaJ+Kbd0rSkFVmpp85/lJJ3TEVL1Yx0oiKlVOvYJcwGZ/nuVQNpIrZzZKXu6Fy1rojhycy7vobM6KqIDcVEQUq6cAL77F7TIxRxjfPCmAsaFjkSWRf3K/dvnboInPl8v6Xn7tPRHpco0Z0ZwhNITvusHtQjFHGNQEiihjzSCGgIea++M61QxaZg3OUGcbsJdK8ullXYxgCimW3mNpt95gYo4xPP9GRWwQY02ZRbo4L7wzdkjnM0uuco/UVDQO9gQCZV/wEkkCCnZQzPs8rlGIEBMpTKioV1dcdNWSN5Rr+RqPHn3Tvv6tFyutQRYQQ2hg+7jW7B8UYXRwzW9ShKAiqzy/L3W0T/z5UkfXlBHkdrdLbbbLYDDUByDJCYnDD+u+wjH/G51iyWkc+oshiDLvhYvm9YYgst76UpDt/Ykb9PqJTrCigKZuc/1u7B8UYXbymyFCJyEp+U3UNx5VFnUOoW5B3m5zr3XtrewIEi1DhIxB1t8WWsj7ljP254yY/0LBo7dw/5jE3J8qHno4R5faent0ZdAPCy4gIOq/x/E1/tXtYjFHFeQQDBVnHSw+97zA8YdXQRbbOMH3PZAMybRZ8wA8B758Yi3182GGsjxzD4kf3Km4ALZGlfmtE80OovGhRbib9nz0XiILGE12tXsHLRNv8jt3DYowqPsYIQZgXWeLsVucQKsgWNMbNcnETNu1UIg0iIAIBGeg3VhEXsMtLjP247SxdEK36/OmWq83ug0M2ZbklQiv3CPZDlUJZ7+jUBbdfBE/ZPSzGqOIZEIsU8srmXrGHcw7lAmY/p3GGu9w76QE8RdRItRabYUjNHyGdrAgLYz+2TdOnWV0gKmsbP6waeu6iwaQys3LBt3ZUxDU9rqEVokZ9ze6mJZvsHhdjNHFlKBvIiwxC+t6xknTncGRm4vxjKFQzpbcy/zraxO/YPSzGaOKNjfOsyouiQh86QxpG8mKembtrQ+lVtfnX8f37IVZMlmHxzcOu3WeJg8cx9KB06fBFxm2dvXF9oQnF1H/jZSzjn1Hgj4WS68S3ovrUG9bOGa7EXFzVO8HasCUyGWfizGEyCvxoSZMVk/HaRP0q6fjhi8zJvTe/MmzFZHEdiUfbPTDGKOJoq66/ryKia/cuGra7dLi4WTMXhAtipYDQ2dvsHhhj9PDhWXlxqJl4M/D9Zdgic3HlDsf3O61VKk8gjVfsPsfukTFGDz/Ii4MiLJL4BZcOV2Rcq1kL9GGrZ1NFtSCopPsquwfGGD3cEQdxhURiRkgm+lVt4qOGZKLGf0M/xawySzW+/3RMpO6K6sKB+9fsHhlj9PBBhQ8SmQBFi2si0V6JmpmvnmGU+cmJjNuyUPcJSkeblQR58//YPTLGqOFRkcoUqkRQGjQid8/YxnmjZme4IWM8dEIZxz04UcH8Pp+VBJn4pd0jY4werl0sKobLVDVV9/soOZxzehzDyfnhXE5HWTm358Z9qio3W73KgxuetXtkjFHDqxVAQz6twQ+AJsr8cVvNXLGhWzKvIUrDnHmlR89VSEOHVeezJnsqu7zEyHMEEhAvyDo2y/PDxGWmyFxDvlFS3p9atnbRX2RdsQwZqGtPsDvljDxHxyEmUEAAQuOPxJJzOOcw4n6TqNfBtUozT3R3FOqWpdLze9gKk9HPmvNlxTBkDSBDkUprs9uHE5BxXFnfw6U50vKlgmqJrLEpEPjE7qExRg1/WBVI1efFMX/9tXu5YdSQzWPEZtyzG/bV+qF5SK7xfjUTBzfZPTTGaOHbGxMBK+kwFZp9em7na5g4OI9z8g/mdWERCwAQ0XC9stLJNv4Z/bw3b4N1UL6qJvuemVY9bJFFuTJuzTeyoowohQjxSpuuKdO/bffYGKOE04M7rVSdcCrdvnU4O/55TjM3/5/dBQkvYsATgqd1Y7WC9Sln9HNdIde/cdWu9a8Pbze2DyOKm8x5rhGbFTfAPDUjM6gCyFLLGH08m7BisnRlMvDJuuFbMpfZRK6Va70AdIiYikQVtKmku1rfyIqwMHL8eknKCvxr62paLh9G4RXLkE3wcmVR7ryLdUQUEYtUj5NuN1j8xCl2j44xOjjaygfL7kr1BF+eXD5ckZmtAMz7vtLfVJ4oPNV4HAM+7A+u/53dg2OMDn7/EPQpcR35IanunpihP5Rcpscs+wILgPKbm5pqElaMh+LdTx52q93jY4wG/pDBABOxwk1VAgDZfUKu+or3C4hswqZPgjU11pYIVqb+4kK7R8cYFdzWEHProljhU0C82Yd9V+cK4rmGL7Iyjvtxe7pwe0lwR1acaPfoGKOD9/wq4TEGCqluVsndr5RzXtcw+nrtJ7JJrTdm523Ii4w0ZOTI7XaPjjEqeK2aioI+0S8QnlABL7w+d6Vy+N6S80S5rceFg1bOj0YwP32N3cNjjAquU1AsdnIMYMHtV2Z0fzzLdJZfwJTNMj7umb/eCvwJ1HjA7pQzTH46jVLdp4hEcSvKtOYF28z0WMewTZnDWC/MdD5slT+QRSpqbfQvdg+PMSpYoKhEwG5KeLNTyd3P5kQ29JrrlsrM305akBeZb7FPcWeUhezyEsPg/nBTfcoqJZVeNuG03FpxmJTlPOy7W9wZ4taIz+p1/rLdw2OMBtZsrkxnra2Hyp23O6LDyCvLactTbjzBZZZg9Dy/sCIe8StWr/LGa+weH2M08IdsTZO1KkxkHzfs2NBPl1wuT1+t4r6LTtFzrqxQVIFG8q8X6nr0MHZ9ibFmY7DJOsOsSTQeM/yQrKzVkFtZmcfhlL7+C4LdvD//evXZK812Jaz16njnvVVpKxsjmWzZbXjLYQRlVblTdZfHyZV9dct5P37hIU2odltlCxLh7J9/Y/cAGfbzZLCwvxWqDe7aVM4N05RNWrnmvOeve2hDqFLAuqJC6rNElphSc90P/rGNdcUZ71y5c25eFMHQhrqnhl7VP9f967Z73ju7K5AKpZO1vdgtRqYK+6xmFMn0/Gw2vH7jW5ccvdzuYTLs5P60laITmNub6mwdRmX/Ux55vDMZDqcDwZpAS1MAx5UVAOhW2YJQU2W6Jl2TSodTjfc+v8XukTLsY1mY8BRAKsLYaj0ee1OazLnMQgRVgyjL4TxektZK0oU/XXY+oaIIrKo+gyFA0fiYeurHZ9g9VoZNfBwAkEAIZUpliJSnt5rlPZ3OIgflVeZS0sm5pKOk47dcNN19siwQCAA6lMgo5IGioHhD5Obtdo+WYQvf3QwFyGNR1JDfLSDx6FwN2TJu4O2laJ8jLT9q0Zb3ToaIEIoRoFg+pMgwgkRRlLvj1fiWV+0eL8MOXhQ7eJXySBAzoqA237y2v8/qQH/pLeMcreXceVfiZjmCzAvjMiSYP6TICEa8IcfpHXerMr3gJbsHzBh5Tlnazfs0SABPBAzw6u1ctMwMvQb4y73GLy/36BVuAhvg3SsioshDUGifOTjYUJnIow7oRgRB5ewfsma/44xvHnYRRG4dKoZmNKCr2nccnMvDuYrsyU72cute2BmONIBuvLCtG0GqEZE/ZODPQ0IpxjiCCEC86G5K3Mfayo03Hl0KRE30G3KBQMHCtC3mld0iB+V7OO713paaNKzQ4mpHJk4AVkw3eyiRIQQxFSgRKABahSZXNoZqL/q93aNmjCzfwEBwx3hUEYcoE8lc02reqGwduF923pkb6mtDWb26Ws+ocUpkN8QQaIcSGYE8DzA2bCXvVyI+JREOhoNn32P3qBkjyrMbmtqn1FjZGJ3vmgnVrr4qsmZkFs2tAhyPLatQIljxmaKBGEAiR2QIeTEZDASSyWDI+DMUCKZramuSgZDxt2wiFAgnEmEsqiLieWTEZUShhLgFomJh6V3ftXvcjBHkN2eGgrWF5MW6y013WeYyTZnT+N3p4riZXOtN06Ag+7ACEOxzf7LS0awZEVllyhBTZc+qVDhY29je3t7Y3tXeWBMMBQLBoCk8RcBY0DVKAORlGVEVA5V00PMXrDmM6Wz88ONAor7OSl5cv+SrXH/tYYfLY6wyncY/Tj+ud7FhgDRjeZgP5AEVV3fGAUkHUpXBzmWPP/jYS9uXb12597Q9W8/42tcfeebmZTNCTXXhYIOMZJ6gBkOZ2HCcAsLGH1RTEl1/tHvgjJHj/eOCPbWWyAJdl3EuR/8ZUu7PSdw9XeG6SIPs94sqyW9JRHgIMnfHGubNuOTNZzfN6nuOq7x1clVfIodz5qe/euSJ6ZW0wngW1YAbGeI0dIYQFoCqwkBdy2O3Mls2bvhz/dwu67ZR/bwLomXRfEBmtoYoeyW4K1GPMEFuFWj5zVXi92P3jIuf+NoZp/WdCHj2Wyu4vH17IFVrtry+BHegOMyoPC9DCuO8ijTdWGvUZ2um3MdWmeOGO6ZnU1Yn3uCq9Ja+oN/Rp7TJV6RretJJ0xjxuqLmj4lEAqd/8PXcWSfnLevLwXY6HQ6nsz8vOzpr7wTjJfbsWf67s2LaNEHDPpUKogJFY91AlFRNNjD35fftHjtjpHg4kK3LiyyUCr93mnnPNycy74SVF3d19jQlKn0iBEqMRIT+A+/mZd9bvlaSjpyZuxZgpm5YdTT2Oy9wRiVJmnnh7Y9XtGEdilQjgkKM9SbPVwYSdfPrFm77ud2DZ4wMf0/Oz1oiC9WmN5m7GKbIPK0n3LuxMpsNbsga5kuQ4yiTT9354Q2SdOciybBk0fLo/p7S1Scxr8dpwHGtc6RjJWndk7fMEAQeQTFCYwIwgrNEV8rQWfvsD+0ePGOE+M7iGhETSHTq1huIcviRZm9y1wSOe/9PefEpAAjG6pKvyVYmAmddPvwasz9ckqwLJ2soVkEMVVuHnvOPsXvwjJHhj101VKFIhIS6Y7L20J5FUtSwR96VZ8/Pi0HW6URfc7N7fbrxrT+cZp4yDY91HPeXBaFgrUr5OCLYOinYuYEVmR0nPB3GAGNj/adX76vWY19pNQP6CSuvrenJi0EQecH4UBK1T3yYaxQ3XE44gdvzQm9CgCrJ8HFLZHXh45gtGx88EhRVpAi8sWak1Zq8ed1aFzdp74mpRmvV6ZdlTZNlffbtfbVih6uxk3JP23KLTxMQAW4r2TG1ce5Dd9xq9/gZI8BtOwiEVAAIarJbaGi+XeJm7v1esHaeddzkjtE2tLjhpjWmoxx+WRazrIHTxXln/m1hRbwhlimUM1icXXg2SzAbF7xONXNzgmLDL5KM78zjucn3hGrqkom8GFSixTILr7nQ0IsZrg1fZq6qMo/Xw838yjeUfciXyb/uhn93prI32j18xkhw/amqH/qAglXj7Z8yLX5e+fLe1Kpk2ipjILhxZsFLR0ozDb2UlUUHu840KH1XOl2cJG1/Glefb4ms8q27G9enH7F7/IyR4K7pfqoShRc1ApE/ctemHYFUe6jOismwDi64XzKvzA2/o1wOR7TcWC44F0nShe/hQlvpbKK2rndK1/ftHj9jBDhFiyg8Fa1aFtMnYg3zUKhoEzNI6Yj0TrnAWFUO44r5IHiM0OyEp0JBGchIx6KOASAExVd/ehir/j/2+Y7gVgBv3T6KI0FAMo/bmvFEjOKZKU9czzkneL5AyH+AyDyGUE86vF0gRI4o/gYIISZAjl9h9/gZI8CjJNIBqHVZV1AEzIsQizGk6vGpix9YnuuK+Z+bsipzpXnC86oAeAGqCkTIMGUABVh7ufHABVhB2Lp9JBihGSBU0FRKfDG4ZCvn2ePivkDHkgMp57i9Dm7lCz6loRmcvxgA05RRGtzAMjLGAfcQGViVnwBEPCQCxQ00M7H6s18s7+twP/wOvwPwmseeDucJHwBZVbBMCQYQYFo7hTnMccBvNvMVcWyJzDQwGIqqX+an7HhDymUheoffTO5AqjjnZEOwDumcaxdDtcNtJnNDBHHdhjp2hWkc8Ge1WS1cccNGpGQETBkx0nz+T6W1Zn71fxz1c7k6G63lTgd3vPTaMkFFMYgpyYlsfs8OVplx7PPXGdCn5zVmBGQYQqLg6g75zzOlOdwEJ+f8Il3kDsSbO1z3SpOlJ2fc3UZlaIb9EAcqA+EX7J4BRul5pTZr3b9UZKhjHsBEqOmJKo4bNO0il7BoSM/pySX5uzwOrr97jpm8OLgmDcfr+G1vIkt4TGN4IiaIr1jKajKOfba1d1kZshjwbhlgPhBa8OQkbuVBjZPDvKq0X8cch9PprMptdjgHrdzo5aKTVn40pZcSAfEEEkSRHvnlrXZPAaPkXBK0rsahDPUBHYjZrnvKDp7ZY6nL6fEa1swwaS5nn7g8B007c0zmNk1PI0B5n5ARRR1C/1SWwDj2OT1cb2Vd+AWoCzJquWKSkytSFM+ySP035w5wjOY/PdGDrRSqTH/6XIBHPEWkolpUiKpNYW1MxgFnWpZMNgvCiqJ23PJo7lrJoPbIbH7jcTjNiMzh8nr7QjOHq7/E8eB7HhM4wwlX3UQ0VRFkPYKQIvPKZhaVjX3ut67G6W4Ry9iPHuEcHnNleRDKDjRzzj4LZjxx8F0PR66MC/ft2R0iEKoFaJ4wqe7uF+2eAUbJ+e6yvMgqRE2JVyhPn+Tk9hqmbFBL5sqtPB0ry7a+8cjDlxzxyewFj5/453dum7XOxXkmHeROkyPnaB3c8wi6BZ8GzF7VEAunshaGY58/W6tLX4c2tWPaj81obCXnGLQdjjNnlLa9fctx9ZXZYDKYTAea5oUWHvHnv082pTT4gXoZV1bOeZ2nzAYRP/CrCuUhXbG04g22Izvm+UNeZLHzFzco4r2tg4pkclnOhkmLFl16+gPVVs5+Hl5Y9sdZx66VOG5SsWLaFot+q1X7eWodZ33D7hlglJwl+Teb8IoC5MvmDO7wOK9hq6qOl5Z/RyTqgNqxSjWKLfvprDlmkuJBtss4afmpsHniPquF4ansgtxY5wxrxx9gSOjFi6TBxGEuIsuNj3d/EBdgR/eAUutiRkMrKh44xliZep0HMWXSUS/qsG1xQ/55tc/bPQeMEvNx4TJvXG8jz0lrBzVjOdlMPv3i6in+SLU8oDOJivkGtwCmXrYuF5gNupUhSWdMaxMLHX/rzrZ7Dhgl5uzC7aS2mLz5pEUHc5dlnOulzn/7ZpAVWFYOFJkm4ynKjIbFu355m+FUB2+jeal06Y0Y81ZMVrlrm92TwCgpm1K9VuAOYfeDUuug7tIM+m947NzP2vQK1Z2pGBD4kwythov1hYt7T/w0V7V9EOZIl/69GRGrAEsowK7HjW0e67EqLvIxt+/b0lGDisxVzk14bMPcXj9yQwGrkQNFJvIAxSeSu2tb6i/6lHMMek9TktbOOhcIlrsNhR+3exYYJeXpWisLg8bUC1ols4RUcSZwnqM7m9IBEWp+IgL/gSLTARL8VI4n6udmH143+Gbu2rVG6O8vuMtEeAarJDuW+ef8gHWsFGwKHM3tLXos5DJPtydL9zeI8Vg8o6oAYQUqWJShQqFIBCgjquuGcSI+tYOqiIAXpbVl+SceiPGZDxsDVi/0VKiWlcUey5zeXnizA6GdXzNUMYjIopx0zM0xQRaoDzVnZBlE3EDXKcZEIAALVKx2qyL1a8Yik/qBMv0lKXebrpwbuGE2ifO+u6DGOpgPJdJv2j0PjBLyvWDIahcdrjnitOIH3H1lrqXdMc2IvKiMY7gBZQgSDfulUOzO1R32dwAzUsOKLGIBorvvXZdLu5hZZFN2AlcePbHeElkyG7zE7nlglJArwyFrMzaV3m3aniKxlCeXWP3H6YsbfDpS/aLMG2ISNQqQe+K0BjOXwh3xqZDXtYkNRBCRm7qp+HzU1Gtr0ZdzOW6vtSxoui45mwVlY5gdobBlyVLJ33KuIsfbhsTM3YuTlrk1nxrTVSUuViiyr1pG4vQnfnv1MVs33X/RZl5R+DgfE1QVwphPoQ2k7Zg+R1tEZVGufM2uJisWzKaT19s9EYyS8b8bg4mCu9x1TNHtrbJcHxzX7YYv1HhEIXXjGJL17rv/dM9JksHxxsfkN+6Su2NuNSb4oNgtyhWA9x++Mne/ZIBsHdxkbkL5DmvBYRjTxLN2zwSjZLxWG0xZIgucu65o5Yto7uLS1ut48+qvWyUCgKpPEc7/8XJJunOmIbHjT2uVpFNeOkInq6kQFxDBPsUfAcc9me85N1C2nPMKKyZLpRMhloQ9dnk2HEhZMVnygqhhswZ6N68pCu6YmsgU2kYFt84D6KYdCx5ZJElzDCN25LHGb8bHnL+flfHpwlRc0RCjvFAtTPlLudlDp9jVEg/nucbaBE7VNyV32z0TjJLxPFK7rWIYiR+UFWvga+5rGcq70rJ4yfWhQKjytYH7X99e1lNTN886pqp9y5srGlvkFb0e7zbrYB6AOPmF3TPBKBkfIT5mVaUOfM8IoaJF4nSH8d+6P1kxVNOGmmztz04a+LiZ7+wMBLsqrf2vjWfkVpJFXs/l4E6xLBnAPuEsu2eCUTIugRhbB9Xp+w2/6CiaBubkru5s2U9kU870DNz/MtR0Y2Wwfm7+cZWNj5i+doBqHTmffMPC/OMglpXprHvcmGUHUESaf7Nrjsl18C0iHqeT+1naCtTbe5Kp84r5QI7btrCux6o5W5m8pGjqoiNn2/YsyD8OEahMvc3uqWCUioVYUS2R1X9qNrwfuBg090653VnLve1aFVjiKVq2rJz7yapQbf5x4eRsT9GKGrmbKHtvKYgMUzdLwR6zTKMUWbn6O28ws1mL1xlwnl1prUIrk6nfGouBgTbK0OJrTRsttxpI1u8pmovhNI3ZpEssd0kIgr+yeyoYJeI30wRYqBk7fZ2541BEFebpUGcgkX9cTzC4fJKjiF8t48r3zmhfZQX+oeT1RSWbu7jpvWI/kan0PLvnglEi/rVa4XUrw/Xclbk8/oER/QSnY2VXeyEmm7dxnafYGafhaV23rLLcZSqV3lK0A0DfKfyJ+ccBQiLCD+2eC0aJ+J84lmUrJjt3j+nGih41cmtmZ60D7a6mhVWTi4nHiNNad/dYIqsMhN6JcmUDXtBp+sso93D+cQLfHBFZRtlY5fdxwotWTGZYsuIiMyzPV+cHrM3YRODUqKfIutE8qHR+sN9ZaCC53VskZ9FhiszLXZR/HOVjbsRENlb5v7gARSsN2rRknmIiMz61t77eWl32NE4/zRDeAE+YU911aWsLI5lKP+osIrL+yN9yl4RXZHK73XPBKBG/blD2u5p23DrTwBRbDrq4ssb6Qt5ZbeOHXOvAZaiL87qqzgpaYqzpSX+7+PVLl2n1rMAfI4xYTDZ2WS2Qwh3dhTeYIitWXsDDOacXWhQmE3U/LGagnM4ot3V+pXWPs2ZV1ynFtkTMmtoOh+MmUFAZpG/YPRWMUrEQ7CeyDWuKHzXmaiteF7IC/2BT0/NFpVjGcc/W9xRShyqXvvu5wrKWHTN3Y8usGhxIEAF80u6pYJSKpcbba7nL4PWmADwDzxrNaOsPISvWCmcTy5YXEZkR0K17IlRpPS7VeGZ57nB9gF00S2fPOiL/OF6XgZvVWxyzbFb3E1n2Q3NzwTvASDlNkb1diLUSwfC8y4pXuniyqyVotZeum3FFsaNQLmqKzHXCuZbIYjKIs7PLMctNiVDQCuiDzxlGpogoXGbwvrUrqUQiyE+qNQVG/NOvlmZ6+qp4unIlih1ez2RpzSVEgAhEYEzBAk32/MpbrCKeIdoJnPP6zvz3ra8LZWfbPROMkvFwNhi03FvweS7aFzAdaHkMJl2XFQCBPBKpO4N58a5NUl9akCmwvp6Y0p43z88gmQoUyDJE7rqzTunPuDjQXZov+bX51kIim04ssHsmGCXjqqZkYdUYvM/MJxsY+UdzuniuUoYa9fEKH8kIvgrl4T0nGFbPMcFrft05qdwbbf3Z9OYKUdV4P45DncApP5hc1F16TbvHXWWVdg+Halk1jDHMG02B/UR2bpmrWJK/I1ft+rZOVRU1CCpUwkNIO87fXcVxrYZgTjAeUm5GWYcfp1PDiFGfQnhdB1rWTDor6n7N3bOHCwuEYE3qIrtnglEyPgwmktbBd2D+DYbNKuLfvJzLG3VcpAkNVJH9sr8B+iM+nRzxdhk32UwOchnPKX/2g4YKIQ6ojCkBGMuycstXiznfPofp5R63xJ1KBlPfs3smGCXjn2+lgta+Vqh2u+H4ipieqpxFOr16SoQ3dAaJT/DHfQIfnv3BO6cZXzV0tOfR1+/tIRTxhiUDFSIiZj+Af/RZwSJHCFWc893NlrjDgXD6VbtnglE6loQC+7mtN8uLHgOZ5fe93IS/YSgr1RQAnhDj18RdLVOSm5++6PU3X9y9IzylqZ2PIAVAApUIFeId2pKvGmasjCtmy6o4x/Yua6sjHA5v/NTuiWCUjivSAcuiZENXzCxW6cmR26M1orLplK/gNaggGWGq6fOCjaHKRDCQztYF65OpupgbkQio4IGvQzlfX/gSF60yLw0USfUp51yXpwpp2qnQUrvngVFC3m6cYm2yNnXNX5PLwxmMj8+dUheoawQCRUBXBlS/BljQBSSLlb3zptTU7x70ZThnOVf1eNg640wkgg/YPQ+MErKlMVzIrgiEv+88SP+tctfNNfXBuiYEoChDQg/UGDEEhiDAjZ/t7Fy85JTBRWb40AsfChZqYdQmfmf3PDBKyDdnN1oxWe3cxHuOovlf/Xj3HpHoCswjRFCAWshDy6NgUQSU4nntXXOXfv8g7cujHHf5xrB14STRG2B3lcY0VxZ2/Hv37dowy+UY1F1WcVXXP9QU7kI8ieloQPFrI+Y36y5CuWfh+uAfuSK3f/NaNfS3ZGOLZUHr6j+xexYYJeXtbCG7om7X+lcP1hSp3Fl+4Yy5O2WfEeFjMqCOvw9Q3i0isf6zznu8xYr59DOJc520s77OCvx7AlfYPQuMkvL+Rktk69uz4QcG1wbH7XVwKz9dVqn7qWzIbEBMxgvUHQGa0tR5WbFFqoVh4h7pmluwoE21LPd6jHOf9Wb3tFfW7txy0GaqhjWbdPEM2k3ckAxYXWKN8kAH077xrMdYPx7EIjrfvbhmVU0i/7zQ7DvsngRGaXnT2ierD3dlE68Xy5voxzwQ5yZ5b9wsUF7QB/RWciMINaXzgg+9ufPJg3Qjv7prXn0hxah+h91zwCgx53SpqKKa8LFqCP0yWHih5OJOi3JlRa/l5oied1NXKpkOVYaDobqmRLIxUFcXTgbD2fYN2aZlb88a7HmOXEVap2OR9LJ/GmmeCjSZCjJRF59u9xwwSsytN1VM80MfVVSMIYFTP5ZMQ1Q81z/P1qPvrVsVDAQCyZqaZGB9U7CxPpmoC8yde9yL3x68cZcrt/vv5KRHZ/tljQIsyAJ2a3DpJrvngFFqbm9eTfU2HUBKfDqIbD6HW8lxkw+y8T/B+NKE8x7oDVS2pGpqsnPr2+sTq+aGu0JLLvsqV7RGbL/IzAMml5Nb9AEkiFb7AZYV5MvQp+yeAUbJuWMzEXWfgjABMiBixSN9DR4Gt0ica/Ikl2vv1h8/fERNT2WwtjKVCLefe+UPPtw62Rs9SKN705R5PZzjjTaKeVytASTqvFgRZ95yHPBMdwQoiAeQV+IUKTs25cpVDG7JJplfMk/Nq1a+/613rnrzd4+8fd4xW/N7FmUrB32i12kmbK+8tkPUIVUwFEUdEXLBN+2eAEbpOeNkVc2IPEJipgHgBv9FhlI8gx9hcrmQLZfg7yyr8hZyecy06vKDPS/X7qT1HdE/UYAw48Yir0Ct82O7x88YCT4iMsEiAjyFbiXin/Es55hwkO2yWa7cHUsu2vcYc4XgiZaVlRkSi3IH2x/LCfLJMzXkFkmEugXIY1770zl2D58xEryTQRG/DClQKybGhHjiphv6LvQOipmj7YhyztxdOJe3P2PMVJvDO/iZZa7XXOvRnyFYoTb7INUwj0SFZfmMD14EE/28T8hvjsr/7+i1a+dIizjnQQQzDHLVMAwhSrMkqfVXsvV9gCLHZPFPdo+eMSJc2+2moFDdh07jr5aOOnLwXuTDxFSq0+XkjpT2HDnzZNU6jsLU5wf65r/aPXzGCPDPhft4fr/z7oYYPfddaa2U244dWC/li+BweZyOY6VFl15JK6ze5RT7FNw8ld0hGQ9cDShEmFgVF5HmE6+9VDrS68y1ufwyVOYwX0haJz0otImWuzSsJ5V134N2j58xAjzor6aaYcvyb/6KiYKs/cBseO80F5DFa64PT2O539dKL7l5iLT894FQUCIELLF7/IwR4Gw9ojSLVoslIAqRDh8+2ozJzOXjwTLMhqixnMgc0rbVcU2LuS2Lyft1N41N/T+7J4BRctZEIAV+vtBjyQ2xL9OmvrrSmQvaD3ZSPkSNmSLzTtiyeSoW9020FhhE1hSZapA1VB3z/Gg7aGiOYBizLFn3VJiJd1THP9zbd6/3P8YUmaf1hB2wWW2udlvfKKZioAIkH273FDBKyzcPO+yJ/Juui1CAqFDfc/azkjRn0RyJK9oXdUhEzZODtZK06FjpWxdYFgyY102gFZsts3sSGCXnXstNIp0nPLZiJvrQr9YeKUmTHU6X02DYNm1S7tzJM6lVmnOn9K2bLTfpM1azPITWdadPWJf7Mc6P/tpovflCd9zPK1ZspmbUH0ozF/Vvyg5+VW5Q+ussSnuOkh7dscLahBUVHfKCYlnM2n/YPQmMEnO/dcmWUH9btyxYbkxEbvjmUYskT19x4S90xOTwOrk5kvTDzaQQ8AsCgRAL1pW6OtaAfKxzUTb/Zis+np9SOPUB+05GmvDe2kVOh7e16gssAMrMpemkck5a9LPVwFdYvQqyrGhioadT3RF2zwGjxCywCq7oPjhFMRd8eff5b1+1X3x5e87zfQGRRfuLt9x2I8ZtmX0NVqwnolgGF8Qcnv8tuyeBUVK21FtF8DSMmxfACmtXtnm239/gR0u/fv3wBdaH2T7ipK89rVLUDVdbWxdU46dOJLolsmTqKrtngVFS/pGyqusQwd3wytRuy5K5u5FP4EUleeK2/oTr4eE11wrrnpnfLEPcwGesQB/Hpi25IJKxTFl67k/sngVGSbkukci/2an5qZcnvD6/siGGpgGh0KJQzmy+bJZ0vNS3dZ9rOJi7AeDoZ7/tDU/U1b9CcDpd0lrpqGcvJtaWCFGILBKK0pUX7X2xstCDKZScYfcsMErJzxckrcA/Fcr+gFv5TGN3A62Y6u4o7JdFsHbBG8dL+S3Zqtxfoq15nRkay4lsQl92onltM9fW5Chp0+4477ayLsybI0Qj8uITN3FvhAs3yAOBXtb0ZizzaG1jpeW26nb+ysHtfbNaUXggAGs1CJs1ty7cdYzD5fW6TGvm8FaV9yvOkdumzSedmQ8wi/+YX6iavOdhqq32xfyWWFVR1w33+50bOOcJCwviDoaTf7Z7Hhgl5M8tjdab3TvvuFmnebnWZxZ2ixD5CvtlWGyQY7rviXtmcdzkz3fENETmypmzwmc8XPm6ci76tWva3G630I1n518HUSPGq5hxybucaw93c5NVmDgZDp1p9zwwSsgl2UKziPS8C0w3yM38SufdEyfGrECdxNG+2LTI4vTGM4++sO82kqe835SZzjLvNjlv1QTzixM4rvWnV3aGVyDYLJxcvdiK7XQ4UQAXbTXvDbsea2kviCzY+XO7J4JRMr77VjJkVfWZ1/Wm8fa3ctKsryxonkJ9lrv0Ux+9W1nakgq0b959+22t/ReZHPuZMDM06zdlLueWnzyUrGxqaRM0n9xRYb2O5qP/b+IzJ0ncXsMgbttlnTQEEzW1V9s9E4ySsT0YDFiWrGX28llRw8xIx87ZvkOLWDGZCAXia8CL25OVq3rSsxc8f9m3DZlEJ7lchUNz06JVGfFY1Rn3vPnWxvpAoKaxXUEyIEi0LKLucy/8wyJpEedycdG9y+ZagX9dOniN3TPBKBk/q0sUAvD6+ZNd5uXxoyRJ2naT31oVEoSoAmQ1ZNbwCSUSLcEZ917xyJM3eDyugsiM+P+E5W+/cub09LxgIBQKhLNNWJR5CAu7rpF9x70qSXdKXsckjlt5XZclsp5g4Eq7Z4JRKm5dFu+IEEFUsYCxEv5O35XenN876fma2lQ4nagMhzEytMIPqHkHFnzjpo/+8LMfP/fc5Ue//rcnzjxb5BEEhBauPWHezQuwelegKVDT09Pbs3t5X0K3EbS5XJcn3AKKGBKECNMGnuVgj1X+d4ZP5zHheSoYb3X69Vx/cLOGWJTjznk20RWubAxW9lLFH1MgP6B8Z3NMMfSHkCETBAQ9Y/wVgv1uPUWwXydY8bckeoNzG2c0PXJMlHN4XU7zaoqX+3sXbxhLhZil2gUVbbd7LhglYrvAm1mqhkQIL8L5p+f6jTu8/X3D378iWdkSaFzlU2VV5Yl2oMjaGnyyad8opRipkQZ4wNcpJSje5hay9SljDfuN+81aLP31M5xV3LqHkKYIGu8TKBIIZCdLY5WnFEFEiuHjCECQLMgV4vRyuX2IcmOh6bl8YSJRuUvTFQwBkg8UmaLpukYB4gHV/H5dxxgDaFq1vMhUH9YVQa9dnw00/uQGU1tlfUWAPJwRlV2JMA8U3q0JIlH4s+yeC0aJWBDPiBEdE2w4S0G7wixKltv2cuZip+hM7v0TNwYX+xA2ZIR9B4rMFBTieV6Wc9GYIVVsek5LZEgEegz7qtfXJi/+Vf+1OONXmdmJrtzLXQ6IKBoLCoGKhr+U/2n3ZDBKwjno5ApUrRihuggFAVxu1trMFVjMbbS6csX4f3p2J9YFXzXS9ANFZijKMIKKpimGurDZjuTzlgxrhjMUqb9z8yOzDHmVO/KbHZ5yzlXFXe9TDEdJDYeNAFHJ/XbPBqMkvEQiOpQhIZDHCj/1elNbk7j+7a/o3r0c13oCV/b2Q2q3rrrhgF5KpqYQ7I/EcP+qEkIrNJMpEUkHPf+9TYZsvV7O3PFwmrXXXbn6xGULRD/E1JCluVYQT7R7Nhgl4SO3IkDqxoa3pEp8aXSyoa2ZuV2MslzBRI8ROXkncTP/sQz7lULGrGXIDGmZ98BzvhLAA+N+ABUKwdJntnKu3JG5N5co5HH0BX5clHvgZD8UCca8QoFSfa/ds8EoCVMBmeg3uwdqbizoTw1MO+zD6zjp7TPrs8FQKBwKBEIhIwyDhjB5IwYzMCMxU2GGWEQZGWtVMRxMJ8OJUDqZTSx4bOtgr8pxv4oBw10a/hXL/rjexgqtj0XWxCGNxHjAU0E0oqKXBpeDYeC23zi7NpRNJNOpebgvvkeyEfH3hfzQjP95U2+G2khlS1OosTHUk7zv/hs8BynYcr1crSNkhv1uwa25WYOlscjbiBdEP09U3YjbwfTbBlWYK2pu07//uytntFTW9zYagRQ2zI+iKMafoqyKIgJU0XVIBCC7RRBq7Ao19S55+Jh1ZmEy56C1NFp3tDW7VUUGegTyCnnP7vlglIAPiCwgRcSqITQCblk7mBiiZhqsGam5tn79rhnZFiTEdGNFKKiysSwUzNWlQAAvq2ZncgOhNtB4xC8fNS/2elrLDlKwRfob1kQRI+j3GVZQeMju+WCUgLOwTHksQl4zM+9PHLR8Z9/WQ/lKbsK6Km7yGw8uWDrN55aBYu70Q151u1UeEuMfMcHwm74Zp+6+7F2zm1y0PyVo0EvB0vZmmWKRIkGGFGE3y8Eee2yJ85DKCPHYMCZCw0sHqRHryaUomh9m7ZUjt1591UdPbz5ZFQ1tCQLVdF1XiCG36UtO/N6rFx5pKCxf08xZVjZ4sZa1J0XcAhEFhKBhCSG43O4ZYXzpPAZ8iuJGRFRkiujSCwcVmSmTqDe3e2am+XslSZpz6Z2zZh5z+qt/OfqZF5/621N/+Pgrz1792rqZl6491vjiJNP6TSjjPGXRgiEsZskW3azwiGJsJoJADJ+we0YYXzpP0OqM7oaKqMd1nvxCGtxdOr2mzqzC/sfPMWV27Frj96OONf8uHbXW/HNt7vNrL+3fbu23gYPX0JMuvWZxtbuCFyZSIYIVtICdLI05OvObpum6cCr0zH9eUXH4nB6orQyk8j/HzvPsnhLGl8yWDfk3NxyurE8/O/IS41xrFnZVpi2R1Txm95wwvmSusWpgZJMtuzpvsEFk5Z7rGlOFXuSpS+yeE8aXzMuFNzeYrVlig8a4Mu53iWTCEntl53ftnhTGl8odG603N5hKVz74JbUeGRYu7vRU+zyrdFUo9Zrds8L4Uvl+oHCDu7IxeLWZSzbiONYtbJ9X+DmanrF7VhhfKodXWpYsnKhZOtPxn/eEGL7GHNwDybDltoPhW+yeFcaXyrV11ptbFwy8nMuCHWlcHHdNtt0q+BJO9rJqBWOJf+1MWuUJaueFruJcB+0HXRKcnMfzrflN1iXfdHsPuxg3ljgvmbBujreEah7lXF+ghPp/iFlV+90dcy2xJ0ItrGPcWOIniYBVhG7ezuNmch7DrIww5qUVx4ktIctdBkNn2z0vjC+RZYl0vWVBej/wcBO+lL6Ww6OMczhfCtdaP0djMP2/dk8M40vjlMZEoLC6TP2liisv1IAdKThnOVe1aVehdFV7ZQu7GDd2uCeYLtQlS9SvyR2OO0cY83u6qv7UlP85ehpTgVfsnhnGl8YV6caCJQveu9IRdZaNeBZGtJxzejx/sxYgoWCydsc37Z4axrC4o5//OYDf/98dn4STWcuSpe9a03rKDevWfXWEOenCydev3HOVtV9XsyqZCG/7v18f+PPmsXs+GZ/jjjcOX7J5tnsQeLPG035XceV+Bnt8qch/3/zPkS9zMNjjVy9cduLtF9o9twyDnx/20kfHAegTNTgIB4osz2CPLxUHfv+8yAZ7PHb7hNjJd318jt1TzDjviGmwIoZU0o0HAR2gMdLPYI8vFfnvWxBZn9IHe3w3icixFbp47lUscLOV06/rqakAETcWxLbhWJHRYMkO9VPIREENbXwsPO+In9o9z+OY7/6267NgyM3TXHG6wRjsbR30CSXiQLHl/zboEwDVNMq762qaKnf//rBb7Z7t8cma+/alZiTrFAojE+MgdqCY9ot9co5p/3/3f25EOfD79ult8J/DDyLVKqZCfThYH3zobbtne3yy7ewpu3ZOmdslECz4NRQf7M3KhV+jUGSmaQMH+Tl8OFahAYjD2WTtqp6XL7/V7gkfh/zo3I3Zutp0KgzNomEIK4N5HXqAyEaLu8ytR3BuYVIUjEQREkHo7ZmbTLckOk9nVwJGnM35N0s03iwEiZKzCYVF3H8teYsnCIR3q9jqOte1ze4pH2fceusVVvKfToAQ09zn86JZQYz/r0fsx+cTlYoMiOTHWX/EGrunfZzxWMpKY3ZDwsfd/rsFwXCMZkmU/3JoP7ouoEi8UOk9+NnDds/6+OKvXY2J/ORrgMd+XV6NkGHLxDFgyvpp80FCALHa6iTaA/fYPe/jiB8dduWqWutqGTUrnlM9oymmKaNjhil+gAiFVtvqUGNd52Es+B8xTpnb2GOlMas8JmZR6gULdvziiDHAL/pZWq3FgE+2tjgCixvnHW33zI8jrmipz1p5WRkso4YlP940c1brnUcuWnTkfzt39vPpTz+YDnRNyY8zWxluP+73dk/9uOGMmppA4YpbW0XzxV+fLB279lizc+V/P3P6WSQdv/3KOLVWl/PemtfS9Zzdcz9uODyecWtEq1Z0FeNI/ZQP9nDRwUub/7cyiXNxrQ+ma5SpVEeYRqorNB9dYvfcjxvuE5t9hAgqFXhAQN2N28rsFkRpcFVxKx8M63FIRSwgWcM+7dx/2T3544TbZsMOFVFitqGBgn7qNs7rGrzo9H8tTgfnLONuuM5sxCpDY3EDkarHf2j37I8T3tDVDOIFqBl2DArwtxPMC24T7NbEl45ngtn6iduyOiNSHsqYyJCnwlN2z/444aruBkUAAh8TDVNGHppQ5hn5i7ojgcdsPeHk7tNEDVAVA1EAvHKz3bM/TnhBq8YaoaLf+D+cwBPNAj1ltpTpKS0uzhXlnBO4l1TZj2O8wCOFyJi1/B0ZLuEBogCLAq/7BPUvHmNdWeUYeyKbbNgyp2HNLpyIdDEmUtkMy8BCtuc/IpztruCN6RYJyjRokWMcuQYNYy/wz9UB4jjvpRPN3RofMsaLBNx2h93TPz74htkjCUNjaUl4op5itxRKzVHTESIQQyjwxphXsxotIwITGaPkMJExSg4TGaPkMJExSg4TGaPkMJExSg4TGaPk9IuMYh8iaOptdoug1Cw6C/Ckm8aZyEaSfpG5AU8Vxbd8pGu/jjQzT9WAT0R+JrKRpF9kqkaQCKs32W1pSs3aHYIOeFlhIhtJ+kUGMiASgZFNdluaUrPoLEyEDHAzkY0k/SKTBcQTv3iG3Zam1Mxc6I806IrIRDaSWDEZUjQw9dORbvow0kgLYqgas9XlyNIvMmiIDMarr7ZbBKVmz1lIoFhFTGQjSb/ICFQJz9/94uFjnBe1iFvAbhb4jygXYCSIglikOOGYRiQ8pGTqVrunf3wwTkXGUx5QspqJbEToExlv95s+0pgiI5i5y5HhZWCITBlQOn2sgwTERDZimCLjx5/IYE5kJ//V7ukfHywBSOG1QTp8jF2g8f8VAeczkY0ISyA/HkUGFGiKjFVcGRFyItOZyBgl5OOW9bvC6fSX3WBrtJPdEAon515n9+yPE/6+LBWoDM+1+00faQLr56bTb11l9+yPFx7r+iy4MHxo/zK2SPd+kvj3taxhxAjx68NnVza12G1ZRprQ3LrGa1kb3xHj95ctaOkcyeZbo4H6ls4XT7F75scVd3x/+1fGGW9v+Y3dsz6uMMsnsTpdDAaDwWAwGAwGg8FgMBgMBoPBYDAYDAaDwWAwGAwGg8FgMBgMBoPBYDAYDAaDwWAwGAwGg8FgMBgMBoPBGP38f2voAwUNtBWiAAAAAElFTkSuQmCC;" vertex="1" parent="1">
                    <mxGeometry x="240" y="135" width="35" height="35" as="geometry"/>
                </mxCell>
                <mxCell id="22" value="" style="rounded=0;whiteSpace=wrap;html=1;" vertex="1" parent="1">
                    <mxGeometry x="300.21" y="210" width="3.57" height="20" as="geometry"/>
                </mxCell>
                <mxCell id="23" value="" style="shape=image;verticalLabelPosition=bottom;labelBackgroundColor=default;verticalAlign=top;aspect=fixed;imageAspect=0;image=data:image/png,iVBORw0KGgoAAAANSUhEUgAABkAAAAZACAYAAAAhDI6nAAAABmJLR0QA/wD/AP+gvaeTAAAACXBIWXMABWgbAAVoGwGr4UkqAACAAElEQVR42uzdd7hmZ13v//dk0nsglEBCQockEHpHehWkCAoKHD0ilmNBVNTf8WA7FuzYsSIg0hQVBJHQe68JRQiBhICUJBBC+szvj7U5pMzszJ7Ze+Z+1vN6Xddz7ZBzwbn8rH2vtfb389xrFQAAAAAAAAAAAAAAAAAAAAAAAAAAAAAAAAAAAAAAAAAAAAAAAAAAAAAAAAAAAAAAAAAAAAAAAAAAAAAAAAAAAAAAAAAAAAAAAAAAAAAAAAAAAAAAAAAAAAAAAAAAAAAAAAAAAAAAAAAAAAAAAAAAAAAAAAAAAAAAAAAAAAAAAAAAAAAAAAAAAAAAAAAAAAAAAAAAAAAAAAAAAAAAAAAAAAAAAAAAAAAAAAAAAAAAAAAAAAAAAAAAAAAAAAAAAAAAAAAAAAAAAAAAAAAAAAAAAAAAAAAAAAAAAAAAAAAAAAAAAAAAAAAAAAAAAAAAAAAAAAAAAAAAAAAAAAAAAAAAAAAAAAAAAAAAAAAAAAAAAAAAAAAAAAAAAAAAAAAAAAAAAAAAAAAAAAAAAAAAAAAAAAAAAAAAAAAAAAAAAAAAAAAAAAAAAAAAAAAAAAAAAAAAAAAAAAAAAAAAAAAAAAAAAAAAAAAAAAAAAAAAAAAAAAAAAAAAAAAAAAAAAAAAAAAAAAAAAAAAAAAAAAAAAAAAAAAAAAAAAAAAAAAAAAAAAAAAAAAAAAAAAAAAAAAAAAAAAAAAAAAAAAAAAAAAAAAAAAAAAAAAAAAAAAAAAAAAAAAAAAAAAAAAAAAAAAAAAAAAAAAAAAAAAAAAAAAAAAAAAAAAAAAAAAAAAAAAAAAAAAAAAAAAAAAAAAAAAAAAAAAAAAAAAAAAAAAAAAAAAAAAAAAAAAAAAAAAAAAAAAAAAAAAAAAAAAAAAAAAAAAAAAAAAAAAAAAAAAAAAAAAAAAAAAAAAAAAAAAAAAAAAAAAAAAAAAAAAAAAAAAAAAAAAAAAAAAAAAAAAAAAAAAAAAAAAAAAAAAAAAAAAAAAAAAAAAAAAAAAAAAAAAAAAAAAAAAAAAAAAAAAAAAAAAAAAAAAAAAAAAAAAAAAAAAAAAAAAAAAAAAAAAAAAAAAAAAAAAAAAAAAAAAAAAAAAAAAAAAAAAAAAAAAAAAAAAAAAAAAAAAAAAAAAAAAAAAAAAAAAAAAAAAAAAAAAAAAAAAAAAAAAAAAAAAAAAAAAAAAAAAAAAAAAAAAAAAAAAAAAAAAAAAAAAAAAAAAAAAAAAAAAAAAAAAAAAAAAAAAAAAAAAAAAAAAAAAAAAAAAAAAAAAAAAAAAAAAAAAAAAAAAAAAAAAAAAAAAAAAAAAAAAAAAAAAAAAAAAAAAAAAAAAAAAAAAAAAAAAAAAAAAAAAAAAAAAAAAAAAAAAAAAAAAAAAAAAAAAAAAAAAAAAAAAAAAAAAAAAAAAAAAAAAAAAAAAAAAAAAAAAAAAAAAAAAAAAAAAAAAAAAAAAAAAAAAAAAAAAAAAAAAAAAAAAAAAAAAAAAAAAAAAAAAAAAAAAAAAAAAAAAAAAAAAAAAAAAAAAAAAAAAAAAAAAAAAAAAAAAAAAAAAAAAAAAAAAAAAAAAAAAAAAAAAAAAAAAAAAAAAAAAAAAAAAAAAAAAAAAAAAAAAAAAAAAAAAAAAAAAAAAAAAAAAAAAAAAAAAAAAAAAAAAAAAAAAAAAAAAAAAAAAAAAAAAAAAAAAAAAAAAAAAAAAAAAAAAAAAAAAAAAAAAAAAAAAAAAAAAAAAAAAAAAAAAAAAAAAAAAAAAAAAAAAAAAAAAAAAAAAAAAAAAAAAAAADUJhEAAAzjqOqY6vorP49Z+XeHVoes/Dx85efmK/13D6v2EiHAuthSffVK/+6y6mvVOdV5K5+vVWdVZ1ZnVJ+rPlt9QYQAAHueAgQAYPfavzqxOqm6WXWTlc+Nq4PEAzAL51efrD618vMT1QeqU6oLxQMAsHsoQAAANs4+1e2qu1Z36lulx96iAVhKl1Yfrz5Yvat6W/X+lX8PAMA6U4AAAKyffau7Vfev7lHdsTpQLACs4hvVu6s3Vyc3lSKXiAUAYNcpQAAAds2NqodWD6zuUx0sEgB2wXnV66tXV6+qPi0SAICdowABAFibfap7VQ9f+dxQJABsoE9XL1/5vCGPywIA2GEKEACAHXNS9YTqcdXR4gBgDzijemH1/OpD4gAAWJ0CBABg+67fVHo8oTpRHAAM5ENNRcg/VGeJAwDgqhQgAABXdED1xOpJTS80d78EwMi2VK+r/rL61+pikQAATPxBDwAwuU71o9UPNO38AIBFc2b119Wzqy+IAwBYdgoQAGDZ3aX639VDq73EAcAMbKleWT2rOlkcAMCyUoAAAMvqntUvVA/OPREA8/XW6reqf6+2igMAWCb+2AcAlsmm6jHV/1fdRhwALJFTq2dWL6guFQcAsAwUIADAsrh/9StNLzYHgGX1keoZ1ctEAQDMnQIEAJi7+1S/0fSuDwBg8t7q6dXrRAEAzJUCBACYq5s3FR+Pyj0PAGzL1uqfq5+vPikOAGBuDAMAgLk5svr96nurvcQBAFfr0upvq1+sviQOAGAuNosAAJiJzdVPVC9tetyVL3oAwI7Zq7p99eSV//zu6jKxAACLzmAAAJiDm1fPru4lCgDYZe+pfrD6gCgAgEXmsRAAwCI7qHpW9ZGUHwCwXu7Q9JL0Z1eHiAMAWFR2gAAAi+rO1V9XJ4oCADbMp5oejfUGUQAAi8YOEABg0RzY9I3Ut6f8AICNduPq9dVzq4PFAQAsEjtAAIBFcvumAczxogCA3e706vuqN4oCAFgEm0UAACyATdVPVi+ojhIHAOwRh1dPqLZWb1n5CQAwLDtAAIDRHVU9v7qvKABgGO+qHld9WhQAwKi8AwQAGNlDqg+m/ACA0dypen/1WFEAAKPyCCwAYESbqqdXf5MXrgLAqPavvrPpuv3mPBILABiMR2ABAKM5vPqH6qGiAICF8cbqu6ovigIAGIUCBAAYyU2rl1UniAIAFs5/VY+qThEFADAC7wABAEZxv6YXqio/AGAx3bR6e3ZxAgCD8A4QAGAEP1f9XXWgKABgoe1XfU/TEyfeIA4AYE9SgAAAe9I+1Z83FSB2pgLAPGyq7l3doHpVtUUkAMCe4B0gAMCesl/1/OoxogCA2frX6vHVBaIAAHY3BQgAsCdcs/r36s6iAIDZe3f17dWXRAEA7E4KEABgdzu6enV1vCgAYGl8rHpQ9VlRAAC7iwIEANidjq5eW91MFACwdE6r7lt9RhQAwO6gAAEAdpebVK+rjhEFACytL1T3q04VBQCw0fYSAQCwGxxfvTnlBwAsu+s2fSHiRFEAABvNDhAAYKPduHp9yg8A4Fs+1/Q4rE+IAgDYKAoQAGAj3aJ6Q3UdUQAAV/LF6t7VR0UBAGwEBQgAsFFuWL0xOz8AgO37XHWv6lOiAADWmwIEANgI12kqP24uCgDganyyqQQ5SxQAwHpSgAAA6+2wpvLjJFEAADvoI9W3VeeIAgBYL3uJAABYRwdVr075AQCszYlN9xAHiwIAWC8KEABgvexdvbC6sygAgJ1wx+pFTfcUAAC7bLMIAIB18ofVE8UAAOyCm1bXqv5dFADArlKAAADr4WnV/xEDALAO7lhdUL1VFADArvASdABgV31H9bI8WhMAWD9bqkdX/yoKAGBnKUAAgF1x6+ot1SGiAADW2dere1QfFAUAsDMUIADAzjqseld1M1EAABvktKZHYp0tCgBgrTyqAgDYGZurl6T8AAA21o2a7jn2FgUAsFZegg4A7IxnVD8gBgBgN7hhdUD1GlEAAGvhEVgAwFrdr3p1vkgBAOw+W5teiv4vogAAdpQCBABYi+s2vYj02qIAAHazc6vbVqeLAgDYEd4BAgDsqM3Vi1N+AAB7xuHVS6v9RAEA7AiPrgAAdtQvVU8SAwCwB12vOqjpcZwAAKvyCCwAYEfctXpTtbcoAIA9bEv1kOo/RQEArEYBAgBcnSOqD1VHiwIAGMSXqltV/y0KAGB7vAMEALg6f5DyAwAYy7WqZ4sBAFiNd4AAAKt5bPXrYgAABnSL6tPVB0UBAGyLR2ABANtzZPXh6rqiAAAGdXbTo7DOEgUAcGUegQUAbM+fpvwAAMZ2jeqvxQAAbItHYAEA2/KI6tfEAAAsgJtWH68+IgoA4PI8AgsAuLJDqlOqY0QBACyIL1fHV18SBQDwTXaAAABX9hvVg8UAACyQA6vDqleIAgD4JjtAAIDLu031nnxJAgBYPFur+1RvFAUAUAoQAOBbNlVvru4uCgBgQX2kum11qSgAgL1EAACseFzKDwBgsZ1Y/ZAYAICyAwQAmBxQfbQ6VhQAwIL7cnXz6mxRAMBy83xvAKDqF6pHiQEAmIEDq/2qV4sCAJabHSAAwDHVx5t2gQAAzMElTY/D+oQoAGB5eQcIAPDLKT8AgHnZp/oNMQDAcrMDBACW2+2qd+dLEQDAPN2jeqsYAGA5GXYAwHL7pdwPAADz9asiAIDlZQcIACyve1ZvEgMAMHMPqv5TDACwfBQgALC8/rN6gBgAgJl7T3WnaqsoAGC5eOQFACyne6X8AACWwx2qh4sBAJaPHSAAsJxeXT1QDADAknhPdUcxAMBysQMEAJbPXVN+AADL5Q7VQ8UAAMtFAQIAy+dnRQAALKGfFwEALBePwAKA5XJ89ZHcAwAAy+ke1VvFAADLwQ4QAFguP5HyAwBYXk8TAQAsDwMQAFge164+U+0vCgBgSV1YHVt9URQAMH92gADA8vixlB8AwHLbv3qqGABgOdgBAgDL4aDqs9U1RAEALLlzmnaBnCcKAJg3O0AAYDk8IeUHAEDVEdUPiAEA5s8OEACYv72qj1Y3EwUAQDW9F+0m1aWiAID5sgMEAObvISk/AAAu79jqsWIAgHmzAwQA5u/k6n5iAAC4gg9Wt622igIA5skOEACYt9uk/AAA2JaTqvuIAQDmSwECAPP2VBEAAGzXz4oAAObLI7AAYL6Oqk6v9hUFAMB23abpcVgAwMzYAQIA8/WjKT8AAK7OT4kAAObJDhAAmKeDqs9W1xAFAMCqLqluXJ0hCgCYFztAAGCenpjyAwBgR+xT/ZgYAGB+7AABgPnZq/podTNRAADskK9VN6i+KgoAmA87QABgfh6a8gMAYC0OrZ4sBgCYFztAAGB+XlvdVwwAAGvyuepG1cWiAIB5sAMEAObltik/AAB2xvWr7xIDAMyHAgQA5uWpIgAA2GlPz9MyAGA2XNRhfEc0bcO+bnVkdc3qWiufIy/37/a93H/n0Grzlf43AFh8W6r3VG+oPlCdWX25+srKzy0iAlgXezXdY3/zfvvY6ttWPjcXD8BsnHO5f76s+trl/vPFfes++8vVFy/3z1+pPl+dVp0rRhiXAgTGcFR1fFPRcfnPjVNeADCVHc+pXlR9QRwAe9RR1WOq72969CQAy+3spiLkm59Prfw8NffusMcpQGD3OqI6oTqxutXKP9+quoZoANiGN1e/Vr1GFABDul/1jKadIQBwZV+pPlydcrmfH8muEdhtFCCwsW5a3aPpD6J7Nu3oAICrc0b109VLRAGwEB5b/V51jCgA2AGfrN5SvXHl5ydFAhtDAQLr61bVvZvKjns0bY8HgLV4bvUT1VdFAbBQDqv+uHqiKABYo89Xb2oqQ17ftFMEWAcKENg1h1cPqB5UPbi6vkgA2EkXVj/UVIAAsLi+v/rzaj9RALCTzqheXf1HdXK+HAU7TQECa3fb6tubCo+7VJtFAsAu+kL18Oo9ogCYhbtU/1ZdSxQA7KJLq7c3lSGvrD4gEthxChDYsXVy96bn+j66OlokAKyjj1cPrD4rCoBZOa56TXUTUQCwjs6oXtb0vsC3iANWpwCB7bth9d3V46qTxAHABvhkda/qLFEAzNKx1ZvzcnQANsYHqheufD4jDrgqBQhc0QFNOz2eUt3NGgFgA51R3TN/qADM3c2aXmx7HVEAsEG2Vm+t/rJpZ8iFIoGJ4S5Mjm8qPZ5UHSEOADbYedVdq1NEAbAU7li9sekLVwCwkc6unttUhnxUHCw7BQjLbL/qMdUPNX0DFwB2hy3Vd1b/IgqApfK91fPFAMBu9KamIuSl1UXiYBltFgFL6JrVT1f/2LTj41iRALAb/Wb1Z2IAWDofrq5R3VkUAOwmx1aPrp5c7d+0A/0CsbBM7ABhmZxYPb3pxeb7igOAPeB11QOadoEAsHz2aXopuhIEgD3h4upF1TPzOF6WhAKEZXC3ph0fj6z2EgcAe8h51a2r00UBsNSOr97b9E1cANgTLqteVv1e9Q5xMGeGwczZ/aq3VW9t2u7n9x2APennU34AUKdWvyIGAPagzU3vxX1709zsPiJhruwAYY6+rfqN6u6iAGAQb6vumUdfATDZu3pXdVtRADCIk6v/3XR9gtnwjXjm5JbVi6s3pPwAYBxbq59K+QHAt1xaPU0MAAzk/k07Ql5Y3UIczIUChDk4qvqb6sPVY7OzCYCxvCDfogLgqt7Q9Px1ABjFXtV3Vx+p/qq6jkhYdAbFLLL9m75R+wvVIeIAYEAXNH176rOiAGAbblKdUu0rCgAG9LWmx8z/YXWROFhEm0XAgnpM9S8rP/cTBwCD+oumLeQAsC1nV8dUtxcFAAPar+nRWI+vzqg+JhIWjR0gLJrbVM9qetE5AIzskqZv9tr9AcBqblR9vOnF6AAwstdXT60+JAoWhXeAsCgOqZ5dvS/lBwCL4TkpPwC4eqdVfy8GABbAfar3N83oDhYHi8AOEBbBvZtevHQTUQCwILZWJ1QfFQUAO+D4phfO+hsdgEXxierJ1ZtFwcjsAGFkR1Yvbtpep/wAYJG8POUHADvu1OoVYgBggdyselPT7O5IcTAqBQijenj1geqxogBgAT1LBACskWsHAIvosU2Pxfp2UTAi22sZzRFNzxFUfACwqN5Z3UUMAOyEd1Z3EgMAC+ol1VOqc0XBKOwAYST3bGqMlR8ALLI/FAEAO+kPRQDAAvvmbpC7i4JR2AHCCPapfq366WpvcQCwwD7T9N6qS0UBwE7Yu/pUdQNRALDALq1+vWned5k42JM2i4A97Ojqn6onZkcSAIvvN6s3iwGAnbSl2q+6vygAWGB7Vfeu7lq9tjpPJOwpdoCwJz2y+vvqUFEAMANfrY7JzT0Au+aQ6ozqMFEAMANnV99TvVoU7Am+cc+e+r37reqfU34AMB9/nfIDgF13XvU3YgBgJq5RvappFmgWzW5nBwi72xHV86uHigKAGbmkulF1pigAWAdHV6c1vS8RAObiFU2PwT9XFOwuWjd2p1tV70r5AcD8vDTlBwDr58ymdyUCwJw8rGk2eKIo2F0UIOwuD6veUt1EFADM0LNEAMA6c20BYI5u2jQjfIgo2B0UIOwOv1z9W973AcA8vbF6pxgAWGfvqN4kBgBm6LDq35tmhrChNouADbR39ezqaXnfDADz9RPVJ8QAwAY4u3q8GACYoU3VvavrVf9RbREJG/WLBhvh0Ool1QNFAcCMfbQ6odoqCgA2wKbqlOqWogBgxv6j+q7qPFGw3jwCi41wdPXmlB8AzN8fpfwAYONsrf5YDADM3IOr11bXFQXrzQ4Q1tux1cl52TkA83d2dYPqfFEAsIEOqs6ojhAFADP3ier+Tdc9WBd2gLCeTmx6UZ/yA4Bl8KcpPwDYeOc3XXMAYO5uVr2z6THDsC7sAGG93KZ6dXVtUQCwBC5s2vX4RVEAsBtcu/pMtb8oAFgCX2x6tP4HRcGusgOE9XDX6vUpPwBYHv+Q8gOA3eeL1QvEAMCSuHb1huouomBX2QHCrrpv9W9Nz6UFgGWwpTq++rgoANiNTqg+nL/jAVgeX68eUb1OFOwsO0DYFXep/iXlBwDL5bUpPwDY/U5pugYBwLI4uHpZdWdRsLMUIOysOzW98+MQUQCwZJ4pAgD2ENcgAJbNodV/VncUBTvD1ll2xu2bvnl0mCgAWDLvr24nBgD2oPdXtxEDAEvm3Op+1ftEwVrYAcJaHV+9KuUHAMvpD0QAwB7mWgTAMjq8+o+m2STsMDtAWIubV2+sriMKAJbQGdWNq0tEAcAetE91WnW0KABYQp+rvq3pWghXyw4QdtS1qlek/ABgeT075QcAe94lTdckAFhG1296Os2RomBH2AHCjji4aeeHZ54DsKy+Xh3T9NxZANjTjqg+2/S3GgAso/dW96rOFwWrsQOEq7N39aKUHwAst79N+QHAOM6p/k4MACyx2zfNLDeLgtX4BeHq/Hn1ODEAsMQurb4nBQgAY/lY9WP5YiMAy+tm1SHVq0XB9ihAWM1Tq/8tBgCW3D9XfyUGAAZzbnXr6nhRALDE7lqdXb1LFGyLd4CwPQ+t/rXpEVgAsMy+rXqzGAAY0Lc1va8RAJbZpdXDshOEbVCAsC0nVO/IC/UA4O3V3cQAwMDe1vTtVwBYZl+v7lydKgouz7NCubLDqpel/ACAqt8TAQCD+30RAEAHNz2++DBRcHl2gHB5e1X/Uj1cFADQp6qbV5eJAoCBba4+Xt1YFADQv1aPqraKgvISdK7oF6sfFgMAVPXLTY+EBICRfXPA8xBRAEC3qC6o3ioKyg4QvuWh1cvzWDQAqPpKdYPqG6IAYAEcVH2muqYoAKAt1bdX/yEKDLupOrr6e78PAPD//F3KDwAWx/nVc8QAANU043xOdZQosAOEzdUbq7uLAgCquri6YXWWKABYINerPl3tKwoAqOrN1X3yXsel5hv//O+UHwBweS9M+QHA4jmrepEYAOD/uWf1dDEsNztAltvdmnZ/7C0KAKimF8meVH1YFAAsoFtVH8zf+gDwTZc2FSHvEMVysgNkeR1aPT/lBwBc3mtTfgCwuD5cvU4MAPD/7F39Q9MslCWkAFlef9r0fHMA4Ft+TwQALDjXMgC4ohtVzxLDcrItdjk9qvpnMQDAFXysOqHaIgoAFthe1anVzUUBAFfwHdXLxbBc7ABZPkdWfykGALiK30n5AcDi29J0TQMArugvqyPEsFwUIMvnt5tKEADgWz7f9FxYAJiD51dfEAMAXMF1q2eKYbkoQJbLA6rvFwMAXMWfVxeJAYCZuKjp2gYAXNGTq/uJYXl4B8jyOKj6SHWcKADgCs6vblCdLQoAZuRa1WeqA0QBAFfwX9WtqwtFMX92gCyPZ6T8AIBteV7KDwDm50vVc8UAAFdx0+oXxbAc7ABZDidW76v2EQUAXMHW6oTqo6IAYIaOb3oSgL/9AeCKLqpOqj4uinmzA2T+NlV/kfIDALbl5Sk/AJivU6tXiAEArmK/6s/EMH8KkPl7bHV3MQDANv2eCACYOdc6ANi2+1aPFMO82QY7bwdWH6uOEQUAXMU7q7uIAYAl8M7qTmIAgKs4remxyF6IPlN2gMzbz6T8AIDt+UMRALAk/lAEALBNN6p+SgzzZQfIfB3b9EzzA0QBAFfxmeom1aWiAGAJ7F19qrqBKADgKr5e3bw6SxTzYwfIfP1qyg8A2J4/S/kBwPK4NC96BYDtObhplsoM2QEyT7et3uv4AsA2fbXpEZHniQKAJXJIdUZ1mCgA4Cq2VLerPiiKebEDZJ5+JeUHAGzPX6f8AGD5nFf9jRgAYJv2qp4hhvkxJJ+fu1RvFwMAbNMlTS+5O1MUACyho6vTqn1EAQBXsbW6c/VuUcyHHSDz8ysiAIDtemnKDwCW15nVP4kBALZpU/VLYpjfQWU+7l29XgwAsF13aHpPFgAsq9tX7xEDAGzX3fKEndmwA2Re/o8IAGC73pryAwDeW71NDACwXXaBzIgCZD7uWd1XDACwXb8vAgCoXBMBYDUPanrPMjPgEVjz8crqIWIAgG36aHVC00vtAGDZbapOrW4hCgDYpn+rHiGGxWcHyDyclPIDAFbzRyk/AOCbtjZdGwGAbXt4dbwYFp8CZB5+SgQAsF1frv5eDABwBX/fdI0EAK5qU/U0MSw+BcjiO6b6HjEAwHb9eXWBGADgCr5R/YUYAGC7nlBdTwyLTQGy+H682kcMALBNF1Z/IgYA2KY/brpWAgBXtV/T7JUFpgBZbAdXTxYDAGzXi6ovigEAtumL1YvFAADb9ZTqIDEsLgXIYntSdYQYAGCbtlS/KQYAWNVvN70UHQC4qms0PQqLBaUAWWw/JAIA2K5XVx8XAwCs6pSmayYAsG0/KILFpQBZXHeqbi0GANiu3xMBAOwQ10wA2L7bV7cTw2JSgCwuzSMAbN/7q9eKAQB2yMnVB8QAANtlFrugFCCL6dDq8WIAgO36AxEAwJq4dgLA9j2hOkQMi0cBspgeXx0kBgDYpjOqF4oBANbkH6szxQAA23Rw9V1iWDwKkMX0/SIAgO16dnWJGABgTS5puoYCANv2fSJYPJtEsHBuVn1cDACwTV+vjqnOFQUArNkR1WebvuUKAFzVTapPiWFx7C2ChfOdImDFpdXp1X+tfD6x8vMr1YXVBU2DwEuqc8QFAABcjXPyfHNguRxR7dNU/B5Q7V8dWd206UvIN135HJs5KpNHVb8rhsVhB8ji+XB1ohiW0teqN1VvqU6uPthUggAAAACwcfauTqruv/K5e1NhwvJ5f3U7MSwOBchiuXn1MTEslYuqV1bPq/6zOl8kAAAAAHvUwdWDqidUD632FclS8Rgs2CDPqLb6LMXnLdUPNW3FBAAAAGBM16h+uHpr5lnL8vkFv/awMT7mBDPrzyXVc6tb+VUHAAAAWDi3bprtXJI515w/H/KrDuvvBCeXWRcfz6mO92sOAAAAsPBOSBEy98/N/Jovhr1EsDAeIYJZemV1y+r7qlPFAQAAALDwTqme1DTzeZU4ZsmsFtbZm9OszulzWvVwv9YAAAAAs/fw6tOZh83p8zq/1rB+DqsudmKZzecvqkP8WgMAAAAsjUOrv8pcbC6fC6uD/VqPzyOwFsODq33EsPDOrr6j+uHqPHEAAAAALI2vVT9YPbI6RxwLb7/qgWIYnwJkMTxEBAvvrdVtqpeLAgAAAGBp/WvTjOjtolh4ZrawDjZVZ2Vb2SJ//qGpFQYAAACAqv2rF2Vutsifz/o1hl13WyeThf78QXZaAQAAAHBVe1V/nPnZIn9O9Gs8/iJjbPcRwULaUv149VMr/wwAAAAAl/fN+dFPZn60qMxuB6cAGd9dRLBwtlY/Uv2JKAAAAAC4Gn9U/a+mmRKL5a4igF3zhWwlW7TPj/q1BQAAAGCNfiZztUX7fM6vLey8mziJLNznt/zaAgAAALCTfjfztUX7HOfXdlwegTU2W6gWywuq/08MAAAAAOykp1cvEcNCMcMdmAJkbPcUwcJ4R/V9eWEVAAAAADtvS/XE6n2iWBhmuANTgIxNe7gYvt5UflwiCgAAAAB20UVNJcg3RLEQ7iaCcSlAxnVwdbwYFsL/rD4uBgAAAADWyalNMyfGd2J1oBjGpAAZ1/GOz0J4Xp7LCAAAAMD6e1H1QjEMb3N1SzGMyYB9XLcVwfDOqn5MDAAAAABskB+tviiG4d1GBGNSgIzr1iIY3tOrr4kBAAAAgA1yTvVzYhieWe6gFCAWDTvnddU/iAEAAACADfb31RvEMDSz3EFtEsGwx+Xs6nBRDOnS6vbVh0QBAAAAwG5wu+pdTe+bYDxfqY4Uw3jsABnTcSk/Rva8lB8AAAAA7D7vq/5RDMO6ZnWMGMajABnTLUUwrK3V74sBAAAAgN3sd5tmU4zJTHdACpAx3VgEw/qX6iNiAAAAAGA3+2D1CjEMy0x3QAqQMR0ngmH9pggAAAAA2EN+XQTDuqEIxqMAGdNxIhjSO6t3iwEAAACAPeSd1XvEMKRjRTAeBciYbiSCIf2dCAAAAADYw54jgiGZ6Q5okwiGdG51mBiGclF1VHWOKAAAAADYg46szqr2EcVQvrJybBiIHSDjOSLlx4hemfIDAAAAgD3vy9WrxTCca1aHimEsCpDxeFbcmP5RBAAAAAAM4oUiGJLZ7mAUIOM5SgTDuaR6lRgAAAAAGMQrqsvEMByz3cEoQMbjOXHjeV/1dTEAAAAAMIivVh8Uw3DMdgejALFIuHpvFAEAAAAAg3mDCIZjtjsYBch4rimC4ShAAAAAABiNmdV4zHYHowCxSFjdluptYgAAAABgMG+ptophKGa7g1GAjMc2qbF8pjpXDAAAAAAM5uzqDDEMxWx3MAoQi4TVfUIEAAAAAAzK7GosZruDUYCM53ARDOWTIgAAAABgUGZXYzlcBGNRgIxnPxEM5eMiAAAAAGBQZldj2V8EY1GAjEcBMhYtOgAAAACjMrsay74iGIsCxCJhdV8WAQAAAACDMrsaiy+3D0YBMh4FyFi+LgIAAAAABmV2NRYFyGAUIBYJq3MRAQAAAGBU54lgKL7cPhgFiEXC6s4XAQAAAACD8uXdsZjtDmaTCIZzabVZDMPYt7pEDAAAAAAMaN/qIjEM47JqbzGMQwEynq0isEYAAAAAYAeZJ47FPHEgHoEFAAAAAADMjgIEAAAAAACYHQUIAAAAAAAwOwoQAAAAAABgdhQgAAAAAADA7ChAAAAAAACA2VGAAAAAAAAAs6MAAQAAAAAAZkcBAgAAAAAAzI4CBAAAAAAAmB0FCAAAAAAAMDsKEAAAAAAAYHYUIAAAAAAAwOwoQAAAAAAAgNlRgAAAAAAAALOjAAEAAAAAAGZHAQIAAAAAAMyOAgQAAAAAAJgdBQgAAAAAADA7ChAAAAAAAGB2FCAAAAAAAMDsKEAAAAAAAIDZUYAAAAAAAACzowABAAAAAABmRwECAAAAAADMjgIEAAAAAACYHQUIAAAAAAAwOwoQAAAAAABgdhQgAAAAAADA7ChAAAAAAACA2VGAAAAAAAAAs6MAAQAAAAAAZkcBAgAAAAAAzI4CBAAAAAAAmB0FCAAAAAAAMDsKEAAAAAAAYHYUIAAAAAAAwOwoQAAAAAAAgNlRgAAAAAAAALOjAAEAAAAAAGZHAQIAAAAAAMyOAgQAAAAAAJgdBQgAAAAAADA7ChAAAAAAAGB2FCAAAAAAAMDsKEAAAAAAAIDZUYAAAAAAAACzowABAAAAAABmRwECAAAAAADMzt4iABbIVhEMZZMIAGbpkOra1TVWPkdc7p+/+Tmw2r86YOWzf3VQtW91cLXPTv7/fUn19eri6vzqwuqClc+FK//unOrsK32++e++WJ3nEAIAAGV4NSIDXmsE68P6AGC9baquW92gOro6pqnkuG51rZV/Pmrln/df8P9bL6y+VH2+qRD5UvWFlX8+43KfL+TeAgCYB/c0YzEvcTBYhROWNYL1YX0AsFabqutXN6puvPLz2KbC45im0mNfMV3BRdWZK5/PVqdXp13u87ncewAAi8E9y1jMSxwMVuGEZY1gfVgfAGzP4dWJ1QnV8dVNmsqOG1b7iWddXVh9uqkM+VR1avWR6pTqXPEAAAMxLxmLeYmDwSqcsKwRrA/rA4B9m4qOk5qKjls1lR5Hi2YIZzQVIh9uKkQ+1FSOXCwaAGAPMC8Zi3mJg8EqnLCsEawP6wNguVy3umN1+8t9jhLLQvp89d7Lfd7d9K4RAICNZF4yFvMSB4NVOGFZI1gf1gfAfO1d3bq6y8rnztVNc06dq63Vf1XvqN5Zvb1p18ilogEA1pF5yVjc2zsYrMIJyxrB+rA+AObjmtU9q7s2FR53qA4Uy1I7v3pPUyny9urN1dliAQB2gXnJWMxLHAxW4YRljWB9WB8Ai+vY6kHVPaq7N72gHK7OadVbq7dUr64+IxIAYA3MS8ZiXuJgsAonLGsE68P6AFgch1b3ru5X3afpxeXOj+yKLU0vVH9DdfLKz/PEAgCswrxkLP4ecDBYhROWNYL1YX0AjGv/pt0d968eXh0vEjbYlur9TWXIyU2PzLpILADA5ZiXjMW8xMFgFU5Y1gjWh/UBMJajq4dWD67uWx0mEvagc6rXV6+qXlmdJRIAWHrmJWMxL3EwWIUTljWC9WF9AOxZm5teWP7tTcXHSSJhUFurDzQVIf9evau6TCwAsHTMS8ZiXuJgsAonLGsE68P6ANj9DmwqPB7Z9BLza4qEBfTlppeov6xph8g3RAIAS8G8ZCzmJQ4Gq3DCskawPqwPgN3jsOoR1WOrB1T7iYQZuah6TfWS6l+rr4oEAGbLvGQs5iUOBqtwwrJGsD6sD4CN882dHo9d+XmgSFgC51evaCpDXlldIBIAmBXzkrGYlzgYrMIJyxrB+rA+ANbXwdWjs9MDqi6sTm4qQ/6pqRwBABabeclYzEscDFbhhGWNYH1YHwC7bt+md3k8sXpYdYBI4CouaNoZ8rymd4dcLBIAWEjmJWMxL3EwWIUTljWC9WF9AOy8m1c/UD2hOkocsMPOaipC/rb6hDgAYKGYl4zFvMTBYBVOWNYI1of1AbA216h+sHpSdbw4YJe9t6kMeV51tjgAYHjmJWMxL3EwWIUTljWC9WF9AOyYOzTt9nh8dZg4YN19tXpB9dfV+8QBAMMyLxmLeYmDwSqcsKwRrA/rA2D7rlk9ufqf1c3EAbvNx6u/aypDviIOABiKeclYzEscDFbhhGWNYH1YHwBXdf/qKdV3VPuJA/aYC6uXV39ZnSwOABiCeclYzEscDFbhhGWNYH1YHwCT/Zoeb/XD1Z3FAcN5R/UX1Quri8QBAHuMeclYzEscDFbhhGWNYH1YH8CyO7Z6WvV91aHigOF9rXpO9XvVZ8UBALudeclYzEscDFbhhGWNYH1YH8Cyukf1c9VDq73EAQtnS/XK6reqt4oDAHYb85KxmJc4GKzCCcsawfqwPoBlsqn69qYdH/cRB8zGa6vfr16VezgA2GiutWMxL3EwWIUTljWC9WF9AMtg/+qHqp+obiQOmK1PVX/c9K4Q7wkBgI1hXjIW8xIHg1U4YVkjWB/WBzBnB1Y/Xj21uq44YGl8tmlHyF9V3xAHAKwr85KxmJc4GKzCCcsawfqwPoA5Oqhpx8dPV9cTByytM5telv6XKUIAYL2Yl4zFvMTBYBVOWNYI1of1AczJNaqnVz9aHSIOYMV51Z9Vz6zOEQcA7BLzkrGYlzgYrMIJyxrB+rA+gDm4bvUL1f+sDhYHsB3nVX9X/Ub13+IAgJ1iXjIW8xIHg1U4YVkjWB/WB7DIrlH9ZNPLzQ8XB7CDzqmetfI5VxwAsCbmJWMxL3EwWIUTljWC9WF9AIvo8Ornqx9ret8HwM44v/qT6jerr4oDAHaIeclYzEscDFbhhGWNYH1YH8AiOaBpt8fTm3Z/AKyHr1S/U/1RdYE4AGBV5iVjMS9xMFiFE5Y1gvVhfQCLYO+m93s8o7q+OIANcmb1a9XfVpeKAwC2ybxkLOYlDgarcMKyRrA+rA9gdA+ofre6tSiA3eQD1U9XrxMFAFyFeclYzEsGspcIAADYQSdVr63+M+UHsHvdpun8c3LOPwAA7CAFCAAAV+c61XOr91X3FQewB92ven/TOek64gAAYDUKEAAAtmef6serU6on5t4RGMNeTeekj1Q/2vROIgAAuArPIxuPZ/ZZI1gf1gcwgsdWv1ndWBTA4P6r+qnq30UBwJIyLxmLeYmDwSqcsKwRrA/rA9iTjq+eVd1fFMCCeUX11OpTogBgyZiXjMW8ZCAeYwAAQNWhTcXHB1J+AIvpYdVHm85lh4gDAABt1Hg0ttYI1of1Aexuj6j+sDpOFMBMnFb9ZNOuEACYO/OSsZiXOBiswgnLGsH6sD6A3eVm1V9U9xEFMFOvbHpR+mdEAcCMmZeMxbxkIB6BBQCwfPatfrnpcVfKD2DOHlqdWv1ctVkcAADLRRs1Ho2tNYL1YX0AG+nO1V9WtxYFsGQ+WD2lepcoAJgZ85KxmJcMxA4QAIDlsH/1m9WbU34Ay+mk6i3Vr1X7iQMAYP60UePR2FojWB/WB7DeHtC06+M4UQBU9emm3SAniwKAGTAvGYt5yUDsAAEAmK9rVC+u/jPlB8Dl3bDp3PjcpnMlAAAzpAABAJinR1enVI8VBcA2baqeWH2kepQ4AADmRwECADAvh1R/Xb20uq44AK7WUdU/NT0q8GBxAADMh+eRjccz+6wRrA/rA9hZD63+JsUHwM46o/q+6nWiAGCBmJeMxbxkIHaAAAAsvoOqZ1evSPkBsCuOaXox+rOrA8UBALDYtFHj0dhaI1gf1gewFrevnlfdUhQA6+rU6gnV+0UBwODMS8ZiXjIQO0AAABbTpuqp1VtSfgBshOOrt1b/K4MMAICF5CZuPBpbawTrw/oArs71qudX9xEFwG7x2uqJ1edFAcCAzEvGYl4yEDtAAAAWy7dXH0j5AbA73a/p3PsQUQAALA4FCADAYti3elb18upa4gDY7a5d/XvTuXhfcQAAjM92nPHYsmaNYH1YH8CVHVO9oLqHKACG8MamF6SfKQoABmBeMhbzkoHYAQIAMLbHVB9J+QEwkntVp1SPFgUAwLgUIAAAY9qn6TErL64OFQfAcA6tXtp0rt5HHAAA47EdZzy2rFkjWB/WB3C96oXVPUUBsBDeWD2++rwoANgDzEvGYl4yEDtAAADGcv/qAyk/ABbJvZrO3fcVBQDAOBQgAADj+OHq36triQJg4Vy7emX1ZFEAAIzBdpzx2LJmjWB9WB+wfA6s/rrp8SkALL5/qH6wukAUAOwG5iVjMS9xMFiFE5Y1gvVhfcByObZ6WXVbUQDMyvuqR1WfFQUAG8y8ZCzmJQPxCCwAgD3nPtV7Un4AzNHtms7x9xIFAMCeoQABANgzntT0rPgjRQEwW9eqXlV9rygAAHY/BQgAwO61d/Xs6u+r/cUBMHsHVM+vnpW/wQEAdivPIxuPZ/ZZI1gf1gfM16HVi6sHiQJgKb2qelz1NVEAsI7MS8ZiXuJgsAonLGsE68P6gHk6tnp5dStRACy1D1UPz8vRAVg/5iVjMS8ZiO23AAAb707VO1J+AFC3brom3EEUAAAbSwECALCxHlq9trquKABYcVTTteGBogAA2DgKEACAjfO/qn+rDhYFAFdyaPXK6kdEAQCwMRQgAADrb6/qWdWfVJvFAcB2bK7+rPqtPC8cAGDducEaj5cWWSNYH9YHLLZvDrOeIgoA1uDPqx+vLhMFAGtkXjIW8xIHg1U4YVkjWB/WByyuQ6t/ru4nCgB2wsnVd1ZfEwUAa2BeMhbzEgeDVThhWSNYH9YHLKZrVK+o7ioKAHbBW6uHVeeKAoAdZF4yFvMSB4NVOGFZI1gf1gcsnhtX/1ndSBQArIOPVQ+szhAFADvAvGQs5iUD8RJ0AIBdc6vqzSk/AFg/t6jeUt1cFAAAO08BAgCw8+5avbE6ShQArLMbVG+r7iIKAICdowABANg5D6peUx0hCgA2yDWarjUPFAUAwNp5Htl4PLPPGsH6sD5gfA+o/rU6QBQA7AbfqB5evU4UAGyDeclYzEsGYgcIAMDaPKp6RcoPAHafA6tXVY8UBQDAjlOAAADsuEdXL6r2FQUAu9m+TdegR4sCAGDHKEAAAHbME6oXV/uIAoA9ZN+ma9H3igIA4OopQAAArt4Tq+dUm0UBwB62ufr7pmsTAACr8EKW8XhpkTWC9WF9wFgeXb0wOz8AGMsl1XdXLxMFwNIzLxmLeclA7AABANi+x+exVwCMaZ/qJdXjRAEAsG3aqPFobK0RrA/rA8bwuOr5eewVAGO7pPqu6l9EAbC0zEvGYl7iYLAKJyxrBOvD+oA97xFN36q18wOARXBx9djq30QBsJTMS8ZiXjIQj8ACALiih+exVwAsln2bivtvFwUAwLdoo8ajsbVGsD6sD9hz7ln9R3WgKABYQOdXD6zeJgqApWJeMhbzEgeDVThhWSNYH9YH7Bl3r/4z5QcAi+286r7Ve0QBsDTMS8ZiXuJgsAonLGsE68P6gN3vNtXrq8NFAcAMfLm6V3WqKACWgnnJWMxLHAxW4YRljWB9WB+we92oenN1PVEAMCOfa3q046dFATB75iVjMS8ZiJegAwDL7HrVa1J+ADA/12+6xh0lCgBgWSlAAIBldWj1iqYdIAAwRzeu/q06WBQAwDJSgAAAy2j/6uXVbUUBwMzdoemat58oAIBl43lk4/HMPmsEgI21qfr76omigB3y9eor1X+v/Pzy5X5+ufrSys/zL/ff+Wq1ZeWfL6wu2M7/9gFNhWRNX8467HL/bwdVR1bXWvlcc+U/f/PntVf+2TfbYcf8XfUD+ZsTYI6c28dinjiQvUUAACyZX0/5AZf3her07Xw+01RgbJRz1uF/Y//quFU+13GIoarvr86sniEKAGBZaKPGo7G1RgDYOD9S/ZkYWEIXVadUH1n5nFJ9uqnkuGDm/7cfUN1w5XNCdeLK5/g8Eojl9JTqr8QAMCvmiWMxT3QwWIUTljUCwMZ4RPVP1WZRMGNbmoqNDzUVHR9e+XyyulQ8V7B3ddPqViufE1d+3jDvSmTeLq0eWf27KABmwzxxLOaJDgarcMKyRgBYf7ev3lQdKApm5tzq7Suft1XvbHpnBzvvkOrO1d2qu658DhMLM/P16p7VB0QBMAvmiWMxT3QwWIUTljUCwPq6UdNQ+EhRsOAuqd5Vvbd6S/XW6iyx7BbXq+5e3WPl522zS4TF94XqTtUZogBYeOaJYzFPdDBYhROWNQLA+jmwaefH7UXBgvpc9aqVz5uqL4tkCNeq7lU9ZOVzlEhYUO9e+V2e+7uAAObOPHEs5okOBqtwwrJGAFgfm6uXNw0nYVFcWJ288rt7cnWaSBbCjar7Vw+vHpCXq7NYXll9R3WZKAAWlnniWMwTHQxW4YRljQCwPn6j+gUxsAC+0Ld2ebym6b0eLK4jmkqQb+4OuY5IWAD/t/o/YgBYWOaJYzFPdDBYhROWNQLArnti9VwxMLDPVv9UvbR6R7VFJLO0V9PL1B9TfWd1tEgY1NbqCdULRAGwkMwTx2Ke6GCwCicsawSAXfNtTY8O2kcUDObU6iUrn1PEsZROqB5bfVd1S3EwmIua3gfyTlEALBzzxLGYJzoYrMIJyxoBYOcdXb0nj5xhHG9tep/HK1J6cEXfLEMeWx0vDgbxheoO1edEAbBQzBPHYp7oYLAKJyxrBICds2/1uuruomAPO796cfVX1dvFwQ64R/WDTWXIAeJgD3tTdf/qElEALAzzxLGYJzoYrMIJyxoBYOc8t+ndH7AnbK1eW/1l046PC0XCTti/enj1lKYBNOwpz63+hxgAFoZ54ljMEx0MVuGEZY0AsHY/Wf2hGNgDvlz9TfWc6mPiYB3dsmkA/QPVkeJgD/ix6k/FALAQzBPHYp7oYLAKJyxrBIC1uUv1xqZHYMHu8v7qz6oXVl8XBxvokOrx1Y9WJ4mD3eii6p7Vu0UBMDzzxLGYJzoYrMIJyxoBYMddr3pfXnrO7nFp9Y/Vs6r3ioM94PZNO96+p9osDnaDM6vbVV8SBcDQzBPHYp7oYLAKJyxrBIAds3f1mureomCDnd/0mKtnVaeJgwHcqKkIeXJ1oDjYYK+rHlhdJgqAYZknjsU8cSB7iQAAWFC/kvKDjXVm9dTq+k3DZuUHozht5Xfyeiu/o58TCRvovtX/EQMAsIi0UePR2FojAFy9B1avypc52BifqX676cXm3xAHC+Dg6vurn62OEQcb4LKma+/rRAEwJPPEsZgnOhiswgnLGgFgdUc3vYD6SFGwzs6sfr362+picbCA9qt+sPqFpt0hsJ7+u+l9IGeJAmA45oljMU90MFiFE5Y1AsD27Vu9pbqjKFhHn6p+tekF55eIgxnYp3p89UtN7wuB9fLO6p45VwKMxjxxLOaJA/HYCABgkfxqyg/Wz+eqH6puWT03Az3m45KV3+lbrvyO+8Y+6+XO1TPEAAAsCm3UeDS21ggA2/aw6t9ybmbXnVX9StM7PjzqimWwb/V91S9XR4mDXbSlelB1sigAhmGeOBZ/szoYrMIJyxoB4KquVX0gz7Rn11xc/VH1f6uvioMldHjTt/d/rOkxWbCzzqhuW31FFABDME8ci3niQDwCCwAY3ebqxSk/2Hlbq+dVN65+NuUHy+vc6mkra+F5GZaw846pnp8BDwAwOAUIADC6n6zuLQZ20oerB1RPqs4UB1TTt/efVD2kOlUc7KQHN+0mAgAYlm9rjMe3sKwRAL7ljtXbqr1FwRp9tvqZ6qW5v4LV7FU9oXpmdV1xsEYXNb0Y/YOiANij3O+OxTxxIHaAAACj2q/6q5QfrM0l1e9XJ1UvyR+DcHW2VM+tTqj+uLpUJKzBftXf5J0yAMCgFCAAwKh+s2mIDTvq5Or46qeb3nUA7Lizq59YWUOvFwdrcPvq18UAAIzIdpzx+JaiNQJA3bd6Tb6swY75clPp4aXOsD42VU+s/qC6hjjYAVuq+1VvEAXAHuEeeCzmiQ4Gq3DCskYAlt0RTS+uvr4o2AHPq362+m9RwLq7bvXbTWUIXJ3Tm3Zufk0UALudeeJYzBMH4luVAMBofiflB1fvrOox1ZNSfsBG+cLKGnvcyj/Dao5ruoYDAAxDGzUeja01ArDMHlj9R86/bN+W6i+rn6++Kg7YbY6onlk9Oedotm9r9YDqtaIA2K3ME8fiXsnBYBVOWNYIwLI6ovpIdT1RsB2fqp5QvUMUsMfctfqH6oaiYDs+V51YnSsKgN3GPHEs5okD8QgsAGAUv53yg+17fnW7lB+wp729um31AlGwHdevflMMAMAItFHj0dhaIwDL6EHVq3Le5arOrZ5SvUQUMJwnVX9aHSwKrmRr02MtTxYFwG5hnjgWf9c6GKzCCcsaAVg2h1Qfro4VBVfylqZHXn1GFDCsGzbt0LqbKLiST1e3rr4uCoANZ544FvPEgXgEFgCwp/1yyg+uaEv1u9X9Un7A6D69slb/MMMXruiG1S+KAQDYk7RR4/FHgzUCsExuV72r2iwKVvx3064Pj02BxfPg6rnVtUTBikur21cfEgXAhjJPHIt5ooPBKpywrBGAZbG56YXWdxAFK95ePbb6nChgYd2geml1R1Gw4p1Nj0jbIgqADWOeOBbzxIF4BBYAsKc8LeUHk63VM6t7pvyARffZpmH3M0XBijtXPyEGAGBP0EaNR2NrjQAsgxs1vfj8QFEsva9VT6r+VRQwO4+v/qo6SBRL7xvVCdXpogDYEOaJYzFPHIgdIADAnvCnKT+oj1Z3SvkBc/WPTbtBPiWKpXdg07UfAGC3UoAAALvbI5telMtye3XTI68+LgqYtQ9Vd61eK4ql99DqYWIAAHYn23HGY8uaNQIwZwdWp1bHimKp/Vb1i9VlooClsXll7f+MKJbaaU2PwrpQFADryjxxLOaJA7EDBADYnZ6R8mOZXVh9V/ULKT9g2VxW/Wz1fdXF4lhaN6r+txgAgN1FGzUeja01AjBXt6g+WO0riqX0peoR1dtFAUvvvtU/VYeLYildXN2q+oQoANaNeeJYzBMHYgcIALC7/HHKj2X1iaZ3ACg/gKrXVXevThfFUtq36Z4AAGDDKUAAgN3h0dX9xbCU3lzdrfqUKIDLObW6Y/VWUSylB1YPFwMAsNFsxxmPLWvWCMDc7F99pLqxKJbOy6vHV+eLAtiOQ6oXVQ8RxdL5RNOjsLwTBmDXmSeOxTxxIHaAAAAb7akpP5bRn1SPSvkBrO686juqZ4ti6dys+nExAAAbSRs1Ho2tNQIwJ0c1fcPzYFEslZ+vnikGYI1+rvotMSyV85qKkC+IAmCXmCeOxTxxIHaAAAAb6VdTfiyTLdWPpPwAds4zqx/LEGeZHFL9khgAgI2ijRqPm31rBGAuble9O1+4WBaXVt9fPV8UwC76weovcv1YFpdVt2l6XxgAO8c8cSzmiQNxQwkAbJTfyb3Gsrik+t6UH8D6+Kumc8ololgKm6vfFgMAsBG0UePR2FojAHPw0OrfxbAULqwe43gDG+Bh1Uuq/UWxFB5cvVoMADvFPHEs5okOBqtwwrJGABbdXtV7mx5nwbwpP4CN9vDqxSlBlsF7qzvmb2KAneHcORbzxIF4LAUAsN6+O+XHMrig6dvZyg9gI728+o6mwpV5u31TqQ4AsG60UePR2FojAItsv+pj1XGimLULm8qP14oC2E3u31SG2Akyb/9VnZD3vwCslXniWMwTB2IHCACwnp6c8mPuLqoemfID2L1Orh6Xwfjc3bT6fjEAAOtFGzUeja01ArCoDmr65uZRopitS5secfbPogD2kMdUL6w2i2K2zmoqQr4hCoAdZp44FvPEgdgBAgCslx9P+TFnW6ofSPkB7FkvbdptaNAzX9erfkQMAMB60EaNx428NQKwiA6tTquuKYrZ+tnqd8UADOIXqt8Qw2z9d3Xj6nxRAOwQ88SxmCcOxA4QAGA9PC3lx5z9VMoPYCy/WT1DDLN1neonxQAA7Cpt1Hg0ttYIwKI5tPp0dQ1RzNKzqqeKARjUn+VxSXP1pepG1ddFAXC1zBPHYp44EDtAAIBd9bSUH3P1/KbdHwCj+rHqn8QwS9fKLhAAYBdpo8ajsbVGABbJNZre/XGYKGbnddVDqotFAQzugOrk6m6imJ1zqxuu/ARg+8wTx2KeOBA7QACAXfGTKT/m6OPVY1N+AIvhguo7qk+IYnYOb9rlAwCwU7RR49HYWiMAi+IaTe/+OFQUs/Lf1V1Xji3AIrlx9bbq2qKYlXOzCwTg6pgnjsU8cSB2gAAAO+uHU37MzYVNOz+UH8Ai+lT1uOxem5vDq6eIAQDYGdqo8WhsrRGARXBw9Zm8/HxOLqseWb1CFMCCe2z1wnzhb06+WB3X9LgzAK7KPHEs5okDcUMIAOyM/5HyY26ekfIDmIeXVL8mhlm5dvVEMQAAa6WNGo/G1hoBGN2+TY8ZOVoUs/G86kliAGZkU/Xi6jGimI1PVzerLhUFwFWYJ47FPHEgdoAAAGv1+JQfc3JK9aNiAGZma/U/q4+KYjZuWH2XGACAtdBGjUdja40AjGyvpoH5LUQxC1+t7lR9QhTATN28end1iChm4UPVbfJ3M8CVOS+OxTxxIHaAAABr8eCUH3Pyoyk/gHn7ePUTYpiNW1f3FwMAsKMUIADAWvysCGbjd6sXiAFYAs+p/kgMs+FeBADYYbbjjMeWNWsEYFS3qd4vhll4Q/WAvEgWWB77VK+t7imKWTip6XFYAEzME8dinjgQO0AAgB3lESLz8Lnqu1N+AMvlkqYXaH9eFLPwYyIAAHaENmo8GltrBGBE16zOqA4QxULbUj2oOlkUwJJ6aPWK3OcvuvOrG1RniwKgMk8cjfuMgdgBAgDsiB9N+TEHv5XyA1hur6x+XwwL76Dqh8UAAFwdbdR4NLbWCMBo9q1Or44SxUJ7Z3WPPPoKYL/q7dVtRbHQzqpuWF0sCgDzxMGYJw7EDhAA4Oo8OuXHovtG9f0pPwCqLqr+R3WhKBba9apHigEAWI0CBAC4Oj8ugoX3E9VHxQDw/3y4epoYFp57FABgVbbjjMeWNWsEYCS3q94rhoX2oupxYgDYpn+pHiGGhXZS9SExAEvOPHEs5okDsQMEAFjNU0Sw0D6bl8QCrObJ1efFsNBc5wCA7dJGjUdja40AjOKQ6szqUFEspK3VQ6pXiwJgVQ+r/i33/ovqq9X1q/NFASwx88SxuKcYiB0gAMD2fF/Kj0X25yk/AHbEK6q/EcPCOqx6khgAgG3RRo1HY2uNAIxgU3VKdUtRLKQzqxOqr4kCYIcc1nTdu74oFtKHmt4FArCszBPHYp44EDtAAIBtuWvKj0X2tJQfAGvx1erpYlhYt67uJAYA4MoUIADAtjxZBAvrn6qXiAFgzV5Q/asYFpZ7FwDgKmzHGY8ta9YIwJ52SPX56iBRLJxzquOrL4gCYKdcrzq16ZFYLJavVUdV3xAFsITME8dinjgQO0AAgCt7bMqPRfVzKT8AdsVZ1S+KYSEdWj1GDADA5WmjxqOxtUYA9rQ3V/cQw8J5XXX/3EsA7Kq9qjdVdxfFwnlDdR8xAEvI3wBjMU90MFiFE5Y1ArAn3aL6qBgWzoXVSdUnRAGwLm5RfaDaTxQLZWt10+pTogCWjHniWMwTB+IRWADA5X2vCBbSs1J+AKynj1V/LoaFs6l6ghgAgG/SRo1HY2uNAOwpm6pPV8eKYqF8obpZdZ4oANbVEU3l8pGiWCifatoF4m9rYJk4543FPHEgdoAAAN/0bSk/FtHTU34AbIRzql8Qw8K5cXU3MQAApQABAL7le0SwcN5ZPV8MABvmb6v3iGHhPF4EAEDZjjMiW9asEYA9Yb/q802P+2AxbG36hus7RAGwoe5WvSV/GyySL1XXry4RBbAkzBPH4p5hIHaAAABVD0r5sWj+IeUHwO7wtuolYlgo16oeIAYAQAECAJTHXy2a86ufFwPAbvMz1TfEsFA8BgsAUIAAAB1SPVwMC+WZ1efEALDbnFH9nhgWyqOqg8UAAMtNAQIAPLQ6UAwL4/PV74sBYLf7naZ3S7AYDqoeKAYAWG4KEADgu0SwUH696RFYAOxe51W/IYaF4h4HAJacN9KPZ6sIrBGA3eig6ovZAbIoTq9uXl0sCoA9Yv/qv6qjRbEQvl5du7pAFMDMmSeOxTxxIHaAAMBye0jKj0XyWyk/APakC5vew8RiOLh6kBgAYHkpQABguX2nCBbGadXfigFgj/vLph15LAb3OgCwxBQgALC8DqgeJoaF8RvVJWIA2OMuzi6QRfLwaj8xAMByUoAAwPJ6QNOjIRjfJ6rniAFgGH9TfVoMC+Gw6v5iAIDlpAABgOX1HSJYGL9dXSYGgGFc0nRuZjE8XAQAsJy8kX48W0VgjQDsBntVn6+uLYrhfaw6MQUIwGj2qT5a3VgUw/t8df38vQ3Ml/PbWMwTB2IHCAAsp9un/FgUf5DyA2BElzSdoxnfUdVtxAAAy0cBAgDL6REiWAifr/5eDADD+tvqS2JYCO59AGAJKUAAYDl5FvZi+LPqIjEADOuC6s/FsBAeJgIAWD6eRzYez+yzRgA22nHVp8UwvPOrG1RniwJgaNeuTq8OEMXQtlbHVJ8TBTBD5oljMU8ciB0gALB8vl0EC+G5KT8AFsEXq+eLYXibqoeKAQCWiwIEAJbPg0QwvK3VH4sBYGH8Ub59uwjcAwHAklGAAMBy2a+6rxiG92/VR8UAsDA+Ur1SDMO7f7W3GABgeShAAGC53LU6SAzD+z0RACwc5+7xHVbdSQwAsDwUIACwXO4nguG9r3qzGAAWzuurD4pheO6FAGCJKEAAYLk8WATD8+4PgMX1JyIYnnshAFgim0QwHC/Os0YANsq1qi/kCxAjO7e6XnWBKAAW0sHV56pDRTGsy5ruic4RBTAj5oljMU8ciAEIACyP++baP7p/TPkBsMi+Xr1IDEPbXN1HDACwHAxBAGB53FsEw/s7EQAsvOeIYHgKEABYEgoQAFge9xXB0N5XvVsMAAvvbdUHxDA0BQgALAkFCAAsh+tVNxPD0P5KBACz8bciGNrx1bXFAADzpwABgOVwTxEM7fzqBWIAmI3nVd8Qw7A2VfcQAwDMnwIEAJbDt4lgaC+uviYGgNk4t3qZGIZ2LxEAwPwpQABgOdgBMjYvPweYH+f2sdkBAgBLYJMIhrNVBNYIwDq7dvWFnNNG9cnqpmIAmJ1N1aerY0UxpC3VkdU5ogBmwDxxLP72HogdIAAwf3fNDdjI/kUEALO0Nef4ke3VdI8EAMyYAgQA5u9uIhjaP4oAYLZeKIKh3V0EADBvChAAmL+7iGBYn6zeJwaA2XpndboYhuUeCQBmTgECAPO2d3UHMQzrJSIAmLWt1T+JYVh3rDaLAQDmSwECAPN26+pAMQxLAQIwf8714zqkOkEMADBfChAAmLc7i2BY/1W9XwwAs/euPAZrZB6DBQAzpgABgHlTgIzLN4IBlsPWnPNHpgABgBlTgADAvN1JBMP6ZxEALA3n/HG5VwKAGdskguFsFYE1ArBODq6+mi88jOj06oZiAFgam6ozquuLYjiXVYdV54sCWGDmiWMxTxyIgQgAzNdtc60f1StFALBUtubcP6rN1UliAIB5MhQBgPm6nQiG9WoRACwd5/5xuWcCgJlSgADAfN1WBEO6qHqtGACWzmuqS8QwJPdMADBTChAAmC/fZhzTW/KccYBl9LXqHWIYkgIEAGZKAQIA83RAdUsxDMkjUACWl2vAmE6o9hUDAMyPAgQA5unEam8xDOk/RACwtFwDxrRvUwkCAMyMAgQA5ulWIhjS56uPiAFgab2/+pIYhnSiCABgfhQgADBP/ogf0yurrWIAWFpbsgtkVO6dAGCGFCAAME/e/zGm14gAYOm5FozJvRMAzJACBADmybcYx/R6EQAsvdeJYEjunQBghjaJYDgei2GNAOyqw6pzxTCcT1Y3FQMA1WeqG4hhKFuqQ6vzRQEsIPPEsZgnDsQOEACYH49wGNNbRQDACteE8eyVeygAmB0FCADMzwkiGNLbRADACgXImNxDAcDMKEAAYH5uIYIhvUMEAKx4uwiG5B4KAGZGAQIA8+M9E+M5u/qwGABY8cHqq2IYjnsoAJgZBQgAzI8/3sfzzryYEIBvuax6lxiGcxMRAMC8KEAAYF72qm4khuF4/wcAV+Y9IOO5cbVJDAAwHwoQAJiXo6v9xTAcQy4Arsy1YTwHV9cVAwDMhwIEAObF7o/xbKneLQYAruRdeTziiG4sAgCYDwUIAMzLzUQwnE9WXxcDAFfyteo0MQzHu9QAYEYUIAAwL3aAjOcjIgBgO1wjxuNeCgBmRAECAPNyQxEM54MiAGA7XCPG414KAGZEAQIA83IDEQznwyIAYDtcI8bjXgoAZkQBAgDzcowIhvMhEQCwHQqQ8biXAoAZ2SSC4WwVgTUCsJP2qS6oNotiGF+vDqu2iAKAbdhcnVcdIIphXLJyPC4TBbBAzBPHYp44EDtAAGA+jkr5MZpTUn4AsH2XVaeKYSj7VNcVAwDMgwIEAObDM6vH4/FXAFwdj8Eaj8dgAcBMKEAAYD6OFsFwThEBAFfDtWI8ChAAmAkFCADMhwJkPIZaAFwd14rxuKcCgJlQgADAfHhe9XhOEwEAV8O1YjzuqQBgJhQgADAf1xHBUC6rzhADAFfjM9UWMQzFPRUAzIQCBADmw7cVx/K56hIxAHA1Lqy+IIahKEAAYCYUIAAwH/5YH8vpIgBgB50ugqG4pwKAmVCAAMB8+GN9LKeLAIAddLoIhnJtEQDAPChAAGAeNlfXFMNQThcBADvodBEM5drVJjEAwOJTgADAPBzZVIIwjs+IAIAd5Joxln2qI8QAAItPAQIA83CkCIbzaREAsINcM8bj3goAZkABAgDzcLgIhnO6CADYQQqQ8RwuAgBYfAoQAJiHw0QwlK3V58QAwA46UwTDOVwEALD4FCAAMA+eUz2Wr1YXiwGAHXRhdZ4YhuLeCgBmQAECAPNwuAiG8hURALBGrh1jOVwEALD4FCAAMA+Hi2AoXxYBAGvk2jEWO0AAYAYUIAAwD4eLYCi+xQvAWrl2jOVwEQDA4lOAAMA8eAn6WAyxAFgr146xuLcCgBlQgADAPBwkgqEYYgGwVq4dY3FvBQAzoAABgHk4UARDMcQCYK1cO8bi3goAZkABAgDz4I/0sXiRLQBr5doxFvdWADADChAAmAd/pI/Ft3gBWCvXjrG4twKAGVCAAMA8HCCCoZwjAgDWyLVjLO6tAGAGFCAAMA++pTiWC0QAwBp9QwRDcW8FADOgAAGAefBH+lguFgEAa+TaMRb3VgAwAwoQAJiH/UUwlItEAMAaKUDG4t4KAGZAAQIA87C3CIZiiAXAWinPx+LeCgBmQAECAPOwWQRDUYAAsFauHWNxbwUAM6AAAYB58Ef6WAyxAFgrO0DGYgcIAMyAAgQA5kEBMhZDLADWSnk+FvdWADADChAAmAd/pI/FEAuAtVKej8W9FQDMgAIEAObBH+ljUYAAsFauHWPxCCwAmAEFCADMgwJkLIZYAKyVHSBjcW8FADOgAAEAWH9bRQDAGm0SAQDA+lKAAMA8XCaCoewnAgDWaF8RDMW9FQDMgAIEAObBH+ljMcQCYK1cO8ZyqQgAYPEpQABgHhQgYzHEAmCt7B4ci3srAJgBBQgAzIM/0sdiiAXAWinPx+LeCgBmQAECAPPgj/SxGGIBsFbK87F4BBYAzIACBADmQQEyFgUIAGvl2jEW91YAMAMKEACYB99SHIshFgBrZQfIWNxbAcAMKEAAYB4uEMFQDLEAWCvl+VjcWwHADChAAGAe/JE+FkMsANZKeT4W91YAMAMKEACYh2+IYCgHiACANXLtGIt7KwCYAQUIAMyDP9LHck0RALBGrh1jcW8FADOgAAGAefBH+lgMsQBYK9eOsbi3AoAZUIAAwDx4TvVYDLEAWCvXjrG4twKAGVCAAMA8+JbiWAyxAFgr146xuLcCgBlQgADAPJwvgqFcQwQArJFrx1jcWwHADChAAGAezhXBUI4UAQBr5NoxlnNEAACLTwECAPNwrgiGYogFwFq5dozlXBEAwOJTgADAPJwrgqF4jjsAa+XaMZZzRQAAi08BAgDz4DENYzHEAmCtXDvG4t4KAGZAAQIA83CuCIZyaLWvGADYQftXB4thKOeKAAAWnwIEAObhXBEMZVN1AzEAsIOOFcFw7AABgBlQgADAPJwrguEYZgGwo1wzxnOuCABg8SlAAGAeviSC4dxQBADsoBuJYDjurQBgBhQgADAPX6kuEcNQjhMBADvoOBEM5cLqq2IAgMWnAAGAedhafVkMQzlOBADsoONEMBS7PwBgJhQgADAf/y2CoRwnAgB2kMcmjsU9FQDMhAIEAObDH+tjMcwCYEcdJ4KhuKcCgJlQgADAfPhjfSxHVfuLAYCrcXB1bTEM5YsiAIB5UIAAwHz4Y30sm6obiAGAq3GsCIbjSyUAMBMKEACYD3+sj+c4EQBwNY4TwXB8qQQAZkIBAgDzcYYIhnMrEQBwNU4UwXDcUwHATChAAGA+zhTBcE4QAQBXw7ViPAoQAJgJBQgAzMdnRDCck0QAwNVwrRjPZ0UAAPOwSQTD2SoCawRgJ22uLqz2FsUwLqwOri4TBQDbsE/19WpfUQzj4uqAaosogAVinjgW88SB2AECAPNxWfV5MQxl/+qmYgBgO26W8mM0Z6b8AIDZUIAAwLx4ZvV4vAgdgO1xjRiPeykAmBEFCADMi2dWj8dwC4DtcY0Yj3spAJgRBQgAzIsXoY/nBBEAsB2uEeNxLwUAM6IAAYB5+aQIhnOSCADYDteI8biXAoAZUYAAwLz4o308N6wOFgMAV3JodawYhvMpEQDAfChAAGBe/ksEw9mruqsYALiSu1WbxDAc91IAMCMKEACYl7Oq88UwnLuJAIArubsIhnNe9d9iAID5UIAAwLxsrU4Tw3AMuQC4MteG8XiUKADMjAIEAObHH+/juUu1WQwArNinupMYhuMeCgBmRgECAPPj5Z3jOaQ6QQwArLhVdZAYhuMeCgBmRgECAPNzigiGdA8RALDiniIYknsoAJgZBcj/3959R9t613Uef9/0QCiBQOhNeu+99zowCjhUHRlRUARURGRGsDEgKtVRRFFpikgPIhIQgYQgJQFChzRCDaGkkOQmN3f+eA4SSHK45ZTffvbrtdZe5yQLlvJ59u939vl+zu95AGB+/PI+Jg9CB+AHPP9jTD5DAcDMbBHBcLaLwBoB2E0HVKdkDxvNcdXVxQBA9ZXqCmIYyramz1BnigJYQOaJY/G7+ECcAAGA+TmtOkEMw7ladSUxACy9q6X8GNGxKT8AYHYUIAAwT58RwZDc8gQAz/8Yk89OADBDChAAmKejRTCk+4sAYOn5WTAmn50AYIYUIAAwT/6KcUz3yv1gAZbZHtU9xDAkn50AYIYUIAAwT0eJYEiXr24mBoCldevqMmIY0lEiAID5UYAAwDwdXW0Vw5DuKwKApeVnwJjOzAkQAJglBQgAzNPW6lNiGNJ9RACwtPwMGNPR1TliAID5UYAAwHwdKYIh3b66hBgAls6lq1uJYUgfEwEAzJMCBADmSwEypr3yAFyAZXSvak8xDMlnJgCYKQUIAMyXv2Ycl1ugACwfe/+4FCAAMFNbRDCc7SKwRgDWyAHV9/IHDyM6rrq6GACWxpbqy9UVRTGcbU23pjxdFMACM08ci3niQAxEAGC+Tqs+J4YhXa26hRgAlsZtUn6M6rMpPwBgthQgADBvHxTBsB4hAoClYc8f1+EiAID5UoAAwLx9SATDeniORgMsgz2b9nzG5LMSAMyYAgQA5u0IEQzrytVtxQAwe3esLieGYTktCwAzpgABgHk7ujpFDMPyF8EA82evH9d3qs+IAQDmSwECAPN2bvURMQzrYfk8BjBnezXt9Yzpw9V2MQDAfPmFGwDmz22wxnXF6vZiAJitO1eXEcOwfEYCgJlTgADA/P2nCIb2MyIAmC17/Ng8AB0AZm6LCIbj+K01ArDWLl2dlD1tVF+prtJ0uzIA5mPPpj3+YFEMaVvTZ6TviQKYAfPEsfjdeyBOgADA/J1cfUIMw7pidS8xAMzO/VN+jOzIlB8AMHsKEABYDv8hgqE9TgQAs2NvH5vPRgCwBBQgALAc/JI/tgdXlxUDwGxcoXqAGIbmsxEALAEFCAAsh/flvrAj26d6jBgAZuOx1V5iGNa51QfEAADzpwABgOXwreozYhjaL+ZheQBzsKVpT2dcn6y+IwYAmD8FCAAsj/eJYGjXqW4jBoCFd4fqGmIY2vtFAADLQQECAMvjXSIY3i+JAGDh2cvH928iAIDl4DYL43F/dmsEYL1csjop9yQf2RlND879rigAFtKB1Veq/UUxrK3VQdWpogBmxDxxLOaJA3ECBACWx3erD4thaPtX/0MMAAvrkSk/RvfBlB8AsDQUIACwXN4tguF5cC7A4rKHj89nIQBYIgoQAFgu/yqC4d28upcYABbOfaubiGF47xQBACwP9yMbj3v2WSMA62mv6lvVJUQxtHc2DdIAWBzvqu4phqGdXB1cbRMFMDPmiWMxTxyIEyAAsFzOqd4nhuHdu7qeGAAWxg2re4hheO9N+QEAS0UBAgDL5xARDG9L9ZtiAFgYv5W/9lwEPgMBwJLxAW08jqxZIwDr7QrVidnjRndWdfXqa6IAGNqVqy9Ve4tiaNuqy1cniQKYIfPEsfhdeyBOgADA8vlq9TExDG/f6oliABjer6T8WAT/mfIDAJaOAgQAltPbRLAQnlhdVAwAw7p49QQxLIS3iwAAlo8CBACW07+IYCFcqnqUGACG9ZimEoTx+ewDAEvI/cjG45591gjARthSnVBdSRTDO766drVVFABD2b/6YtOztRjbcU3P1QKYK/PEsZgnDsQJEABYTturd4phIVy1eqwYAIbzP1N+LAqfeQBgSWmjxqOxtUYANsr9cjuIRfHV6prVGaIAGMJFqi9VlxPFQrh39S4xADNmnjgW88SBOAECAMvr0Oo7YlgIV6h+UQwAw3hiyo9F8a3q38UAAMtJAQIAy+vs6hAxLIxnNP3FMQCb62LV08WwMN5anSMGAFhOChAAWG5vEMHCuFz1K2IA2HRPqg4Sw8LwWQcAlpj7kY3HPfusEYCNtG/1zeriolgIJ1dXr04VBcCmOLA6prqkKBbCd6qDm069AsyZeeJYzBMH4gQIACy3s/Ig9EVy6erXxACwaZ6c8mORvD3lBwAsNQUIAPBmESyUp1SXEAPAhjswJfSieZMIAGC5KUAAgEOq08WwMA6qnikGgA33rKYShMVwSvUOMQDAclOAAACnV28Uw0J5SnUdMQBsmBtVvyqGhfLP1RliAIDlpgABAKpeK4KFsnf1J2IA2DAvqPYUw0L5BxEAAJ5IP57tIrBGADbBXtWJ1cGiWCj3rd4pBoB19cDqbWJYKF+prlKdKwpgSZgnjsU8cSBOgAAAVedUrxfDwnlBU3kFwPrYp2mvZbH8U8oPACAFCADwQ26DtXiuVz1eDADr5onVNcWwcNz+CgCoHMcZkSNr1gjAZtlSHVtdVRQL5RvVtatTRAGwpg6svlBdWhQL5UvVtfK7NbBc7HljMU8ciBMgAMAPbK9eJYaFc3D1TDEArLlnpfxYRK/KIBAAWKGNGo8PatYIwGa6anVM/khi0ZxT3bo6UhQAa+KW1RHVnqJYKNuaPst8RRTAkjFPHIt54kAMNwCA8zq++ncxLJy9qpdlUAewFvau/iZ76iI6NOUHAHAeChAA4Mf9rQgW0q2qJ4kBYLc9tbqxGBaSzzAAwI9wHGc8jqxZIwCbbf/qq9UlRbFwvl/dqOk2ZgDsvGtWn2j6Wchi+VZ1xWqrKIAlZJ44FvPEgTgBAgD8uDOq14lhIV2k+nMxAOySLdXLU34sqtel/AAAfowCBAC4IK8UwcK6b/UwMQDstEdUdxXDwvLZBQA4H8dxxuPImjUCMIqPVjcXw0L6VnX96iRRAOyQg6tPV5cSxUL6SNOzsACWlXniWMwTB+IECABwYV4mgoV1UPV8MQDssBek/FhkfyECAOCCaKPGo7G1RgBGcbHqxOriolhI26v7Ve8UBcCqHli9NZ/9F9X3mh5+froogCVmnjgWnykG4gQIAHBhTq3+TgwLa0v16uryogC4UFdpenaEQcXi+tuUHwDAhfAhbzwaW2sEYCTXbbonuv1wcf1b04PRfcYA+FF7Vu+u7iKKhbW9unb1RVEAS85n/bH4/XkgToAAAKv5bPVeMSy0e1e/JgaA8/n1lB+L7j0pPwCAVShAAICfxMPQF99zquuJAeC/3Kj6fTEsPJ9RAIBVOY4zHkfWrBGA0exZfaG6uigW2qerW1ZniAJYcgdUR1bXFMVC+1J1nWqbKADMEwdjnjgQJ0AAgJ9kW/XnYlh416+eJwaA/iTlxxy8NOUHAPATaKPGo7G1RgBGdKnqhOqiolho51b3qQ4VBbCk7l8dks/5i+606srVd0UBUJknjsbnjIE4AQIA7IhvV68Qw8Lbo3pdbmcGLKefql6docQcvDzlBwCwA3zwG4/G1hoBGNU1q8/lDyjm4Kjq9nkeCLA8LlodXt1YFAtvW1OZdbwoAP6LeeJYzBMHYoABAOyoLzbdNoTFd9PqZWIAlsjLU37MxVtSfgAAO0gBAgDsjBeJYDYeU/28GIAl8PjqEWKYDZ9FAIAd5jjOeBxZs0YARndY0+2TWHxnV3dbuaYAc3Tn6tBqb1HMwvuqu4gB4HzME8dinjgQJ0AAgJ31xyKYjb2r11eXFwUwQ1es/inlx5w8TwQAwM7QRo1HY2uNAIxuS/WJ6oaimI1/r+5dnSMKYCb2qd5b3U4Us3FkdXMxAFwg88SxmCcOxAkQAGBnba9eKIZZuVv1h2IAZuT/pvyYmxeKAADYWdqo8WhsrRGARbB39YXqqqKYlSdVLxUDsOCeUr1ADLPyxeq61TZRAFwg88SxmCcOxAkQAGBXnF29WAyz82fVvcQALLD7Vc8Xw+y8JOUHALALtFHj0dhaIwCLYr/qS9UVRDErp1V3brrXOsAiuW31nmp/UczKidU1q7NEAXChzBPHYp44ECdAAIBddWbTiQHm5YDq7dVVRAEskJ+q3pryY47+OOUHALCLtFHj0dhaIwCL5CLVMdXBopidT1V3qL4nCmBwl6wOr64nitn5StPpjzNFAbAq88SxmCcOxAkQAGB3fL/6EzHM0g2qf6z2EgUwsH2qN6X8mKvnp/wAAHaDNmo8GltrBGDRXKw6trq0KGbpxdWTxQAM6v9VTxDDLH2zukZ1uigAfiLzxLGYJw7ECRAAYHed2nR/bubp16oXiAEY0ItSfszZc1N+AAC7SRs1Ho2tNQKwiC5efak6SBSz9bTc7gwYxzOq54hhtr7R9GB7BQjAjjFPHIt54kCcAAEA1sIp1R+IYdae31SCAGy2p6f8mLtnp/wAANaANmo8GltrBGBR7VN9pul+3czT9uqJ1V+KAtgkT6xems/pc/bZ6kbVOaIA2GHmiWPxOWUgToAAAGtla9NfbDJfW6o/rx4lCmATPC7lxzL4vZQfAMAa8cFxPBpbawRgke1RfbS6qShmbVv1yOqfRAFskJ+tXlPtKYpZ+1h1y/xeDLCz7JtjMU8ciBMgAMBaOrf6fTHM3p7V31X3EAWwAe7VtOcoP+bv2RniAQBrSBs1Hh/2rBGARbel+mB1G1HM3pnVQ6u3iwJYJw9qOm22nyhm77DqjmIA2CXmiWMxTxyIEyAAwFrbXj05H8KXwX7VW6qfFwWwDn6helPKj2VwbvUkMQAAa00BAgCshw9VrxPDUtizekUGV8DaenL117nt1bJ4bXWkGACAteY4znj8taw1AjAXV6s+k7/cXRbbq6dVfyoKYDf9bvV7Ylga36+uXX1FFAC7zDxxLOaJA3ECBABYL8dVLxLD0thS/Un1XFEAu+G5KT+WzQtSfgAA60QbNR6NrTUCMCcXq75QHSyKpfL86un5XAPsuD2ql1RPFMVS+VrT6Y/TRAGwW3zuHot54kCcAAEA1tOp1f8Vw9J5WvXi3Lsf2DF7Vf8v5ccy+sOUHwDAOtJGjUdja40AzM3e1cer64li6bytekR1uiiAC3Gx6nXV/USxdD5Z3bw6RxQAu808cSzmiQNxAgQAWG9nV4/Ph/Jl9KDqiOqqogAuwNWa9gjlx/LZXv1yyg8AYJ0pQACAjfCB6vViWEo3rD5Y3UIUwHncqmlvuL4oltJrq8PFAACsN8dxxuOvY60RgLm6UvXZ6qKiWEqnN90O622igKX34KYB+EVEsZROqa5TfV0UAGvGPHEs5okDcQIEANgoJ+aB6MvsotWbqieJApbas5v2AuXH8npOyg8AYINoo8ajsbVGAOZs/+rTTfd9Z3k9t/rf1TZRwNLYc2Xt/6YoltqXmm6NeKYoANaUeeJYzBMH4gQIALCRzqieKoal99vV26tLiwKWwmWqd6b8oJ6S8gMA2EAKEABgo705D0Sn7lN9vLqdKGDW7lZ9qrqHKJbeP1SHiAEA2EiO44zHkTVrBGAZXK76THVJUSy9rdVvVS8SBczO06s/rPYSxdL7TnW96huiAFgX5oljMU8ciBMgAMBm+Hr1TDFQ7VO9sHpVHooMc3HR6rVNz/xQflDTrQ+VHwDAhtNGjUdja40ALIs9qvdXtxcFK46qfro6VhSwsH6qekN1E1Gw4gPVnfO7LsB6sseOxTxxIE6AAACb5dzqSdU2UbDiptUHq3uKAhbS/VbWsPKDHzin+pUM5gCATaIAAQA208fy7Ad+1MHVv1V/Vu0rDlgI+1cvqd5eXUYcnMefVp8QAwCwWRzHGY+/jLFGAJbNvk1FyPVFwY/5bPXo6qOigGHdoekZPlcXBT/m6OoW1VZRAKw788SxmCcOxAkQAGCznVU9LrfC4vyuWx1RPbvaUxwwlL2bHnL+3pQfnN+2pp/tyg8AYFMpQACAERzRdPsU+HF7Vc+q3t/0cGVg811zZU0+fWWNwo97QfWfYgAANpvjOONxZM0aAVhWF6s+WV1VFFyIk6vHV28UBWyah1Uvqw4UBRfi2OpG1emiANgw5oljMU8ciBMgAMAoTq1+Ph/euXCXrt5Qva26sjhgQ12l6SHn/5Tygwt3btOzm5QfAMAQFCAAwEjeW71CDPwED6yOrB4rClh3W6pfqI6q7i8OfoK/rg4XAwAwCsdxxuOvXq0RgGV3kepj1XVEwQ44rPrF6jOigDV3g+qvqtuLgh1wdHWr6kxRAGw488SxmCcOxAkQAGA0368eWZ0tCnbAHZoKs2dX+4gD1sS+1XObTlopP9gRW5tO5Sk/AIChKEAAgBF9rPoDMbCD9queVX2kuo04YLfctfpk9fRqb3Gwg57dVJgBAAzFcZzxOLJmjQAw2bvp9ka3EgU74ezqJU0F2nfFATvsUk1D7CdUe4mDnfDB6s7VOaIA2DTmiWMxT3QxWIUNyxoB4Ieu3vTg3YuLgp303aZb+LywOksccKH2q367+s3qouJgJ32nunF1oigANpV54ljMEwfiFlgAwMiOrX5LDOyCSzYVIB+u7iEOuED3qT7adAs55Qe74jdSfgAAA9NGjUdja40AcH6vrh4lBnbDu6unNj3bAJbdTaoXVHcTBbvhldXPiQFgCOaJYzFPdDFYhQ3LGgHg/A5suhXWVUTBbthavbj6w+p74mAJXbL63epX84Bzds+x1c2ylwKMwjxxLOaJLgarsGFZIwBcsFtVH6j2EQW76bTqz5tukfVdcbAEDqyeXv1KdYA42E1bq9s33T4NgDGYJ47FPHEgngECACyKD1fPFgNr4ICmYfAJTSXIJUTCTF1y5T1+/Mp7XvnBWnhmyg8AYEFoo8ajsbVGALhwe1TvrO4pCtbQydVLqz+rThEHM3CJpmfePKm6lDhYQ4dU/y2/twKMxr48FvNEF4NV2LCsEQBWd6XqyOogUbDGTqz+qHpF0y1eYNHsW/1i9YzqCuJgjX2junn1VVEADMc8cSzmiS4Gq7BhWSMA/GT3rt6R23myPo6v/rj6u+r74mABHFD9z+pp1ZXFwTrY1vSz9z2iABiSeeJYzBNdDFZhw7JGANgxz6ieIwbW0anV3zbdGut4cTCgq1a/Xv1Cnu/B+npa9SdiABiWeeJYzBNdDFZhw7JGANgxW6o3Vg8RBevs3Opfmm6PdYQ4GMDtqt+p7p+TcKy/N1QPy++qACOzR4/FPNHFYBU2LGsEgB13YPWR6hqiYIMcVr2oqXzbJg420J7VT1dPru4gDjbI56pbNZ2IA2Bc5oljMU90MViFDcsaAWDn3Lb6j2ofUbCBjqz+onpddYo4WEcXrx5RPaG6iTjYQGdVd6o+LAqA4ZknjsU80cVgFTYsawSAnffY6u/FwCY4q3pr9aqm22Q5FcJa2LPp9laPqR6cgpfN8Zjq1WIAWAjmiWMxT3QxWIUNyxoBYNe8uHqSGNhEJ1avqf6yOk4c7IKrV79UPbq6ojjYRC+ofl0MAAvDPHEs5okuBquwYVkjAOyafar35N74bL6zm06FvKJ6Z06FsLq9qvtWj6seUO0tEjbZ+6p7Nu1lACwG88SxmCe6GKzChmWNALDrLtV0r3IPRWcU363eVr2+qQzZKhKaCtv7VA+r/lt1CZEwiC9Vt66+LQqAhWKeOBbzRBeDVdiwrBEAds9NqsOqi4qCwXynOiRlyLI6b+nxoOqSImEwp1e3rz4hCoCFY544FvNEF4NV2LCsEQB232OqV4qBgX21+uemMuTw6lyRzNIeTbfle3j10OpyImFQ25uePfNaUQAsJPPEsZgnuhiswoZljQCwNp5TPUMMLICvN50IeWf1rupbIllol6nu1fRcj3tXB4uEBfCH1f8RA8DCMk8ci3mii8EqbFjWCABrY0v1qupRomDBHFMd2nS7rH+rzhLJ0PZrKjwe2PTgaM8gYtG8qvq5/C4KsMjs4WMxT3QxWIUNyxoBYO1cpHpfdQtRsKC+01SGvLN6b9MDitl816ru0vRMj3vmeR4srg+vvJfPEAXAQjNPHIt5oovBKmxY1ggAa+vg6kPVVUXBDJy68n4+rPrAyleDy/W1f9NzPO648vU21cXEwgx8sbptdbIoABaeeeJYzBNdDFZhw7JGAFh7t2g6CXIRUTAzpzUVIj8oQ45oKknYdRerbtcPS4/bVBcVCzNzWnWn6ihRAMyCeeJYzBNdDFZhw7JGAFgfD67eUO0pCmbs3OrY6hPV0dUnV15frM4Rz4/Yq+lWVjdaed1w5evVqz3Ew4ydUz2kersoAGbDPHEs5okuBquwYVkjAKyfJ1T/TwwsobOqTzWVIkevfH9sdVzzv4XW/k2lxtWrGzQVHTesrl/t663BEnp89XIxAMyKeeJYzBNdDFZhw7JGAFhfz6meIQb4L19vKkIu6HV8debg///vV11tldfBLjH8lz+oflcMALNjnjgW80QXg1XYsKwRANbXlurvq8eIAnbIaU0PSf7Gytdvnefrt6qTVr6evvKfP7XpFjvbqlNW/t33m06hnNe+/fC5PBdvuj3dXv3wAeMXrQ6qLrPyuvTKP//g62VXvj/AJYId8rfV4/I7J8Ac2dvHYp7oYrAKG5Y1AsD627P656Z7oAPA3L2xenhTMQnA/JgnjsU80cVgFTYsawSAjXHx6r3VzUQBwIx9pLpb02kuAObJPHEs5okD2UMEAMCSOqW6e3WUKACYqSOre6b8AACWlDZqPBpbawSAjXXZ6v3VtUUBwIx8rrpT03N6AJg388SxmCcOxAkQAGDZfbO6X/VVUQAwEydU90r5AQAsOQUIAEAdU92nOlkUACy4bzSVH18WBQCw7BQgAACTo6v/Xn1fFAAsqNOrn64+LwoAAAUIAMB5vb/pr2Y9LBaARXNq08+ww0UBADBRgAAA/KjDm54JogQBYFGc1vSz64OiAAD4IQUIAMD5faDpdlhniAKAwZ1e3b86TBQAAD9KAQIAcMEOrR5SnSkKAAZ1ZlNh/35RAACcnwIEAODC/Vv1qOpsUQAwmLOrR1bvEgUAwAXbIoLhbBeBNQLAcO5XvbHaTxQADOAHJz/+VRQAZJ44GvPEgTgBAgDwk72j6XZYngkCwGY7o3pwyg8AgJ9IGzUeja01AsC47lIdUh0gCgA2wWnVA6r3iQKA8zBPHIt54kCcAAEA2HH/0TR4Ok0UAGywU6v7p/wAANhhChAAgJ3zvuqnczssADbO95tuxfh+UQAA7DjHccbjyJo1AsBiuFX1L9VBogBgHZ1U3a/6qCgAuBDmiWMxT3QxWIUNyxoBYHFcr3pndWVRALAOTqjuU31WFACswjxxLOaJA3ELLACAXfeZ6k7V50UBwBo7urpdyg8AgF2mAAEA2D3HN5UgHxMFAGvkiOou1VdFAQCw6xQgAAC775vVvaoPigKA3XRY0zM/vi0KAIDdowABAFgb367uVv2jKADYRa+t7l59VxQAALtPAQIAsHbOqh5ZPV8UAOyk51WPrraKAgBgbShAAADW1vbqt6pnrXwPAKvZXj2z+u383AAAWFNbRDAcH3itEQDm42eqV1f7iQKAC3Bm9ajqjaIAYDeYJ47FPNHFYBU2LGsEgHm5f/W66gBRAHAep1QPq/5NFADsJvPEsZgnuhiswoZljQAwP9eqDqmuLQoAqs9VD6y+KAoA1oB54ljMEwfiGSAAAOvvC9Xtq/8QBcDSe2/TzwTlBwDAOlOAAABsjJOr+1SvFAXA0vr7pp8F3xYFAMD6U4AAAGycs6qfr367OlccAEvj3OopTT8DtooDAGBjuB/ZeNyzzxoBYDk8tnpZtZ8oAGbtjOoXq9eIAoB1Yp44FvNEF4NV2LCsEQCWx42rN1dXFwXALB1TPaT6pCgAWEfmiWMxTxyIW2ABAGyeT1S3qg4VBcDsvKtpj1d+AABsEgUIAMDmOrm6b/U8UQDMxvOq++Vh5wAAm8pxnPE4smaNALC8frl6UbWPKAAW0lnVr1Z/LQoANpB54ljME10MVmHDskYAWG43q15f/ZQoABbKF6uHVh8XBQAbzDxxLOaJA3ELLACAsRxZ3bx6gygAFsbrm/Zu5QcAwEAUIAAA4zmlelj1lOpscQAM6+ymvfpnq1PFAQAwFsdxxuPImjUCAOd15+ofq8uLAmAoX20qPj4gCgA2mXniWMwTB+IECADA2N5X3SYDNoCR/Ef2ZgCA4SlAAADG9+WmkyBPyS2xADbT1qa9+G7VieIAABib4zjjcWTNGgGA1dy6+ofqGqIA2FBfrB5RfUQUAAzGPHEs5okDcQIEAGCx/Gd1s6bnggCwMV5b3SLlBwDAQlGAAAAsnlOqR1ZPrc4UB8C6OaP61erRTXsvAAALxHGc8TiyZo0AwM64evXK6o6iAFhT76t+rjpOFAAMzjxxLOaJA3ECBABgsR3b9DDe3256OC8Au2dr055695QfAAALTRs1Ho2tNQIAu+pW1auq64gCYJd8oul2V58UBQALxDxxLOaJA3ECBABgPj7cVIL8TX4JAtgZ26uXV3dI+QEAMBvaqPEYVlgjALAW7lD9dXVdUQCs6jPV/6oOFwUAC8o8cSzmiQNxAgQAYJ4Oq25WPa/aJg6A89la/V5185QfAACzpI0aj8bWGgGAtXaT6hVNQz4A6iPV45qe+QEAi848cSzmiQNxAgQAYP4+3nRLrOdWZ4sDWGJnV39Y3THlBwDA7GmjxqOxtUYAYD1ds/rL6h6iAJbMu6onVF8SBQAzY544FvPEgTgBAgCwXL5Y3av6uepb4gCWwEnVw6t7p/wAAFgqChAAgOWzvXpldcPqVeIAZmp79VfVdarXiwMAYPk4jjMeR9asEQDYaA+uXlhdTRTATBxTPbk6RBQALAHzxLGYJw7ECRAAAN5SXbt6SnWKOIAF9r2mvey6KT8AAJaeNmo8GltrBAA20+Wr51WPzs9BYHGcW/119azq6+IAYMmYJ47F71EuBquwYVkjADCCW1UvqW4jCmBwH6x+rfqIKABYUuaJYzFPHIhbYAEAcEE+XN2paah4sjiAAX2r+pXqzik/AAC4ANqo8WhsrREAGM1Fq6dVT6/2Ewewyc6o/rh6fnW6OADAPHEw5okuBquwYVkjADCqK1d/lOeDAJtje/Xq6neqE8UBAP/FPHEsfldyMViFDcsaAYDR3av6k+rGogA2yFHVb1TvEQUAnI954ljMEwfiGSAAAOysd1U3aSpCjhQHsI4+1rTX3CzlBwAAO0kBAgDArjq0umX18Orz4gDW0Oea9pZbNu01AACw0xzHGY8ja9YIACyiPaqfqZ5bXUMcwC76UvWM6g3VueIAgB1injgW80QXg1XYsKwRAFhkF6l+ufqt6mBxADvoa9Xzqr+qzhAHAOwU88SxmCe6GKzChmWNAMAc7FP9fPV/qiuJA7gQX6p+v/qH6mxxAMAuMU8ci3mii8EqbFjWCADMiSIEuCDHVL+X4gMA1oJ54ljME10MVmHDskYAYI4uWv1S9dQUIbDMTqj+rHp59X1xAMCaME8ci3mii8EqbFjWCADM2R7VA6r/Xd1aHLA0jqieU709DzcHgLVmnjgW80QXg1XYsKwRAFgWd6ye3lSI+JkL87O9qfB4XvUBcQDAujFPHIvfbVwMVmHDskYAYNncsfqN6r81nRABFtu51ZurP60OFwcArDvzxLGYJ7oYrMKGZY0AwLK6fNNzQn6tOlAcsHC+U724+svq6+IAgA1jnjgW80QXg1XYsKwRAFh2F6t+oemB6VcVBwzv+OoF1d9Up4kDADaceeJYzBNdDFZhw7JGAIDJvtX/qJ5Q3UYcMJwjqr+o/rHaKg4A2DTmiWMxT3QxWIUNyxoBAM7vWtXjVl4HiQM2zUnVK5pOe3xBHAAwBPPEsZgnuhiswoZljQAAF27fpoelP766R35Ww0bYXr27+qvqrdVZIgGAoZgnjsXvKC4Gq7BhWSMAwI65RfU/q0fmoemwHr5dvab6u+pj4gCAYZknjsU80cVgFTYsawQA2Dl7VndrOhXy4GofkcAu21q9pem0x3uqc0UCAMMzTxyLeaKLwSpsWNYIALDrrlQ9duV1HXHADvts9cqV11fEAQALxTxxLOaJLgarsGFZIwDA2rh+9fDq0dVPiQPO54tNt7h6XfUZcQDAwjJPHIt5oovBKmxY1ggAsPZu0XQq5BHVZcTBEvtm9Y9NJz0+Kg4AmAXzxLGYJ7oYrMKGZY0AAOtn/+oB1U+vfL24SFgC36veXr2hekd1hkgAYFbME8dinuhisAobljUCAGyMPavbVQ+rHlpdQSTMyFeaCo/XVx+stokEAGbLPHEs5okuBquwYVkjAMDG26u6W/WQ6oHVVUTCAjq+OqR6c/Xe6hyRAMBSME8ci3mii8EqbFjWCACw+a5RPaipDLlLtbdIGNDW6n1NpcfbqmNEAgBLyTxxLOaJLgarsGFZIwDAWC7fVITcr7p7dQmRsIm+U/179S9Nxcc3RAIAS888cSzmiS4Gq7BhWSMAwNiuUd2z6YTIPav9RMI6OrX61+rQlZdTHgDAjzNPHIt5oovBKmxY1ggAsDguXt21ukfTM0RumM8P7J5zq6ObnuFx6MrXU8UCAKzCPHEsfh9wMViFDcsaAQAW10Wr21V3rO5Q3bnaRyys4gfP8Tis+kD1wep0sQAAO8E8cSzmiS4Gq7BhWSMAwHxcurpTUyly2+qW1UXEstROrz5SHdFUdry/+rZYAIDdYJ44FvNEF4NV2LCsEQBgvvaqbtxUhty2uk11rXzmmKvt1Reayo4PNRUen6zOEQ0AsIbME8fis72LwSpsWNYIALBc9q6uXd3iPK+bNt1Oi8VxenVU9dHzvD5fnS0aAGCdmSeOxTzRxWAVNixrBABgn6YHqt+4ut7K6/rV1ao9xbOptlXHVp+uPrPy+mTTg8u3igcA2ATmiWMxT3QxWIUNyxoBALgw+1XXXXldr+n2WdeqrlldUjxr6jvVF1deX2gqPD678jpLPADAQMwTx2Ke6GKwChuWNQIAsCsO6odlyLWaTotcpbpydaWmUyX80FnViSuvE6rjmm5Z9YPS41siAgAWhHniWMwTXQxWYcOyRgAA1tqW6nJNhciVmkqRy678u8usfH/5le/3W/D/rWdWJ1Vfq7658v3XV77/8nleX89nbwBgHnymGYt5oovBKmxY1ggAwGa6WFMhcqmV14Hn+f4Hr4s0FSX7r7z2a3po+z7VAU0Pdv+BS1R7XMj/rXOr753nn8+uTmt6lsbpTWXGGSuvM1f+3Xeqb//Y6wf/7pvVqS4hALBkzBPHYp7oYrAKG5Y1AgAAAAA7yjxxLOaJA9lDBAAAAAAAwNwoQAAAAAAAgNlRgAAAAAAAALOjAAEAAAAAAGZHAQIAAAAAAMyOAgQAAAAAAJgdBQgAAAAAADA7ChAAAAAAAGB2FCAAAAAAAMDsKEAAAAAAAIDZUYAAAAAAAACzowABAAAAAABmRwECAAAAAADMjgIEAAAAAACYHQUIAAAAAAAwOwoQAAAAAABgdhQgAAAAAADA7ChAAAAAAACA2VGAAAAAAAAAs6MAAQAAAAAAZkcBAgAAAAAAzI4CBAAAAAAAmB0FCAAAAAAAMDsKEAAAAAAAYHYUIAAAAAAAwOwoQAAAAAAAgNlRgAAAAAAAALOjAAEAAAAAAGZHAQIAAAAAAMyOAgQAAAAAAJgdBQgAAAAAADA7ChAAAAAAAGB2FCAAAAAAAMDsKEAAAAAAAIDZUYAAAAAAAACzowABAAAAAABmRwECAAAAAADMjgIEAAAAAACYHQUIAAAAAAAwOwoQAAAAAABgdhQgAAAAAADA7ChAAAAAAACA2VGAAAAAAAAAs6MAAQAAAAAAZkcBAgAAAAAAzI4CBAAAAAAAmB0FCAAAAAAAMDsKEAAAAAAAYHYUIAAAAAAAwOwoQMazTQRD2VsEAAAAAAxqHxEM5RwRjEUBMp6tIhjKxUQAAAAAwKDMrsZitjsYBYhFwuoOEAEAAAAAg1KAjOUsEYxFAWKRsDoFCAAAAACjMrsai9nuYBQg43ECZCxadAAAAABGZXY1FrPdwShAxqMlHMtBIgAAAABgUJcRwVDMdgejABmPlnAs1xEBAAAAAIO6tgiGogAZjALEImF11xQBAAAAAIMyuxqL2e5gFCDj+bYIhqJFBwAAAGBU7l4yFrPdwShAxvMtEQxFAQIAAADAqK4lgqGY7Q5GATKek0UwlCtWlxQDAAAAAIO5dHUFMQzFbHcwCpDxaAnHWyN3FQMAAAAAg7lrtUUMQzHbHYwCZDxawvHcRQQAAAAADOZuIhiO2e5gFCDj0RKO564iAAAAAGAwCpDxmO0ORgFikfCT3bjVBU8AABYmSURBVLg6SAwAAAAADOLg6npiGI7Z7mAUIOP5hgiGXCf3EQMAAAAAg7h/nv8xIrPdwShAxnOMCIb0WBEAAAAAMIhHi2BIZruD0RKO6eTqUmIYyrbqStXXRQEAAADAJrpSdXz+uH00J1WXFcNYLJIxHSeC4exZ/awYAAAAANhkP5u57oiOFcF4LJQxHSeCIT1CBAAAAABssv8hgiEdJ4LxKEDG5F5xY7pNdRcxAAAAALBJ7l7dUgxDMtMdkAJkTI5Ljet3RAAAAADAJnmmCIZlpjsgBciYjhPBsO5V3VQMAAAAAGywWzadAGFMx4lgPAqQMX1SBMPaUv2uGAAAAADYYGZSYztaBOPZIoJhr8u3q0uKYkjnVretPiwKAAAAADbA7arDMs8d1cnVQWIYjxMgY9pefVwMQ6+bl1V7igIAAACAdbZ39fKUHyM7SgRjUoCMSwEytptVjxcDAAAAAOvsCdUNxDC0T4hgTAoQi4Zd90fVZcQAAAAAwDq5fPUHYhieWe6gFCDj8iD08R1Y/akYAAAAAFgnf1ZdXAzDM8uFnbR/dU7T80C8xn79orcrAAAAAGvsiZm7LcLr7Gpfb9cxeXDO2D5Z3VAMwzutumX1OVEAAAAAsAauX324uogohvfx6qZiGJNbYI3t/SJYCAdUb8gPJAAAAAB238WqN2fWtCjeJ4JxKUDG9kERLIwbVC+3pgAAAADYDXtUf1NdSxQLwwwXdtHVcg+9RXu9zNsWAAAAgF2wpXpl5muL9rqity7sui/bRBbu9WxvWwAAAAB20h9krrZor+O8bcfmdj3jc4Rq8fxu9XgxAAAAALCDfrl6phgWzuEiGJsCZHwfEMHC2dJ0K6znigIAAACAVWxpmiH9xcr3LJb3iwB2z81ylGyRXy9I0QgAAADA+e1RvSTzs0V+3dDbGHbPluqrNpOFfr2m2tdbGQAAAIAV+1Wvy9xskV8neBuPz1+mj2979XYxLLRHVkdVNxUFAAAAwNK7WdOs6OGiWGiHiGB8CpDF8A4RLLzrNj3Q/sm5nyMAAADAMtrSNBv6YHUdcSw8M1tYI5eotuZY2Vxe/1BdxtsaAAAAYGkcXP1T5mJzeZ1ZHeBtDWvnPTaWWb1Oq55d7eOtDQAAADBb+zbNgE7PPGxOr3d6ay8Gt8BaHI5UzctFq2dVn6zuIw4AAACA2blv0+znWdVFxDErZrWwxm6QZnWur3OrN1W38DYHAAAAWHi3qt7SNPMx+5rn69re5rD2jrK5zP71gepB3uoAAAAAC+dBTbMdM655vz7srb443AJrsfyzCGbvDtVbq8OqX6kuKxIAAACAYR1c/Wp1eNNM5w4imT0z2gWyRQQL5VrV58WwVLZV767+sXp79U2RAAAAAGyqg6sHVI+o7lbtKZKlsb26RnWcKBaDAmTxfKi6tRiW1jHVoU0nRA6tvioSAAAAgHV1heqeTac77tk0AGc5HVbdUQyLQwGyeJ5W/bEYqM5papu/sPL6/MrXk6vvVaed5wUAAADA+R1wntclqoOa7sJy7ZWv16quWu0lKqqnVi8Uw+JQgCyeK1XH5/ktAAAAAAAbZVvTbPbrolgchuiL58Smo1YAAAAAAGyM/0j5sXAUIIvpZSIAAAAAANgwZrILyC2wFtN+1VeqS4kCAAAAAGBdndR0+6utolgsToAspjOrV4sBAAAAAGDdvSrlx0JyAmRx3bD6pBgAAAAAANbN9up61edEsXicAFlcR1dHiAEAAAAAYN0cnvJjYSlAFtvLRQAAAAAAsG7+WgSLyy2wFtsB1QnVgaIAAAAAAFhT366uUp0uisXkBMhiO616qRgAAAAAANbcS1J+LDQnQBbfZavjqv1FAQAAAACwJk5vOv3xbVEsLidAFt83q1eKAQAAAABgzfxdyo+F5wTIPFyr+mwKLQAAAACA3XVOde3qWFEsNgPzefhC9RYxAAAAAADstjel/JgFBch8vEAEAAAAAAC77c9EMA8KkPl4f/VOMQAAAAAA7LJDqiPEMA+eATIvt68OEwMAAAAAwE7bXt2m+rAo5sEJkHk5vHqrGAAAAAAAdtobU37MihMg83Oj6qiUWwAAAAAAO+rc6sbVp0QxH4bk8/PJ6p/FAAAAAACww/4h5cfsOAEyT9deWax7iQIAAAAAYFXnVNerviiKeXECZJ4+X71WDAAAAAAAP9Hfp/yYJSdA5uuyTUXIJUQBAAAAAHCBTm66o863RTE/e4pgtk5vOrp1b1EAAAAAAFyg36neK4Z5cgJk3vapPlFdRxQAAAAAAD/i6OpmTX9Izgx5Bsi8ba1+UwwAAAAAAOfzlJQfs6YAmb9DqneIAQAAAADgv7y1ercY5s0tsJbDDauPVXuLAgAAAABYcmdVN6k+J4p58xD05fDNptM+dxUFAAAAALDkfrd6sxjmzwmQ5bFP0ymQG4gCAAAAAFhSR1a3zrM/loJngCyPrdXjqm2iAAAAAACW0Lbql1J+LA23wFouX6ku09RwAgAAAAAskxdXrxDD8nALrOVzsepT1ZVFAQAAAAAsiWOqG1XfF8XycAus5XNq9WQxAAAAAABL5CkpP5aOW2Atp89Wl6tuKQoAAAAAYOZeWr1QDMvHLbCW137VfzYd+wIAAAAAmKOPV7epzhLF8lGALLcbVh9uKkMAAAAAAObkjOpWTc9EZgm5BdZy++bKJnAfUQAAAAAAM/Mb1SFiWF5OgLBlZRO4vygAAAAAgJl4W/XgarsolpcChKorVUdWB4kCAAAAAFhw36huVn1NFMttDxFQndjUhm4VBQAAAACwwM6qHpLygzwDhB/6cnVqdV9RAAAAAAAL6snVm8RAKUD4UR+qrlbdVBQAAAAAwIJ5RfV/xMAPeAYIP27/6gPVzUUBAAAAACyIj1R3qs4UBT+gAOGCXLVpw/BQdAAAAABgdCdVt6xOEAXn5SHoXJDjq5+rzhEFAAAAADCwc6rHpPzgAngGCBfmC9WJ1YNFAQAAAAAMaHv16OotouCCKEBYzVHVXtWdRQEAAAAADOb3q5eKgQujAOEneW91jeomogAAAAAABvH31VPFwGo8BJ0dsU/1juruogAAAAAANtmh1f2rs0XBahQg7KjLVIdX1xQFAAAAALBJPl/dofqWKPhJ9hABO+ik6q7Vl0QBAAAAAGyCz1Z3SvnBDnIChJ115ep91dVEAQAAAABskOOqO1dfFgU7ygkQdtaXq3tVXxMFAAAAALABvto0k1R+sFMUIOyKL1b3zlEzAAAAAGB9faO6e9NMEnaKAoRddXT1oOpUUQAAAAAA6+CU6sHV50TBrlCAsDuOqO7S9IB0AAAAAIC1clLT7PFDomBXeQg6a+F61aHVFUQBAAAAAOymr1T3rD4rCnaHAoS1cvXq3StfAQAAAAB2xTHVParjRMHucgss1sqx1V3zMCIAAAAAYNd8obpbyg/WiAKEtXRC09E0JQgAAAAAsDM+33Ty4wRRsFYUIKy146tbV+8VBQAAAACwA/69uk31ZVGwlhQgrIfvVPepXi0KAAAAAGAVr6zuW31XFKy1PUXAOtlWvXnl+7uKAwAAAAA4j+3V71dPbZolwppTgLDe3tt0W6wHeL8BAAAAANXW6n9VLxIF62mLCNggD6xeU11cFAAAAACwtL5XPaJ6hyhYbwoQNtJVqjdUtxQFAAAAACyd/6wemoeds0E8BJ2NdEJ1p+pvRQEAAAAAS+Vvqruk/GADeSYDG+2c6i3V16r7eA8CAAAAwKxtrZ5YPatpNggbxi2w2Ex3qF5fXV4UAAAAADA7x1c/U31UFGwGt8BiMx1W3bp6jygAAAAAYFbeVd0+5QebSAHCZjuxumf1S9X3xQEAAAAAC+306ueqe1dfFQebyS2wGMn1q9dUNxUFAAAAACycI6tHVp8VBSPwAGpGclL199XeTcfjFHQAAAAAML5zqz+uHl19QxyMwoCZUT2o+ovqiqIAAAAAgGGdWP1y9XZRMBonQBjV56u/rPaqbpfn1QAAAADASLZVz68eWn1aHIzICRAWwe2ql1c3EAUAAAAAbLqPVY+rjhIFI3MChEVwYlMBcnp1p6ZTIQAAAADAxjqr+t9N5cdXxcHoFCAsinOrw6pDqutXVxUJAAAAAGyYf69+pnpj06wOhucWWCyqe1YvzG2xAAAAAGA9HV09tTpUFCwaJ0BYVMdUr6i+X9262lckAAAAALBmTqmeVf1C9QVxsIgUICyyc6oPVH9XHVjduNpDLAAAAACwy7Y1/eHxf6/eufLPsJDcAos5uWr1O02ttAelAwAAAMCOO6ep+Pij6gRxMAcKEObouk1FyCNzygkAAAAAVrOt+pvqudWx4mBOFCDM2Q2a7lP4UO91AAAAAPgR26t/rp5dfVoczJGhMMvg9tVvVA/JM0IAAAAAWG7bqjdVf1odIQ7mTAHCMrlc9cvVrzU9NB0AAAAAlsV3qhdXf1l9XRwsAwUIy+hiTQ9K//XqKuIAAAAAYMaOr17Q9IDzU8XBMlGAsMz2bXo+yC9VdxIHAAAAADPyvuqvmp7zcZY4WEYKEJhcqXpU9asr3wMAAADAovly9efVa6oTxcGyU4DAj9q/elj1+KaHp1sjAAAAAIxse3VY02mP11dnigQmhrtw4S5dPaCpELlvtZdIAAAAABjAOdW/NhUeb69OFgmcnwIEdsxB1f1ThgAAAACwOZQesJMUILDzrl49sOl0yF2q/UQCAAAAwDo4o3pvU+Hx9uo4kcCOU4DA7tmrum1TIXLP6hYiAQAAAGA3fLQ6tDqk+mC1TSSwaxQgsLZu2HQq5PbVHauriAQAAACAVRzX9BDzw5tOe3xaJLA2FCCwvq5U3aGpELlDdeNqb7EAAAAALKWzq483lR2Hrby+IhZYHwoQ2HhXaLpV1i2q61c3qK5b7SEaAAAAgFk4t/ps9ammEx0fXXl9VTSwcRQgMIaDm26fdY0fe/1UdaB4AAAAAIb07eqY87y+tPL16Oqb4oHNpQCB8R3YVIZcrjqounR1mZXXQef5d/s0nSK5xMp/b/9qP/EBAAAArOrM6oyV77/XdHpja3Vy9a2V1zfP8/3J1deaio7vig8AAAAAAAAAAAAAAAAAAAAAAAAAAAAAAAAAAAAAAAAAAAAAAAAAAAAAAAAAAAAAAAAAAAAAAAAAAAAAAAAAAAAAAAAAAAAAAAAAAAAAAAAAAAAAAAAAAAAAAAAAAAAAAAAAAAAAAAAAAAAAAAAAAAAAAAAAAAAAAAAAAAAAAAAAAAAAAAAAAAAAAAAAAAAAAAAAAAAAAAAAAAAAAAAAAAAAAAAAAAAAAAAAAAAAAAAAAAAAAAAAAAAAAAAAAAAAAAAAAAAAAAAAAAAAAAAAAAAAAAAAAAAAAAAAAAAAAAAAAAAAAAAAAAAAAAAAAAAAAAAAAAAAAAAAAAAAAAAAAAAAAAAAAAAAAAAAAAAAAAAAAAAAAAAAAAAAAAAAAAAAAAAAAAAAAAAAAAAAAAAAAAAAAAAAAAAAAAAAAAAAAAAAAAAAAAAAAAAAAAAAAAAAAAAAAAAAAAAAAAAAAAAAAAAAAAAAAAAAAAAAAAAAAAAAAAAAAAAAAAAAAAAAAAAAAAAAAAAAAAAAAAAAAAAAAAAAAAAAAAAAAAAAAAAAAAAAAAAAAAAAAAAAAAAAAAAAAAAAAAAAAAAAAAAAAAAAAAAAAAAAAAAAAAAAAAAAAAAAAAAAAAAAAAAAAAAAAAAAAAAAAAAAAAAAAAAAAAAAAAAAAAAAAAAAAAAAAAAAAAAAAAAAAAAAAAAAAAAAAAAAAAAAAAAAAAAAAAAAAAAAAAAAAAAAAAAAAAAAAAAAAAAAAAAAAAAAAAAAAAAAAAAAAAAAAAAAAAAAAAAAAAAAAAAAAAAAAAAAAAAAAAAAAAAAAAAAAAAAAAAAAAAAAAAAAAAAAAAAAAAAAAAAAAAAAAAAAAAAAAAAAAAAAAAAAAAAAAAAAAAAAAAAAAAAAAAAAAAAAAAAAAAAAAAAAAAAAAAAAAAAAAAAAAAAAAAAAAAAAAAAAAAAAAAAAAAAAAAAAAAAAAAAAAAAAAAAAAAAAAAAAAAAAAAAAAAAAAAAAAAAAAAAAAAAAAAAAAAAAAAAAAAAAAAAAAAAAAAAAAAAAAAAAAAAAAAAAAAAAAAAAAAAAAAAAAAAAAAAAAAAAAAAAAAAAAAAAAAAAAAAAAAAAAAAAAAAAAAAAAAAAAAAAAAAAAAAAAAAAAAAAAAAAAAAAAAAAAAAAAAAAAAAAAAAAAAAAAAAAAAAAAAAAAAAAAAAAAAAAAAAAAAAAAAAAAAAAAAAAAAAAAAAAAAAAAAAAAAAAAAAAAAAAAAAAAAAAAAAAAAAAAAAAAAAAAAAAAAAAAAAAAAAAAAAAAAAAAAAAAAAAAAAAAAAAAAAAAAAAAAAAAAAAAAAAAAAAAAAAAAAAAAAAAAAAAAAAAAAAAAAAAAAAAAAAAAAAAAAAAAAAAAAAAAAAAAAAAAAAAAAAAAAAAAAAAAAAAAAAAAAAAAAAAAAAAAAAAAAAAAAAAAAAAAAAAAAAAAAAAAAAAAAAAAAAAAAAAAAAAAAAAAAAAAAAAAAAAAAAAAAAAAAAAAAAAAAAAAAAAAAAAAAAAAAAAAAAAAAAAAAAAAAAAAAAAAAAAAAAAAAAAAAAAAAAAAAAAAAAAAAAAAAAAAAAAAAAAAAAAAAAAAAAAAAAAAAAAAAAAAAAAAAAAAAAAAAAAAAAAAAAAAAAAAAAAAAAAAAAAAAAAAAAAAAAAAAAAAAAAAAAAAAAAAAAAAAAAAAAAAAAAAAAAAAAAAAAAAAAAAAAAAAAAAAAAAAAAAAAAAAAAAAAAAAAAAAAAAAAAAAAAAAAAAAAAAAAAAAAAAAAAAAAAAAAAAAAAAAAAAAAAAAAAAAAAAAAAAAAAAAAAAAAAAAAAAAAAAAAAAAAAAAAAAAAAAAAAAAAAAAAAAAAAAAAAAAAAAAAAAAAAAAAAAAAAAAAAAAAAAAAAAAAAAAAAAAAAAAAAAAAAAAAAAAAAAAAAAAAAAAAAAAAAAAAAAAAAAAAAAAAAAAAAAAAAAAAAAAAAAAAAAAAAAAAAAAAAAAAAAAAAAAAAAAAAAAAAAAAAAAAAAAAAAAAAAAAAAAAAAAAAAAAAAAAAAAAAAAAAAAAAAAAAAAAAAAAAAAAAAAAAAAAAAAAAAAAAAAAAAAAAAAAAAAAAAAAAAAAAAAAAAAAAAAAAAAAAAAAAAAAAAAAAAAAAAAAAAAAAAAAAAAAAAAAAAAAAAAAAAAAAAAAAAAAAAAAAAAAAAAAAAAAAAAAAAAAAAAAAAAAAAAAAAAAAAAAAAAAAAAAAAAAAAAAAAAAAAAAAAAAAAAAAAAAAAAAAAAAAAAAAAAAAAAAAAAAAAAAAAAAAAAAAAAAAAAAAAAAAAAAAAAAAAAAAAAAAAAAAAAAAAAAAAAAAAAAAAAAAAAAAAAAAAAAAAAAAAAAAAAAAAAAAAAAAAAAAAAAAAAAAAAAAAAAAAAAAAAAAAAAAAAAAAAAAAAAAAAAAAAAAAAAAAAAAAAAAAAAAAAAAAAAAAAAAAAAAAAAACA0f1/DedoGojdzwUAAAAZdEVYdFNvZnR3YXJlAHd3dy5pbmtzY2FwZS5vcmeb7jwaAAAAEnRFWHRFWElGOk9yaWVudGF0aW9uADGEWOzvAAAAAElFTkSuQmCC;rotation=-180;" vertex="1" parent="1">
                    <mxGeometry x="287" y="185" width="30" height="30" as="geometry"/>
                </mxCell>
                <mxCell id="24" style="edgeStyle=none;html=1;exitX=0;exitY=0;exitDx=0;exitDy=0;entryX=0;entryY=0.5;entryDx=0;entryDy=0;" edge="1" parent="1" source="25" target="23">
                    <mxGeometry relative="1" as="geometry"/>
                </mxCell>
                <mxCell id="25" value="Camera On top of Playing Pile" style="text;html=1;strokeColor=none;fillColor=none;align=center;verticalAlign=middle;whiteSpace=wrap;rounded=0;" vertex="1" parent="1">
                    <mxGeometry x="386" y="200" width="70" height="30" as="geometry"/>
                </mxCell>
                <mxCell id="26" style="edgeStyle=none;html=1;exitX=0.5;exitY=0;exitDx=0;exitDy=0;entryX=0.5;entryY=1;entryDx=0;entryDy=0;" edge="1" parent="1" source="27" target="22">
                    <mxGeometry relative="1" as="geometry"/>
                </mxCell>
                <mxCell id="27" value="Camera Stand" style="text;html=1;strokeColor=none;fillColor=none;align=center;verticalAlign=middle;whiteSpace=wrap;rounded=0;" vertex="1" parent="1">
                    <mxGeometry x="262" y="290" width="80" height="13" as="geometry"/>
                </mxCell>
                <mxCell id="31" value="" style="rounded=0;whiteSpace=wrap;html=1;" vertex="1" parent="1">
                    <mxGeometry x="220" y="205" width="20" height="25" as="geometry"/>
                </mxCell>
                <mxCell id="32" value="" style="ellipse;whiteSpace=wrap;html=1;aspect=fixed;" vertex="1" parent="1">
                    <mxGeometry x="227.5" y="210" width="5" height="5" as="geometry"/>
                </mxCell>
                <mxCell id="33" value="" style="ellipse;whiteSpace=wrap;html=1;aspect=fixed;" vertex="1" parent="1">
                    <mxGeometry x="227.5" y="220.5" width="5" height="5" as="geometry"/>
                </mxCell>
                <mxCell id="34" style="edgeStyle=none;html=1;exitX=0.5;exitY=0;exitDx=0;exitDy=0;entryX=0.5;entryY=1;entryDx=0;entryDy=0;" edge="1" parent="1" source="35" target="31">
                    <mxGeometry relative="1" as="geometry"/>
                </mxCell>
                <mxCell id="35" value="Speakers" style="text;html=1;strokeColor=none;fillColor=none;align=center;verticalAlign=middle;whiteSpace=wrap;rounded=0;" vertex="1" parent="1">
                    <mxGeometry x="202" y="290" width="56" height="13" as="geometry"/>
                </mxCell>
                <mxCell id="36" value="" style="rounded=0;whiteSpace=wrap;html=1;" vertex="1" parent="1">
                    <mxGeometry x="317" y="87.5" width="3" height="12.5" as="geometry"/>
                </mxCell>
                <mxCell id="37" value="" style="ellipse;whiteSpace=wrap;html=1;aspect=fixed;" vertex="1" parent="1">
                    <mxGeometry x="314" y="80" width="9" height="9" as="geometry"/>
                </mxCell>
                <mxCell id="38" style="edgeStyle=none;html=1;exitX=0;exitY=0.5;exitDx=0;exitDy=0;" edge="1" parent="1" source="39" target="37">
                    <mxGeometry relative="1" as="geometry"/>
                </mxCell>
                <mxCell id="39" value="Microphone" style="text;html=1;strokeColor=none;fillColor=none;align=center;verticalAlign=middle;whiteSpace=wrap;rounded=0;" vertex="1" parent="1">
                    <mxGeometry x="380" y="69.5" width="61.99" height="30" as="geometry"/>
                </mxCell>
            </root>
        </mxGraphModel>
    </diagram>
</mxfile>